<svg xmlns="http://www.w3.org/2000/svg" viewBox="0 0 480 360" fill="none" role="img" aria-hidden="true">
  <defs>
    <linearGradient id="steel" x1="0%" y1="0%" x2="100%" y2="100%">
      <stop offset="0%" stop-color="#8a9aaa"/>
      <stop offset="50%" stop-color="#c8d4e0"/>
      <stop offset="100%" stop-color="#6a7888"/>
    </linearGradient>
    <linearGradient id="frame" x1="0%" y1="0%" x2="0%" y2="100%">
      <stop offset="0%" stop-color="#4a5568"/>
      <stop offset="100%" stop-color="#2d3748"/>
    </linearGradient>
    <filter id="shadow" x="-20%" y="-20%" width="140%" height="140%">
      <feDropShadow dx="0" dy="16" stdDeviation="18" flood-color="#000" flood-opacity="0.45"/>
    </filter>
  </defs>
  <g filter="url(#shadow)" transform="rotate(-6 240 180)">
    <rect x="60" y="70" width="360" height="240" rx="6" fill="url(#frame)" stroke="#1a202c" stroke-width="2"/>
    <rect x="85" y="95" width="310" height="190" rx="4" fill="url(#steel)" stroke="#718096" stroke-width="1.5"/>
    <rect x="120" y="130" width="18" height="18" rx="2" fill="#1a202c" opacity="0.85"/>
    <rect x="155" y="130" width="18" height="18" rx="2" fill="#1a202c" opacity="0.85"/>
    <rect x="190" y="130" width="18" height="18" rx="2" fill="#1a202c" opacity="0.85"/>
    <rect x="225" y="130" width="18" height="18" rx="2" fill="#1a202c" opacity="0.85"/>
    <rect x="260" y="130" width="18" height="18" rx="2" fill="#1a202c" opacity="0.85"/>
    <rect x="295" y="130" width="18" height="18" rx="2" fill="#1a202c" opacity="0.85"/>
    <rect x="330" y="130" width="18" height="18" rx="2" fill="#1a202c" opacity="0.85"/>
    <rect x="120" y="170" width="40" height="12" rx="2" fill="#1a202c" opacity="0.85"/>
    <rect x="180" y="170" width="60" height="12" rx="2" fill="#1a202c" opacity="0.85"/>
    <rect x="260" y="170" width="30" height="12" rx="2" fill="#1a202c" opacity="0.85"/>
    <rect x="310" y="170" width="50" height="12" rx="2" fill="#1a202c" opacity="0.85"/>
    <rect x="140" y="210" width="80" height="40" rx="3" fill="#1a202c" opacity="0.85"/>
    <rect x="240" y="210" width="120" height="40" rx="3" fill="#1a202c" opacity="0.85"/>
    <circle cx="75" cy="85" r="5" fill="#2d3748" stroke="#718096" stroke-width="1"/>
    <circle cx="405" cy="85" r="5" fill="#2d3748" stroke="#718096" stroke-width="1"/>
    <circle cx="75" cy="295" r="5" fill="#2d3748" stroke="#718096" stroke-width="1"/>
    <circle cx="405" cy="295" r="5" fill="#2d3748" stroke="#718096" stroke-width="1"/>
  </g>
</svg>
