<?xml version="1.0" encoding="UTF-8"?>
<svg id="Layer_1" data-name="Layer 1" xmlns="http://www.w3.org/2000/svg" viewBox="0 0 841.89 1052.36">
  <defs>
    <style>
      .cls-1 {
        fill: #183329;
      }

      .cls-2 {
        fill: #16382b;
      }

      .cls-3 {
        fill: #164f38;
      }

      .cls-4 {
        fill: #183228;
      }

      .cls-5 {
        fill: #182b27;
      }

      .cls-6 {
        fill: #182c27;
      }

      .cls-7 {
        fill: #4ebb78;
      }

      .cls-8 {
        fill: #4eba78;
      }
    </style>
  </defs>
  <path class="cls-5" d="M.16,882.33v-38.18c1.21-1.61,2.79-2.51,4.73-3.13,5.7-1.81,11.11-4.35,16.62-6.65,10.54-4.39,21.33-5.08,32.4-2.45,12.31,2.93,21.86-1.17,27.88-12.16,5.06-9.26,12.59-15.75,21.96-20.22,8.83-4.21,17.88-8.07,27.96-7.15,21.01,1.91,38.86,9.78,50.84,28.1,2.36,3.61,4.8,7.05,8.64,9.31,8.3,4.88,18.97,4.11,26.24-2.02,6.9-5.82,9.59-16.34,6.37-24.88-3.54-9.38-11.25-14.61-21.34-14.48-1.96,.02-3.89,.2-5.79,.67-14.23,3.56-27.79,1.63-40.86-4.79-3.38-1.66-6.94-2.9-10.48-4.19-12.08-4.4-23.75-2.64-35.22,2.31-7.86,3.39-15.62,6.89-24.33,7.89-6.24,.72-12.14-.25-18.08-1.64-11.19-2.62-20.69,.92-26.14,11.04-6.35,11.8-16.16,19-28.19,23.81-2.89,1.15-5.72,2.45-8.76,3.21-1.84,.46-3.3,.23-4.47-1.3v-24.16c1.32-2.3,3.5-3.7,5.49-5.31,10.81-8.69,10.81-25.86,0-34.58-1.99-1.61-4.18-3.01-5.49-5.31v-30.39c1.7-1.32,3.38-.7,5.14-.07,6.71,2.42,13.1,5.7,20.02,7.56,9.85,2.65,19.5,1.94,29.02-1.7,7.86-3.01,15.35-7.07,23.77-8.54,6.87-1.2,13.68-1.16,20.45,.6,12.86,3.35,22.25-.59,28.86-12.21,4.69-8.26,11.31-14.49,19.7-18.81,8.94-4.6,18.25-9.05,28.46-8.33,21.05,1.48,39.53,8.74,51.68,27.26,4.08,6.22,8.73,11.16,16.22,12.99,10.48,2.55,21.67-3.44,25.68-13.95,4-10.5-.28-22.49-9.87-27.49-5.12-2.67-10.5-3.58-16.22-2.27-13.53,3.08-26.65,2.62-39.48-3.54-6.98-3.35-14.24-6.17-22.1-7.29-9.14-1.31-17.49,1-25.73,4.39-7.07,2.91-13.95,6.29-21.64,7.52-6.8,1.09-13.42,.71-20.04-1.04-11.6-3.06-21.48,.69-27.17,11.11-6.05,11.06-15.18,18.16-26.49,22.98-6.37,2.71-12.87,4.85-19.79,5.51-6.85,.65-13.46-.62-19.89-2.77-5.04-1.69-9.88-3.93-14.7-6.21-2.48-1.17-4.68-2.56-5.87-5.16v-39.74c1.43-1.65,2.69-.76,4.05,.2,5.98,4.22,9.87,10.22,13.81,16.16,8.21,12.37,25.26,13.84,35.2,2.99,6.46-7.05,7.7-18.08,2.99-26.46-4.66-8.28-14.42-12.78-23.93-10.61-7.79,1.78-15.6,2.44-23.53,1.7-3.37-.32-6.83-.57-8.58-4.23v-38.96c1.28-1.77,3-2.67,5.19-3,6.73-1.01,13.41-1.18,20.08,.41,14.09,3.36,22.27,.16,29.46-12.21,6.56-11.27,16.6-17.77,28.28-22.67,15.73-6.6,30.73-4.82,45.97,1.85,11.65,5.1,20.64,12.84,27.28,23.46,9.19,14.7,26.46,12.78,34.06,5.72,7.5-6.97,9.87-17.32,5.68-26.28-4.43-9.51-13.82-14.28-24.83-12.56-5.25,.82-10.39,2.03-15.79,2.12-7.18,.12-13.9-1.36-20.46-4.04-4.57-1.87-9.14-3.71-13.7-5.59-11.72-4.82-23.45-4.74-35.27-.06-7.34,2.91-14.38,6.61-22.22,8.28-7.27,1.55-14.39,1.32-21.57-.45-13.07-3.22-21.58,.31-28.59,11.96-2.64,4.39-5.66,8.38-9.51,11.74-1.17,1.02-2.3,2.28-4.06,1.05v-70.91c1.05-1.35,2.44-1.28,3.89-.91,11.82,3,22.86,.4,33.66-4.47,7.82-3.52,15.75-6.68,24.53-7.05,5.26-.22,10.34,.49,15.37,1.75,11.06,2.76,21.38-1.02,26.53-11.09,11.13-21.76,46.07-36.19,70.92-24.07,5.82,2.84,11.99,4.87,17.26,8.85,6.13,4.64,10.62,10.61,14.72,16.95,5.49,8.47,15.16,12.17,25.12,9.57,8.72-2.28,15.39-10.51,16.12-19.88,.75-9.65-4.72-18.56-13.72-22.35-4.74-2-9.68-2-14.54-.86-12.94,3.04-25.45,2.43-37.61-3.35-3.62-1.72-7.46-3-11.19-4.52-12.33-5.02-24.52-4.69-36.67,.71-8.54,3.8-17.09,7.49-26.58,8.5-5.29,.56-10.47,.09-15.38-1.4-13.58-4.11-23.93,2.63-29.34,12.81-6.14,11.57-16.67,17.69-28.36,22.44-9.55,3.88-19.28,4.84-29.38,3.31-2.16-.33-3.95-1.2-5.35-2.87v-25.71c2.41-1.86,4.47,.08,6.54,.74,9.97,3.16,19.45,.49,25.49-7.35,5.6-7.26,6.27-17.2,1.68-24.83-5.22-8.68-13.79-12.39-24.33-10.71-3.09,.49-6.25,2.24-9.4,.07v-24.16c3.92-3.7,9.11-3.35,13.88-4.21,12.52-2.24,23.9,1.83,34.91,7.01,15.34,7.22,30.43,7.42,45.78,.02,9.17-4.42,18.73-7.69,29.21-7.14,3.93,.21,7.7,1.09,11.5,1.94,10.91,2.42,20.09-1.09,25.55-10.88,10.54-18.91,27.89-26.18,47.96-29.08,4.28-.62,8.59,.3,12.72,1.35,17.25,4.39,32.02,12.38,41.84,28.11,8.63,13.82,25.51,15.5,36.1,4.04,6.3-6.82,7.58-17.53,3.07-25.76-4.7-8.58-14.16-13.15-23.64-11.34-3.82,.73-7.62,1.51-11.49,2.07-8.09,1.17-15.77-.16-23.27-3.04-4.73-1.82-9.43-3.69-14.08-5.7-12.99-5.6-25.96-5.5-38.92,.18-4.87,2.14-9.7,4.4-14.8,6-8.73,2.74-17.5,3.28-26.48,1.05-13.88-3.46-22.78,.4-29.6,12.85-2.82,5.15-6.69,9.42-11.22,12.8-11.03,8.23-23.46,14.33-37.37,13.62-20.39-1.05-38.17-8.81-50.37-26.08-4.79-6.78-9.63-12.92-18.36-14.45-1.43-.25-1.92-1.67-2.91-2.46v-17.92c1.58-2.06,3.79-2.14,6.01-1.66,18.59,3.96,35,11.44,45.43,28.45,4.77,7.77,11.45,12.13,20.89,11.8,11.63-.41,21.32-10.23,21.49-22,.17-11.65-9.01-21.64-20.54-22.48-4.36-.32-8.49,.84-12.7,1.6-11.61,2.09-22.7,.43-33.4-4.48-7.44-3.41-15.03-6.46-23.17-7.82-1.59-.26-3-.81-4.02-2.11v-61.56c1.17-6.61,5.49-10.98,10.68-14.6,11.42-7.96,23.89-13.12,38.04-13,9.17,.08,17.4,3.8,25.68,7.26,10.84,4.54,18.74,12.36,25.03,22.02,5.33,8.19,12.69,12.68,22.61,11.39,9.94-1.29,16.26-7.28,18.72-16.87,4.05-15.78-9.36-30.29-25.36-27.32-9.54,1.77-19.02,2.85-28.58,.99-6.93-1.35-13.2-4.71-19.63-7.46-13.65-5.84-27.04-6.15-40.66,.21-6.92,3.23-14,6.24-21.66,7.5-1.89,.31-3.6,.49-4.87-1.29v-48.31c1.37-1.82,3.2-1.84,5.25-1.52,4.94,.78,9.43,2.79,14.01,4.63,7.8,3.14,15.4,6.88,24.04,7.5,8.37,.59,16.23-.99,23.88-4.3,7.13-3.09,14.16-6.46,22-7.63,6.39-.96,12.71-1.04,18.9,.8,15.06,4.47,24.74-3.37,29.89-13.12,3.85-7.27,9.81-12.78,16.94-16.76,8.78-4.9,18.07-8.5,28.2-9.57,4.33-.46,8.64-.02,12.74,1.07,11.08,2.95,21.79,6.8,30.82,14.28,5.08,4.21,8.87,9.41,12.41,14.87,7.35,11.32,20.78,14.11,31.93,6.67,8.36-5.58,11.73-16.89,7.93-26.59-3.84-9.78-13.42-15.51-23.49-14.08-4.11,.58-8.12,1.62-12.24,2.21-10.04,1.45-19.33-.85-28.39-4.76-3.82-1.65-7.67-3.18-11.54-4.71-11.65-4.6-23.29-4.48-34.91,.18-7.82,3.13-15.38,7.01-23.8,8.44-6.33,1.08-12.63,1.16-18.91-.46-3.51-.9-7.01-1.92-10.73-1.45-8.18,1.04-14.24,5.15-18.34,12.3-11.02,19.23-28.91,26.49-49.8,28.47-2.88,.27-5.74-.24-8.49-.92-10.64-2.62-20.87-6.26-29.85-12.81-3.85-2.81-7.3-5.88-8.46-10.78v-29.61c1.41-1.94,3.05-1.34,4.82-.54,8.39,3.85,14.76,10,19.99,17.45,1.12,1.59,2.16,3.24,3.27,4.84,7.52,10.85,21.84,13.21,32.21,5.32,9.97-7.58,11.74-22.52,3.5-32.26-6.25-7.38-14.52-9.09-23.7-6.99-9.39,2.15-18.79,2.68-28.08-.17-4.34-1.33-9.12-2.14-12.01-6.35V60.23c.33-.29,.71-.4,1.15-.32,1.87,.98,1.89,3,2.5,4.63,4.33,11.62,14.96,17.64,26.99,14.71,13.08-3.18,25.67-2.56,37.95,3.25,3.98,1.88,8.15,3.4,12.28,4.93,10.76,3.99,21.57,4.08,32.37,.1,5.61-2.06,10.99-4.68,16.6-6.73,9.39-3.42,18.95-4.18,28.69-1.65,12.68,3.3,21.87-.23,28.4-11.47,9.69-16.67,25.09-24.66,43.21-27.2,22.52-3.16,46.25,8.96,58.48,28.37,7.56,12,21.19,15.38,32.25,8.01,8.74-5.82,12.28-17.6,8.2-27.23-4.25-10.02-14.63-15.99-24.97-13.32-15.07,3.9-29.23,2.11-43.1-4.59-9.21-4.46-18.84-7.27-29.33-6.23-7.93,.79-15.08,3.92-22.14,7.12-12.06,5.46-24.2,6.96-37.12,3.4-9.84-2.71-20.04,1.71-24.94,10.66-10.46,19.12-27.96,26.45-48.16,29.42-3.09,.45-6.23,0-9.29-.64-18.08-3.8-34.03-11.09-44.39-27.38-3.14-4.93-6.9-9.13-12.46-11.32-12.07-4.75-25.14,1.53-29.48,14.06-.61,1.77-.58,3.93-2.54,5.04-.44,.08-.82-.03-1.15-.32V21.27c1.45-2.96,4.26-4.05,7.08-5.07,13.19-4.79,26.02-3.71,39.08,1.29,13.65,5.23,24.01,13.77,32,25.94,7.55,11.49,21.46,13.57,32.32,5.63,6.99-5.11,10.23-14.93,7.81-23.67-2.45-8.86-9.72-15.23-18.47-16.12-3.11-.32-6.26-.38-9.29,.48-15.74,4.49-30.26,.47-44.39-6.28-1.35-.64-2.62-1.38-1.72-3.24h227.56c1.5,1.13,2.81,2.34,3.8,4.04,5.72,9.97,14.61,13.9,25.98,11.5,5.22-1.1,10.41-1.98,15.79-1.94,5.8,.04,11.33,1.17,16.7,3.24,5.32,2.06,10.63,4.18,15.9,6.35,12.15,5.01,24.25,4.87,36.32-.24,2.99-1.26,5.98-2.51,8.94-3.84,11.63-5.24,23.58-6.42,35.99-3.11,10.23,2.73,19.86-1.46,25.93-11.11,1.27-2.02,2.57-3.87,4.8-4.88h31.95c1.16,2.38-1.03,3.26-2.16,4.43-4.64,4.83-7.03,10.42-6.83,17.21,.41,13.59,12.63,23.64,26.02,21.22,3.44-.62,6.84-1.45,10.32-1.96,12.09-1.8,23.07,1.73,33.86,6.56,6.16,2.75,12.43,5.19,19.26,5.96,10.34,1.16,19.8-1.63,28.97-5.94,9.04-4.25,18.36-7.08,28.52-6.6,3.56,.17,6.96,.93,10.3,1.92,10.78,3.21,22.46-2.87,27.02-11.85,5.19-10.24,13.62-17.12,24.16-21.59,6.83-2.89,13.65-5.55,21.16-6.32,4.23-.43,8.38-.27,12.36,.69,17.59,4.23,33.51,11.21,43.39,27.65,1.6,2.66,3.32,5.26,5.84,7.23,9.88,7.7,23.22,6.85,30.97-2.02,8.24-9.43,7.68-22.65-1.23-31.7-1.27-1.29-4.09-2.03-2.56-4.89,11.95,0,23.9,.05,35.85-.05,1.95-.02,2.41,.44,2.39,2.39-.1,11.95-.05,23.9-.05,35.84-4.8,16.22-17.56,23.67-32.07,29.29-13.12,5.09-25.88,4.44-39.05-.54-14.05-5.31-25.1-13.56-33.09-26.37-4.95-7.93-12.8-11.51-22.09-9.86-9.98,1.77-16.47,7.83-18.56,18.04-3.05,14.93,10.58,28.79,25.63,26.02,4.08-.75,8.14-1.51,12.26-2.07,8.96-1.24,17.24,.87,25.46,3.95,5.83,2.19,11.39,5.08,17.37,6.89,12.16,3.68,23.85,2.11,35.24-3.12,6.97-3.21,14.08-6.05,21.74-7.21,2.58-.39,5.21-.85,7.17,1.6v49.87c-3.62,4.43-8.96,4.38-13.87,4.91-5.81,.63-11.61,.04-17.35-1.52-11.12-3-21.08,.96-26.57,10.93-9.18,16.68-24.34,24.15-41.92,28.08-8.35,1.86-16.56,.7-24.52-2.14-11.33-4.03-22.19-8.86-30.16-18.49-2.58-3.12-4.7-6.53-7.09-9.76-7.45-10.06-19.31-12.56-29.99-6.3-9.16,5.37-13.07,16.58-9.33,26.74,3.67,9.98,14.23,16.17,24.51,14.3,4.21-.77,8.37-1.68,12.66-2.09,8.48-.82,16.51,.46,24.32,3.74,4.79,2.01,9.63,3.89,14.47,5.78,12.07,4.73,24.02,4.49,35.98-.6,7.63-3.24,15.13-6.9,23.46-8.22,6.51-1.04,13.03-1.02,19.28,1,12.38,4,23.49-2.35,28.22-11.33,3.23-6.14,7.43-11.59,13.33-15.51,1.39-.93,2.78-2.09,4.58-.83v74.81c-.99,1.22-2.16,1.73-3.76,1.16-14.52-5.15-28.14-1.88-41.37,4.58-12.06,5.89-24.46,6.99-37.5,3.65-10.26-2.62-19.92,1.23-24.98,10.57-9.94,18.38-26.59,25.83-45.8,29.23-7.27,1.29-14.49-.37-21.4-2.92-10-3.7-19.98-7.44-27.52-15.56-3.39-3.64-6.02-7.8-8.83-11.85-8.29-11.92-23.97-13.8-34.21-4.12-7.19,6.8-9.04,17.66-4.51,26.49,4.59,8.95,14.21,13.84,24.12,11.61,9.52-2.14,19.05-2.69,28.57-.82,6.9,1.36,13.19,4.73,19.61,7.49,13.17,5.65,26.12,5.62,39.29,.06,7.39-3.12,14.59-6.78,22.71-7.97,6.8-1,13.47-.73,20.05,1.14,5.45,1.54,10.7,1.48,15.97-.83,5.24-2.3,9.02-6.02,11.66-11,4.05-7.68,9.95-13.59,17.39-17.93,9.29-5.42,19.18-9.26,30.03-9.98,5.75-.38,11.37,.67,16.83,2.55,1.7,.59,2.68,1.82,3.66,3.15v31.17c-1.06,1.45-2.47,1.44-4.14,1.34-10.01-.58-17.7,3.35-22.34,12.36-4.63,8.97-3.04,17.47,3.2,24.96,4.67,5.6,11.18,7.76,18.41,7.47,1.87-.08,3.62-.39,4.87,1.4v38.96c-1.22,1.64-2.97,1.86-4.84,1.94-8.53,.38-14.64,4.63-18.91,11.85-11.78,19.95-30.15,27.97-52.42,28.55-4.92,.13-9.77-1.29-14.42-3.04-8.5-3.21-17.05-6.28-24.04-12.49-4.81-4.28-8.63-9.29-12.08-14.66-7.28-11.35-22.15-13.8-33.03-5.49-9.77,7.46-11.1,22.85-2.59,32.32,6.13,6.82,13.96,8.7,22.72,6.64,8.73-2.05,17.49-2.28,26.27-.7,5.4,.98,10.31,3.51,15.34,5.6,3.48,1.44,6.93,2.97,10.51,4.14,10.54,3.44,20.94,2.99,31.23-1.11,5.91-2.35,11.61-5.19,17.71-7.1,8.49-2.66,17.04-3.23,25.73-1.07,3.02,.75,6.02,1.66,9.16,1.82,1.54,.08,2.72,.74,3.67,1.89v42.86c-.77,1.39-1.7,2.62-3.2,3.29-10.67,4.82-21.29,9.73-33.51,8.83-3.66-.27-7.2-.86-10.73-1.72-10.6-2.59-20.83,.99-25.87,10.36-7.39,13.77-19.12,21.4-33.31,26.38-12.05,4.22-23.83,4.11-35.74-.57-9.86-3.87-19.5-7.92-26.72-16.13-2.84-3.24-5.23-6.77-7.61-10.33-7.97-11.88-23.68-14.16-33.91-5-7.47,6.68-9.62,17.22-5.37,26.32,4.23,9.06,13.63,14.08,23.75,12.41,6.02-1,11.97-2.02,18.13-2.11,8.61-.13,16.32,2.6,24.01,5.85,6.93,2.93,13.81,5.9,21.44,6.84,8.26,1.02,16.01-.48,23.56-3.59,8.04-3.31,15.9-7.03,24.62-8.42,6.15-.98,12.24-.87,18.11,1.01,12.86,4.13,24-2.35,29.38-12.68,6.32-12.14,17.43-18.48,29.87-22.88,1.31-.46,2.26-.1,3.12,.86v26.49c-1.4,2.72-2.73,5.48-4.09,8.22-3.72,7.47-3.49,14.97,.84,22.13,1.37,2.26,1.84,4.86,3.25,7.06v28.83c-1.35,1.9-3.09,1.45-4.88,.83-6.26-2.16-12.39-4.7-18.49-7.26-12.27-5.16-24.45-5.19-36.69,.03-3.94,1.68-7.84,3.46-11.83,5.02-10.69,4.2-21.58,5.47-32.77,2.04-7.76-2.37-14.6-.27-20.83,4.49-2.86,2.18-4.63,5.25-6.38,8.28-5.59,9.7-13.62,16.55-23.94,20.79-6.83,2.81-13.55,5.53-21.19,6.04-11.65,.78-21.95-2.95-32.25-7.47-10.39-4.56-17.99-12.07-23.93-21.53-7.56-12.04-22.01-15.15-33.04-7.18-8.41,6.07-11.29,17.75-6.82,27.58,4.15,9.12,14.72,14.54,24.46,12.37,8.28-1.85,16.52-3.1,25.07-1.64,6.25,1.07,11.91,3.59,17.64,5.99,7.92,3.31,15.8,6.48,24.64,6.62,9.29,.15,17.56-3.07,25.75-6.78,9.01-4.08,18.29-6.52,28.3-5.8,3.01,.21,5.9,.8,8.81,1.48,12.43,2.89,21.68-1.08,27.82-12.28,6.43-11.74,16.8-18.33,28.79-23.16,13.85-5.58,27.51-5.73,41.2,.43,4.14,1.86,8.47,3.31,12.44,5.55,3.48,1.95,6.7,4.16,8.11,8.16v33.51c-1.56,1.83-3.06,.71-4.47-.17-5.81-3.61-10.62-8.27-14.52-13.87-1.26-1.81-2.44-3.68-3.71-5.48-6.66-9.46-18.57-12.59-28.58-7.51-10.12,5.13-14.74,16.52-11.11,27.41,3.42,10.27,14.31,16.73,25.45,14.38,7.06-1.49,14.08-2.03,21.23-1.9,3.96,.07,7.67,1.11,11.38,2.32,1.91,.62,3.26,1.9,4.34,3.53v32.73c-1.71,1.02-2.67-.37-3.69-1.24-6.86-5.88-14.58-7.21-23.31-5.22-11.66,2.65-23.15,2.08-34.32-2.77-5.83-2.53-11.69-5.04-17.76-6.96-11.49-3.65-22.54-1.78-33.36,2.9-7.49,3.24-14.86,6.71-23.16,7.75-5.93,.74-11.66,.32-17.34-1.13-12.87-3.29-21.62,.06-28.4,11.39-11.17,18.67-28.62,26.37-49.31,27.95-9.12,.7-17.49-2.97-25.86-6.33-11.81-4.74-20.54-12.76-27.27-23.39-6.99-11.06-20.04-14.17-30.91-7.7-10.25,6.1-13.66,19.62-7.68,30.38,4.4,7.9,13.8,12.3,22.8,10.77,2.94-.5,5.85-1.19,8.78-1.75,12.92-2.47,24.64,1.33,36.17,6.5,6.77,3.04,13.68,5.62,21.23,6.01,8.23,.42,15.97-1.42,23.42-4.8,4.02-1.82,8.15-3.39,12.28-4.94,9.3-3.49,18.79-3.6,28.36-1.52,13.9,3.02,21.63-.33,28.95-12.66,5.11-8.61,12.27-14.96,21.31-19.31,11.57-5.57,23.49-9.57,36.43-6.52,12.07,2.85,23.67,7.17,33.07,15.68,4.23,3.83,7.56,8.52,10.66,13.34,4.02,6.24,9.7,9.99,17.17,10.83,6.63,.75,12.16-1.86,17.33-5.63,1.3-.95,2.46-2.56,4.42-1.23v23.38c-1.17,1.98-2.97,2.98-5.13,3.67-7.99,2.55-16.14,3.13-24.22,1.08-17.17-4.36-32.3-11.84-42.19-27.64-6.41-10.24-15.01-13.73-25.06-11.37-11.69,2.75-19.29,14.51-16.8,26.02,2.72,12.58,14.07,20.08,26.97,17.5,5.63-1.12,11.21-1.88,16.97-1.94,7.06-.08,13.63,1.57,20.01,4.32,4.65,2.01,9.36,3.87,14.09,5.68,10.07,3.88,20.26,4.05,30.5,.7,1.8-.59,3.48-1.28,4.86,.67v30.39c-1.41,1.2-2.93,.71-4.42,.24-12.49-3.92-24.57-2.81-36.36,2.75-3.28,1.55-6.67,2.89-10.06,4.19-9.72,3.7-19.66,4.48-29.82,2-3.02-.74-6.04-1.55-9.21-1.26-8.39,.76-14.55,4.82-18.82,12.1-11.73,19.99-30.28,29.2-52.39,28.21-19.49-.87-36.46-9.65-48.11-26.46-1.33-1.92-2.53-3.93-4.05-5.72-7.44-8.8-18.86-10.75-28.81-4.91-9.11,5.34-13.16,16.67-9.55,26.7,3.68,10.22,14.34,16.6,25.21,14.22,15.14-3.32,29.61-2.36,43.57,4.65,2.08,1.04,4.35,1.7,6.5,2.61,12.13,5.16,24.21,4.83,36.34-.03,6.85-2.74,13.42-6.19,20.73-7.81,7.65-1.7,15.28-1.94,22.7,.42,11.72,3.74,23.1-2.53,27.72-10.94,10.36-18.87,27.95-26.19,48.1-28.69,5.79-.72,11.6,.78,17.16,2.78,1.59,.57,2.48,1.81,3.57,2.88v44.42c-1.76,1.27-2.89-.02-4.04-1.04-3.52-3.13-6.28-6.88-8.8-10.84-5.47-8.6-14.92-12.69-24.02-10.47-10.16,2.47-16.48,9.78-17.55,20.29-1.39,13.65,11.21,25.75,24.79,23.72,7.16-1.07,14.22-3.17,21.56-2.5,2.99,.27,6.4-.1,8.06,3.43v28.05c-1.08,1.39-2.44,1.21-3.87,.73-4.48-1.49-8.97-1.14-13.44,.06-12.14,3.26-23.91,2.17-35.38-2.86-3.69-1.62-7.47-3-11.17-4.59-12.19-5.22-24.47-5.37-36.74-.31-3.84,1.58-7.69,3.14-11.51,4.79-10.61,4.6-21.54,5.47-32.75,2.63-11.35-2.88-21.02,.42-26.73,10.64-9.69,17.35-25.43,24.85-43.74,28.58-5.52,1.13-11.22,.87-16.62-.65-10.9-3.05-21.56-6.73-30.48-14.16-4.97-4.14-8.66-9.28-12.16-14.61-3.67-5.6-8.65-9.31-15.28-10.5-8.79-1.58-18.07,2.22-22.44,9.31-5.16,8.39-5.5,17,.04,25.3,5.41,8.11,13.43,10.6,22.79,9.28,3.97-.56,7.84-1.65,11.88-2.02,11.84-1.08,22.57,2.46,33.06,7.29,3.66,1.69,7.45,3,11.34,4.11,9.91,2.82,19.51,1.81,28.97-1.89,5.8-2.27,11.38-5.09,17.34-6.97,9.01-2.84,18.02-3.28,27.22-.77,12.27,3.35,21.68-.68,27.83-11.86,6-10.91,15.39-17.58,26.55-22.39,6.89-2.97,13.94-4.98,21.4-5.34,4.01-.19,8.1,.15,11.95,1.25,12.44,3.55,24.46,8.04,33.75,17.64,2.89,2.99,5.41,6.29,7.58,9.86,6.11,10,14.72,13.74,26.12,11.36,1.57-.33,3.07-.61,4.45,.48v19.48c-1.14,1.97-2.82,2.59-5.11,2.75-17.52,1.22-32.51-5.11-46.14-15.38-5.14-3.87-8.61-9.28-12.16-14.57-5.39-8.03-14.57-12.02-23.11-10.13-9.76,2.17-16.35,9.18-17.99,19.15-2.27,13.76,10.78,27.1,24.59,25.09,5.26-.77,10.4-2.25,15.72-2.59,9.99-.62,19.25,2.17,28.18,6.28,10.39,4.77,20.99,8.37,32.68,6.55,1.49-.23,2.45,.54,3.34,1.55v43.64c-1.17,1.25-2.47,2.24-4.16,2.75-6.05,1.83-10.25,5.92-13.43,11.2-12.17,20.25-30.88,28.25-53.63,28.39-4.53,.03-8.96-1.48-13.22-3.06-8.39-3.12-16.75-6.29-23.72-12.26-4.71-4.03-8.3-8.88-11.6-14.03-6.36-9.91-17.97-13.9-28.08-9.63-14.91,6.3-18.53,24.61-7.31,36.91,1.07,1.17,3,2.02,1.62,4.15h-149.63c-2.51-1.59-4.88-3.38-7.37-4.99-4.97-3.22-10.36-4.56-16.32-3.39-8,1.57-15.95,3.31-24.27,1.86-5.57-.97-10.78-2.76-15.92-4.93-4.66-1.97-9.32-3.94-14.13-5.54-9.99-3.33-19.91-2.88-29.77,.58-4.29,1.51-8.44,3.36-12.59,5.18-11.21,4.93-22.67,6.09-34.56,2.89-7.66-2.06-14.66-.44-20.89,4.42-1.84,1.44-3.76,2.73-5.77,3.91h-28.83c-2.11-1.74-.63-3.57-.08-5.32,3.8-12.19-1.14-23.7-12.28-28.56-4.73-2.07-9.63-1.99-14.53-.93-8.85,1.9-17.76,2.74-26.62,.61-7.21-1.73-13.94-4.96-20.74-7.87-13.52-5.78-26.71-5.28-39.96,.81-7.07,3.25-14.2,6.28-22.03,7.52-6.33,1.01-12.51,.72-18.48-1.17-11.61-3.66-23.05,1.68-28.79,12.44-6.83,12.8-17.91,20.26-32.37,22.48h-32.73c-11.07-1.57-20.64-6.12-28.31-14.36-2.83-3.04-5.35-6.32-7.52-9.89-9.81-16.14-30.36-15.97-39.99,.25-.79,1.33-.89,3.93-3.67,2.97v-35.07c1.26-2.32,3.52-3.25,5.81-4.13,13.04-5.03,25.72-3.75,38.66,1.08,13.84,5.17,24.37,13.8,32.37,26.08,5.48,8.41,13.56,11.99,23.53,9.8,9.42-2.07,15.08-8.3,17.16-17.61,3.53-15.73-11.01-29.47-27.63-25.94-9.02,1.92-17.97,2.66-26.97,.59-6.98-1.61-13.46-4.74-19.98-7.58-12.15-5.29-24.28-5.89-36.66-.93-1.98,.79-4.23,2.63-6.29-.06v-45.97c1.12-1.48,2.68-1.86,4.45-1.93,8.62-.32,15.27-4.18,19.33-11.76,9.02-16.82,24.36-24.09,41.85-28.14,5.62-1.3,11.44-1.18,17,.25,13.42,3.44,26.37,7.96,36.15,18.57,3.18,3.46,5.64,7.44,8.31,11.27,7.48,10.75,21.19,13.17,31.88,5.64,9.86-6.95,12.12-21.46,4.58-31.53-5.93-7.92-14.19-10.08-23.6-8.06-8.86,1.9-17.74,2.54-26.63,.61-6.25-1.36-12.05-4.11-17.81-6.77-14.59-6.73-29.01-6.92-43.59-.04-5.27,2.48-10.65,4.76-16.37,6.17-6.66,1.64-13.29,2.16-20.04,.75-4.19-.88-8.29-2.19-12.61-2.34-1.29-.05-2.09-.93-2.9-1.77Z"/>
  <path class="cls-7" d="M841.82,696.09c-4.28,3.74-8.63,7.37-14.43,8.54-10.2,2.05-19.81-1.86-25.63-10.65-3.16-4.78-6.18-9.73-10.6-13.38-12.44-10.29-26.78-17.34-42.99-16.14-19.18,1.42-35.83,9.08-45.82,27.08-6.07,10.92-17,15.65-29.02,12.36-11.39-3.11-22.27-1.81-33,2.72-6.66,2.81-13.14,6.13-20.36,7.47-9.16,1.7-18.06,.87-26.71-2.55-4.21-1.67-8.43-3.33-12.55-5.19-11.45-5.19-23.12-5.82-35.28-2.77-18.44,4.63-34.82-11.01-30.46-28.83,2.62-10.72,9.63-17.2,20.31-18.89,10.12-1.6,18.85,2.2,23.96,11.04,9.88,17.07,25.75,24.55,43.74,28.84,6.06,1.44,12.46,1.23,18.52-.52,15.81-4.58,29.89-11.41,38-27.17,5.2-10.11,16.73-14.73,27.57-11.52,11.85,3.51,23,1.96,34.09-2.71,7.37-3.11,14.53-6.69,22.67-7.82,8.23-1.14,16,.09,23.61,3,5.08,1.94,10.11,3.99,15.11,6.13,10.17,4.35,20.64,4.8,31.23,2.2,11.09-2.73,20.52-.51,28.05,8.38v30.39Z"/>
  <path class="cls-7" d="M841.82,925.97c-12.18,5.21-24.35,1.99-31.19-9.29-11.23-18.51-28.46-27.71-48.89-28.79-20.78-1.1-38.78,7.22-49.62,26.14-5.72,9.99-18.22,17.05-30.57,12.94-10.55-3.52-20.97-1.58-31.11,2.5-8.02,3.22-15.69,7.33-24.53,8.38-8.22,.98-15.99-.21-23.59-3.19-3.74-1.46-7.52-2.85-11.14-4.57-12.14-5.75-24.62-6.27-37.55-3.15-13.36,3.23-25.92-4.46-29.38-17.63-3.32-12.61,3.92-25.41,16.62-29.42,10.46-3.3,21.35,.69,27.72,10.4,4.08,6.23,8.24,12.44,14.59,16.51,27.21,17.43,51.61,18.23,77.75-4.63,3.05-2.66,5-6.26,6.96-9.79,6.14-11.09,17.14-15.78,29.34-12.4,10.4,2.88,20.51,2.01,30.44-1.92,3.73-1.48,7.44-3.03,11.09-4.67,13.69-6.16,27.28-5.86,41.04,0,8.06,3.43,15.95,7.4,24.9,8.46,6.45,.76,12.76,.26,18.89-1.39,6.33-1.71,12.27-1.35,18.23,1.1v44.42Z"/>
  <path class="cls-7" d="M803.63,.23c5.59,4.45,9.83,9.69,11.24,17.02,2.09,10.93-3.93,22.42-14.48,26.94-10.41,4.46-22.85,1.21-29.09-7.96-4.69-6.89-9.1-14.07-16.29-18.6-27.26-17.18-51.5-17.4-77.05,5.07-2.95,2.59-4.84,6.05-6.76,9.45-6.52,11.56-17.1,16.08-29.85,12.55-10.72-2.97-21.01-1.63-31.15,2.41-6.84,2.72-13.37,6.24-20.67,7.78-9.27,1.95-18.24,1.13-27.08-2.18-7.75-2.9-15.09-6.9-23.19-8.79-8.22-1.92-16.42-1.44-24.62,.57-14.54,3.56-27.42-3.62-30.8-17.44-2.73-11.15,1.34-20.06,10.42-26.82h26.5c4.05,.99,7.04,3.35,9.12,6.95,10.42,18.01,27.59,24.95,46.84,28.32,4.67,.82,9.34-.22,13.82-1.48,8.52-2.4,16.64-5.71,23.84-11.05,4.6-3.4,7.8-7.88,10.66-12.7,2.65-4.48,5.36-8.91,11.06-10.04h167.55Z"/>
  <path class="cls-7" d="M.16,357.12c9.8,.86,16.63,5.89,21.89,14.17,11.3,17.76,28.93,26.25,48.89,26.58,20.64,.35,38.24-8.38,49.02-27.5,5.91-10.49,16.91-15.16,28.48-11.91,10.97,3.09,21.53,2.06,31.92-2.21,3.95-1.62,7.86-3.34,11.8-4.99,12.33-5.17,24.69-5.16,37.07-.2,4.45,1.78,8.94,3.48,13.3,5.45,10.74,4.86,21.76,5.19,33.06,2.46,14.19-3.43,26.69,3.08,30.79,15.96,3.66,11.51-1.83,24.35-12.65,29.58-11.09,5.36-23.97,2-30.85-8.47-4.68-7.12-9.51-14.19-16.96-18.46-12.79-7.34-26.16-13.97-41.53-11-17.16,3.32-32.31,10.28-41.22,26.74-5.97,11.03-17.03,15.69-28.95,12.35-10.54-2.96-20.72-2.05-30.82,1.88-7.22,2.81-14.08,6.59-21.78,8.16-9.14,1.86-18.04,1.26-26.73-2.17-3.61-1.42-7.33-2.65-10.8-4.36-12.82-6.32-26.05-7.13-39.72-3.45-1.35,.37-2.81,.33-4.22,.49,0-16.36,0-32.73,0-49.09Z"/>
  <path class="cls-7" d="M.16,151.41c10.98,13.11,25.72,19.11,42.01,22.12,5.46,1.01,10.93,.41,16.17-1.14,12.43-3.68,24.29-8.5,32.45-19.35,1.7-2.27,3.06-4.8,4.52-7.24,6.25-10.44,16.88-14.93,28.59-11.68,11.11,3.08,21.76,1.89,32.26-2.46,6.57-2.72,12.89-6.08,19.93-7.56,9.23-1.94,18.28-1.41,27.09,2.08,4.81,1.91,9.67,3.73,14.39,5.84,10.86,4.86,21.98,5.3,33.42,2.53,15.79-3.83,28.84,4.46,31.48,19.85,1.83,10.65-4.12,21.54-14.19,25.99-10.31,4.56-22.48,1.69-28.96-7.21-4.73-6.5-8.67-13.71-15.55-18.24-26.68-17.53-50.05-18.92-76.64,2.53-3.77,3.04-6.25,7.22-8.6,11.45-6.07,10.92-16.93,15.62-28.97,12.31-10.68-2.93-21-2.12-31.16,2.08-4.07,1.68-8.15,3.31-12.2,5.04-12.44,5.3-24.89,5.2-37.43,.3-7.7-3.01-15.07-6.89-23.24-8.66-1.8-.39-3.57-.62-5.39-.52v-28.05Z"/>
  <path class="cls-7" d="M841.82,580.76c-10.4-8.37-22.32-13.41-35.34-15.9-5.81-1.11-11.64-.66-17.33,.98-15.75,4.55-29.42,11.65-37.51,27.18-5.3,10.16-16.44,14.22-27.7,11.18-11.37-3.06-22.27-2.01-33.04,2.48-6.79,2.83-13.36,6.28-20.71,7.64-9.3,1.73-18.3,.84-27.06-2.68-4.32-1.74-8.7-3.36-12.95-5.28-11.22-5.08-22.68-5.56-34.53-2.55-14.69,3.73-27.75-4.54-30.67-19.13-2.22-11.09,3.81-22.36,14.4-26.92,10.32-4.44,22.73-1.21,29.14,7.98,4.46,6.4,8.5,13.19,15.09,17.63,27.41,18.47,54.64,18.22,79.41-5.35,2.65-2.52,4.3-5.81,6.09-8.98,6.03-10.66,17.12-15.58,28.74-12.16,11.02,3.25,21.47,1.91,31.89-2.22,7.79-3.09,15.22-7.07,23.72-8.37,9.06-1.39,17.5,.3,25.85,3.51,7.47,2.88,14.57,6.75,22.51,8.34v22.6Z"/>
  <path class="cls-7" d="M.16,706.22c4.8,2.17,9.5,4.55,14.24,6.83,18.04,8.63,35.2,6.01,52.02-3.3,7.8-4.32,13.9-10.24,18.19-18.14,6.41-11.8,17.14-16.32,30.14-12.73,10.75,2.97,21.04,1.59,31.14-2.57,4.07-1.67,8.09-3.48,12.16-5.14,11.68-4.75,23.43-4.95,35.21-.37,3.74,1.45,7.57,2.75,11.16,4.52,12.32,6.09,25.01,6.68,38.23,3.54,14.9-3.54,27.91,5.91,30.09,21.46,1.8,12.9-9.21,26.07-22.9,26.81-9.36,.5-17.28-3.23-22.02-11.39-10.59-18.23-27.6-25.79-47.12-29.42-5.15-.96-10.39-.24-15.41,1.19-15.9,4.55-29.67,11.79-37.79,27.44-5.1,9.82-16.73,14.11-27.44,11.05-11.37-3.26-22.25-2.09-33.02,2.35-6.69,2.76-13.13,6.19-20.33,7.58-8.99,1.73-17.81,1.21-26.37-2.13-6.75-2.63-13.46-5.38-20.18-8.08,0-6.49,0-12.99,0-19.48Z"/>
  <path class="cls-7" d="M841.82,786.48c-4.7-.81-9.03-3.08-13.91-3.22-22.82-.64-41.33,7.11-53.27,27.42-6.04,10.27-17.06,15.3-28.5,11.99-11.27-3.26-21.99-1.97-32.64,2.38-8.23,3.36-16.15,7.59-25.31,8.37-7.95,.68-15.49-.47-22.84-3.35-3.37-1.32-6.81-2.53-10.05-4.13-12.45-6.13-25.28-6.67-38.62-3.5-14.14,3.36-28.05-6.34-29.65-20.23-1.71-14.77,8.95-27.69,23.56-27.99,8.7-.18,16.32,3.21,20.79,10.83,10.6,18.11,27.33,26.12,46.93,29.79,5.59,1.05,11.2,.43,16.55-1.18,13.07-3.92,25.43-9.15,33.53-21.04,1.97-2.89,3.45-6.13,5.63-8.84,6.55-8.14,15.24-11.41,25.27-8.61,12.13,3.38,23.53,2.02,34.84-2.89,8.29-3.6,16.43-7.63,25.81-7.91,7.65-.22,14.96,.83,21.9,4.15v17.92Z"/>
  <path class="cls-7" d="M841.82,237.12c-9.58-3.3-19.33-5.14-29.34-2.32-15.89,4.48-29.82,11.55-37.94,27.22-5.09,9.83-16.5,14.6-27.25,11.47-12.42-3.62-23.98-1.89-35.52,3.14-7.57,3.3-15.05,6.87-23.55,7.49-7.26,.53-14.23-.34-20.98-2.9-4.96-1.88-9.9-3.84-14.74-5.99-10.76-4.78-21.78-5.21-33.08-2.49-13.98,3.36-26.08-2.59-30.65-15.05-4.16-11.35,.83-24.19,11.62-29.91,10.66-5.65,23.93-2.81,30.9,7,4.52,6.35,8.39,13.33,15.09,17.62,26.83,17.2,48.1,19.02,75.6-1.33,4.1-3.03,6.88-7.35,9.35-11.83,6.63-12.02,17.38-16.63,30.43-12.97,10.74,3.01,21.03,1.52,31.13-2.61,4.43-1.81,8.79-3.8,13.25-5.53,10.42-4.06,20.97-4.17,31.59-.79,1.35,.43,2.73,.73,4.1,1.09v18.7Z"/>
  <path class="cls-7" d="M.16,498.17c5.75,.7,11.45,2.38,17.3,1.57,18.99-2.63,35.48-9.44,45.25-27.4,5.75-10.57,17.15-15.53,28.74-12.21,10.98,3.14,21.45,1.99,31.87-2.19,7.54-3.02,14.75-6.89,22.95-8.24,8.71-1.43,17.02-.28,25.15,2.81,4.11,1.56,8.22,3.17,12.2,5.03,11.79,5.49,23.87,5.98,36.39,2.88,13.71-3.4,26.37,4.45,29.73,18.06,3.19,12.92-4.64,25.9-17.74,29.41-9.78,2.62-20.97-1.18-26.1-10.11-10.25-17.86-26.69-25.71-45.72-29.63-5.07-1.04-10.39-.88-15.45,.47-16.19,4.32-30.6,11.08-38.95,27-5.45,10.39-16.84,15.06-28.15,11.88-11.52-3.24-22.5-1.97-33.36,2.56-7.14,2.98-14.06,6.55-21.87,7.79-7.59,1.21-14.96,.61-22.23-1.74v-17.92Z"/>
  <path class="cls-7" d="M.16,825.44c16.11-3.75,30.56-10.1,38.92-25.58,3.94-7.29,9.69-12.04,17.83-13.77,3.89-.83,7.79-.62,11.54,.56,11.08,3.49,21.7,1.92,32.22-2.33,7.53-3.05,14.77-6.87,22.98-8.16,8.6-1.35,16.78-.17,24.78,2.92,4.35,1.68,8.73,3.3,12.94,5.28,11.46,5.4,23.24,5.58,35.3,2.64,13.55-3.3,26.33,4.18,29.89,17.43,3.49,13.01-4.24,26.27-17.47,29.96-10.04,2.8-21.17-1.1-26.63-10.53-10.26-17.7-26.7-25.38-45.57-29.24-5.71-1.17-11.64-.67-17.34,1.03-15.71,4.67-29.4,11.77-37.42,27.34-5.01,9.73-16.53,14.06-27.04,11.16-11.76-3.24-23.02-2.19-34.16,2.56-6.76,2.89-13.32,6.41-20.76,7.43v-18.7Z"/>
  <path class="cls-7" d="M841.82,465.44c-11.24,4.03-21.87,8.98-28.95,19.25-1.25,1.81-2.32,3.74-3.41,5.65-5.9,10.44-16.96,15.54-28.37,12.24-11.42-3.3-22.21-2.02-32.98,2.38-7.99,3.27-15.69,7.31-24.54,8.26-7.81,.84-15.23-.26-22.49-2.97-3.88-1.45-7.78-2.89-11.51-4.69-12.37-5.97-25.08-6.49-38.25-3.19-12.08,3.02-24.59-4.13-28.45-15.89-3.89-11.85,1.39-24.52,12.46-29.86,11.37-5.49,24.36-1.87,31.35,8.96,4.11,6.38,8.36,12.77,14.89,16.73,26.81,16.26,45.69,17.88,72.83-.59,4.89-3.33,8.32-8.1,11.16-13.3,6.6-12.04,17.3-16.59,30.44-12.98,10.15,2.79,20.01,1.76,29.67-2.04,5.41-2.13,10.76-4.44,16.14-6.67v18.7Z"/>
  <path class="cls-7" d="M841.82,143.61c-7.13,4.39-12.44,10.39-16.49,17.73-6.02,10.92-17.09,15.45-29.07,12.05-10.27-2.91-20.26-2.05-30.08,1.78-4.22,1.65-8.4,3.4-12.55,5.22-12.67,5.54-25.38,5.48-38.14,.37-4.45-1.78-8.91-3.54-13.3-5.46-10.65-4.66-21.56-5.02-32.72-2.29-14.24,3.49-27.11-3.3-30.97-16.3-3.43-11.57,2.02-23.93,12.84-29.1,10.97-5.24,23.74-1.91,30.67,8.13,2.73,3.95,5.03,8.25,8.58,11.52,25.44,23.4,58.56,25.9,84.93,.62,2.83-2.72,4.71-6.15,6.62-9.56,5.96-10.63,17.02-15.31,28.78-12.02,9.15,2.56,18.16,2.3,27.16-.58,1.2-.39,2.35-1.2,3.73-.81v18.7Z"/>
  <path class="cls-7" d="M.16,587c5.1-3.95,9.07-8.8,12.19-14.46,6.24-11.34,17.2-15.97,29.62-12.48,10.7,3.01,20.97,1.73,31.13-2.35,7.66-3.07,14.98-7,23.33-8.31,8.59-1.35,16.74-.2,24.78,2.81,8.23,3.07,15.99,7.39,24.72,9.11,8.06,1.58,15.97,.67,23.87-1.18,14.07-3.28,27.33,5.15,29.91,18.88,2.25,11.97-3.85,23.23-14.98,27.63-11,4.36-22.89,.51-29.53-9.8-4.47-6.95-9.31-13.65-16.51-17.83-11.48-6.68-23.54-12.83-37.29-11.37-18.92,2.01-35.32,9.14-45.18,26.8-6.2,11.11-17.13,16.1-29.22,12.68-9.06-2.56-17.92-1.85-26.86,.12v-20.26Z"/>
  <path class="cls-7" d="M112.38,1052.2c3.4-1.54,6.82-3.02,10.19-4.62,9.17-4.34,16.32-10.79,21.15-19.84,5.97-11.18,17.08-16.12,29.15-12.67,11,3.14,21.45,1.87,31.85-2.29,7.66-3.06,14.97-6.98,23.32-8.29,8.6-1.35,16.75-.12,24.74,2.95,4.34,1.67,8.72,3.29,12.93,5.26,11.19,5.24,22.71,5.66,34.51,2.81,10.05-2.43,19.01-.44,25.66,7.63,7,8.5,7.71,18.05,2.62,27.93-.17,.33-.16,.75-.23,1.13h-42.08c-2.95-1.47-4.55-4.27-6.5-6.69-14.54-18.05-41.78-25.27-63.26-16.91-10.76,4.19-20.3,9.81-26.11,20.28-.91,1.64-2.68,2.11-3.88,3.32H112.38Z"/>
  <path class="cls-7" d="M.16,882.33c4.42-.11,8.73,.22,13.05,1.46,10.42,2.99,20.52,1.3,30.34-2.79,3.94-1.64,7.87-3.33,11.82-4.97,11.93-4.97,23.92-5.05,35.93-.34,4.22,1.65,8.48,3.24,12.57,5.16,11.69,5.51,23.7,5.78,36.05,2.77,13.65-3.33,26.29,4.42,29.75,18.09,3.2,12.63-4.57,25.68-17.43,29.29-10.38,2.91-21.04-1.27-27.2-10.93-3.94-6.17-8.08-12.23-14.3-16.23-11.68-7.51-24.19-13.92-38.4-12.74-19.55,1.63-36.29,9.16-46.45,27.38-5.6,10.05-14.43,14.05-25.74,12.94v-49.09Z"/>
  <path class="cls-7" d="M841.82,403.88c-5.25,.31-10.22-1.06-15.28-2.2-10.13-2.27-19.78-.05-29.18,3.87-7.74,3.23-15.24,7.01-23.83,7.93-7.68,.82-14.98-.27-22.11-2.91-4.12-1.53-8.23-3.15-12.21-5.01-12.03-5.64-24.4-6.2-37.16-3.1-12.66,3.07-24.68-3.48-28.93-15.54-4.1-11.63,1.09-24.4,12.19-29.95,11.29-5.65,24.89-1.98,31.63,9.01,12.19,19.91,30.92,29.29,53.09,28.83,19.44-.4,36.3-8.98,46.35-27.3,5.19-9.46,14.46-13.99,25.44-12.71v49.09Z"/>
  <path class="cls-7" d="M841.82,75.04c-9.35-.4-17.83,2.79-26.1,6.59-9.57,4.39-19.36,7.27-30.07,5.94-4.67-.58-9.1-1.87-13.44-3.62-4.32-1.74-8.69-3.38-12.94-5.27-10.63-4.73-21.53-5.08-32.68-2.37-14.57,3.55-27.61-3.48-31.25-16.85-3.16-11.6,2.6-23.85,13.52-28.78,11.18-5.05,23.95-1.37,30.67,9.17,4.73,7.43,10.01,14.36,17.75,18.71,8.92,5.01,18.26,9.11,28.59,10.51,5.24,.71,10.38,.44,15.41-.92,16.23-4.39,30.63-11.42,38.48-27.57,.43-.88,.85-1.93,2.04-2.18v36.62Z"/>
  <path class="cls-7" d="M.16,227.77c9.23-.7,17.58-4.29,25.8-8.09,13.92-6.43,27.74-6.46,41.73-.34,6.28,2.74,12.51,5.75,19.17,7.43,8.99,2.27,17.98,1.32,26.94-.73,14.17-3.24,27.99,6.23,29.71,20.19,1.82,14.72-8.85,27.8-23.38,28.19-8.91,.24-16.5-3.36-21.03-11.08-10.62-18.1-27.35-26.21-46.98-29.67-10.54-1.86-20.16,1.92-29.63,6.07-9.43,4.13-16.85,10.52-22.34,19.19v-31.17Z"/>
  <path class="cls-7" d="M688.3,1052.2c-6.12-5.29-10.21-11.58-10.23-20.02-.02-11.33,6.74-20.52,17.57-23.75,10.41-3.11,21.53,.89,27.4,10.26,4.89,7.81,10.47,14.98,18.72,19.31,9.97,5.23,20.25,10.71,31.82,10.13,20.7-1.04,38.19-8.54,49.06-27.58,4.2-7.35,10.35-12.17,19.18-12.77,0,13.9-.07,27.79,.07,41.69,.02,2.33-.47,2.8-2.8,2.79-50.27-.08-100.53-.06-150.8-.06Z"/>
  <path class="cls-7" d="M.16,977.39c5.65-1.25,10.79-4.07,16.64-4.89,8.62-1.21,16.76-.02,24.72,3.15,3.97,1.58,7.99,3.04,11.85,4.86,11.66,5.48,23.66,5.9,36.02,2.99,14.96-3.52,28.27,5.35,30.64,20.25,2.2,13.83-8.54,27.03-23.28,27.86-9.05,.51-16.76-3.28-21.34-11.15-10.24-17.63-26.56-25.5-45.47-29.33-8.06-1.63-15.97-.07-23.63,2.79-2.04,.76-3.86,2.13-6.15,2.18v-18.7Z"/>
  <path class="cls-7" d="M44.58,.23c14.69,7.71,29.74,12.11,46.57,7.37,12.17-3.43,24.45,3.54,28.82,15.3,4.24,11.42-.83,24.48-11.74,30.2-11.03,5.78-25.01,2.71-31.46-8.26-10.2-17.33-26.08-25.35-44.67-29.3-8.53-1.81-17.03-.42-25.14,2.88-2.28,.93-4.54,1.89-6.81,2.83,0-6.23,0-12.47,0-18.7C1.2,.76,3.31,1.08,4.83,.23H44.58Z"/>
  <path class="cls-7" d="M841.82,738.17c-4.03,.87-7.84,2.53-11.96,3.17-9.26,1.45-18.05-.02-26.61-3.6-4.18-1.75-8.45-3.29-12.59-5.13-10.51-4.66-21.31-5.01-32.33-2.38-12.58,3-23.32-1-29.02-10.86-6.58-11.38-3.17-26.06,7.64-32.93,11.45-7.28,26.05-4.37,33.66,6.84,2.55,3.76,4.69,7.91,8.1,10.91,18.08,15.87,38.07,24.34,62.33,15.37,.24-.09,.51-.06,.77-.09v18.7Z"/>
  <path class="cls-7" d="M462.29,.23c-3.94,8.87-9.43,16.07-19.6,18.27-4.13,.89-8.26,.8-12.29-.41-11.35-3.4-22.25-1.81-32.97,2.63-7.03,2.92-13.84,6.36-21.47,7.73-11.37,2.05-21.76-.88-32.01-5.39-9.25-4.07-18.56-7.98-29.06-7.28-4.03,.27-7.98,.88-11.88,1.79-14.71,3.43-26.11-2.93-30.87-17.34h63.12c6.02,1.28,11.74,3.51,17.5,5.61,10.39,3.78,20.89,3.7,31.19-.27,5.26-2.03,10.52-3.98,15.98-5.34h62.35Z"/>
  <path class="cls-7" d="M841.82,964.15c-13.24,2.78-25.37-.88-37.22-6.33-7.82-3.6-15.87-6.29-24.65-6.14-5.89,.1-11.51,1.69-17.26,2.63-13.28,2.18-26.24-8.04-27.6-21.74-1.35-13.61,9.43-26.34,22.81-26.85,9.95-.38,17.46,3.81,22.8,12.16,13.01,20.37,32.3,28.49,55.75,28.34,1.79-.01,3.58-.5,5.37-.77v18.7Z"/>
  <path class="cls-7" d="M.16,320.5c8.65-.1,16.44,3.09,24.17,6.43,9.19,3.98,18.4,7.64,28.75,6.86,4.28-.32,8.44-1.15,12.6-2.1,11.25-2.59,22.43,2.56,27.52,12.58,5.21,10.24,2.99,21.91-5.64,29.72-8.01,7.25-20.31,8.07-29.53,1.98-3.65-2.41-6.23-5.76-8.55-9.41-11.47-18.06-29.03-25.18-49.32-27.35v-18.7Z"/>
  <path class="cls-7" d="M.16,103.09c5.53,1.32,10.44,4.42,16.08,5.44,8.17,1.47,16.21,.89,24.23-1.06,13.97-3.39,26.56,4.17,30.07,18,3.24,12.79-4.55,25.72-17.71,29.36-9.01,2.49-19.32-.91-25.01-8.39-2.82-3.71-5.2-7.76-8.2-11.31-5.24-6.18-11.34-11.29-19.47-13.34v-18.7Z"/>
  <path class="cls-7" d="M841.82,632.97c-7.94-3.1-16.1-4.68-24.67-3.96-3.77,.32-7.42,1.11-11.07,1.93-12.2,2.76-24.19-3.67-28.46-15.32-4.26-11.6,.71-24.48,11.65-30.18,10.96-5.71,24.36-2.51,31.3,7.87,5.02,7.5,10.29,14.65,18.16,19.43,.98,.6,2.07,1.02,3.1,1.53v18.7Z"/>
  <path class="cls-7" d="M.16,646.22c9.56,3.56,19.26,3.33,29.02,1,14.95-3.58,27.41,3.33,31.21,17.3,3.09,11.34-2.65,23.48-13.44,28.44-10.79,4.96-23.69,1.45-30.21-8.42-3.87-5.86-7.78-11.64-13.36-16.06-1-.79-1.83-1.87-3.24-2.01v-20.26Z"/>
  <path class="cls-6" d="M636.08,.23c-4.44,3.48-7.72,7.83-10.39,12.81-2.47,4.6-5.96,8.53-10.3,11.49-17.88,12.19-36.47,17.23-57.7,8.01-12.36-5.37-22.54-12.46-29.34-24.14-1.92-3.3-4.73-5.77-7.62-8.17h32.73c3.99,1.08,5.42,4.74,7.61,7.62,7.97,10.44,21.07,12.41,31.72,4.78,2.71-1.94,4.64-4.5,6.18-7.39,.98-1.84,1.96-3.65,3.59-5.02h33.51Z"/>
  <path class="cls-7" d="M841.82,853.5c-8.6-2.63-17.11-1.52-25.64,.5-13.12,3.1-25.28-3.34-29.62-15.59-4-11.3,1.19-24.3,11.88-29.77,11.11-5.69,24.63-2.19,31.55,8.16,3.43,5.13,6.51,10.56,11.83,14.1v22.6Z"/>
  <path class="cls-7" d="M357.08,1052.2c4.84-8.75,16.08-13.41,26.47-10.45,11.62,3.31,22.7,2.16,33.71-2.49,6.65-2.81,13.09-6.2,20.33-7.49,8.74-1.55,17.28-1.11,25.59,2.1,4.83,1.87,9.65,3.75,14.37,5.86,11.09,4.95,22.47,5.68,34.13,2.61,9.45-2.48,17.67-.38,24.69,6.38,1.01,.97,2.13,1.92,2.3,3.47h-77.15c-9.87-2.01-19.74-1.85-29.61,0h-74.81Z"/>
  <path class="cls-7" d="M.16,1031.16c3.6-8.38,9.14-14.63,18.48-16.57,9.95-2.07,19.06,.5,24.3,8.94,8.66,13.95,20.31,23.18,35.78,28,.34,.11,.62,.44,.92,.67H3.27c-2.69-1.25-2.32-4.03-3.12-6.23v-14.81Z"/>
  <path class="cls-6" d="M186.41,1052.2c2.59-6.22,6.38-11.69,11.74-15.69,11.65-8.69,24.61-15.28,39.43-13.7,19.71,2.1,37.01,9.67,47.92,27.63,.32,.53,.45,1.17,.67,1.76h-30.39c-2.71-1.34-4.91-3.43-7.4-5.09-9.22-6.13-19.38-5.65-27.86,1.51-1.66,1.4-3.66,2.17-5.26,3.58h-28.83Z"/>
  <path class="cls-7" d="M.16,430.37c8.67-2.3,17.31-4.54,25.97,.22,11.82,6.5,16.26,21.25,9.88,33.17-6.33,11.81-20.79,16.33-32.73,10.22-1.03-.53-2.08-1.02-3.11-1.54v-42.08Z"/>
  <path class="cls-7" d="M841.82,315.82c-4.74,.77-9.42,1.11-14.13-.52-12.54-4.33-19.44-16.82-16.15-29.58,3.22-12.47,15.69-20.09,28.73-17.56,.5,.1,1.03,.08,1.55,.12v47.53Z"/>
  <path class="cls-7" d="M602.57,.23c-.61,8.7-9.78,17.53-19.53,18.73-10.52,1.29-18.72-2.51-24.6-11.33-1.65-2.47-3.31-4.94-4.96-7.4,16.37,0,32.73,0,49.1,0Z"/>
  <path class="cls-7" d="M.16,756.09c9.94,3.45,15.91,12.73,15.59,24.2-.27,9.3-7.1,18.51-15.59,21v-45.2Z"/>
  <path class="cls-6" d="M399.95,.23c-24.78,14.61-40.93,12.97-64.68,0h64.68Z"/>
  <path class="cls-8" d="M215.25,1052.2c4.28-8.67,16.41-13.47,26.71-10.44,5.88,1.73,10.85,4.8,13.82,10.44h-40.52Z"/>
  <path class="cls-8" d="M841.82,529.33c-11.64-10.84-11.64-27.81,0-37.4v37.4Z"/>
  <path class="cls-4" d="M431.9,1052.2c9.87-3.8,19.74-3.94,29.61,0h-29.61Z"/>
  <path class="cls-1" d="M.16,1045.97c1.04,2.08,2.08,4.16,3.12,6.23-2.67,.59-3.65-.44-3.15-3.12,.19-1,.03-2.07,.03-3.11Z"/>
  <path class="cls-2" d="M4.83,.23C3.59,1.65,1.79,1.95,.16,2.57-.22-2.08,3.36,1.19,4.83,.23Z"/>
  <path class="cls-3" d="M.16,55.56c.21,0,.42-.02,.64-.03,2.21,1.57,2.2,3.14,.03,4.73-.22-.02-.44-.03-.66-.02v-4.68Z"/>
  <path class="cls-7" d="M322.57,625.96c7.4,.33,14.39,4.76,19.29,12.75,4.76,7.76,10.7,14.46,18.94,18.56,11.53,5.73,23.35,11.4,36.7,9.11,17.8-3.05,33.57-9.86,42.77-26.88,3.3-6.11,8.25-10.21,15-12.1,1.24-.35,2.44-.88,3.61-1.42,5.66-2.58,11.48-3.16,17.42-1.26,10.37,3.32,20.47,2.16,30.39-1.74,4.7-1.84,9.33-3.86,14-5.78,11.71-4.8,23.46-4.79,35.21-.19,4.94,1.93,9.88,3.89,14.74,6.01,10.4,4.55,21.07,4.92,31.96,2.31,14.72-3.53,26.83,2.57,31.23,15.76,3.75,11.24-1.16,23.54-11.67,29.22-10.52,5.69-23.54,3.09-30.65-6.59-5-6.8-9.17-14.4-16.55-18.9-26.2-15.98-46.74-18.5-74.58,2.4-3.86,2.9-6.67,6.9-8.9,11.2-3.66,7.06-9.37,11.02-16.86,13.89-8.4,3.21-16.15,2.97-24.63,.95-8.74-2.08-17.53-.58-25.9,2.8-4.44,1.8-8.82,3.72-13.25,5.54-12.22,5.05-24.46,4.88-36.69,.05-4.33-1.71-8.7-3.36-12.94-5.29-11.11-5.06-22.47-5.38-34.17-2.48-15.19,3.77-28.86-5.26-30.9-20.18-2.04-14.9,9.27-27.8,26.4-27.77Z"/>
  <path class="cls-7" d="M680.88,791.93c-6.83-.33-13.99-4.07-18.56-11.77-11.22-18.92-28.99-27.95-49.66-28.81-19.9-.82-37.34,7.35-48.26,25.28-8.02,13.18-23.25,20.06-38.16,16.06-10.05-2.7-19.77-1.71-29.31,2.01-4.58,1.78-9.07,3.82-13.63,5.68-11.95,4.87-23.96,4.9-35.98,.23-3.38-1.31-6.83-2.49-10.07-4.1-12.68-6.27-25.73-6.93-39.35-3.64-9.52,2.3-17.87-.65-24.01-8.24-6.42-7.95-7.46-16.99-2.99-26.24,4.35-9,12.02-13.63,21.83-13.72,8.84-.09,15.97,3.96,20.79,11.58,3.91,6.18,8.04,12.32,14.32,16.22,15.63,9.72,31.99,17.03,50.98,10.87,11.43-3.71,22.37-8.49,29.82-18.66,1.53-2.08,2.86-4.32,4.14-6.57,1.23-2.16,2.43-4.42,4.41-5.88,9.54-7.04,19.75-11.97,32.06-8.61,10.56,2.89,20.77,1.86,30.79-2.23,3.96-1.61,7.9-3.26,11.82-4.95,12.42-5.35,24.91-5.31,37.43-.4,4.58,1.8,9.13,3.69,13.64,5.65,10.65,4.62,21.54,5.11,32.71,2.3,15.43-3.87,28.95,4.47,31.51,19.33,2.6,15.06-8.87,28.63-26.28,28.61Z"/>
  <path class="cls-7" d="M164.38,195c.23-10.66,7.12-20,17.18-23.09,10.46-3.22,21.98,.35,27.55,9.92,9.96,17.12,25.76,24.91,43.97,29.11,5.82,1.34,11.93,1.24,17.76-.35,12.9-3.52,25.08-8.44,33.7-19.45,1.06-1.35,1.67-2.76,2-4.51,2.68-14.4,15.9-23.37,30.05-19.54,12.89,3.49,24.81,1.74,36.62-3.69,9.35-4.3,18.86-7.98,29.48-7.3,9.41,.6,17.87,4.34,26.18,8.16,12.11,5.57,24.34,6.37,37.13,3.23,13.35-3.28,26.32,4.36,29.7,17.25,3.43,13.04-3.83,25.93-16.88,29.97-9.96,3.08-21.47-.61-26.84-9.85-10.24-17.63-26.45-25.62-45.35-29.61-5.11-1.08-10.39-.93-15.46,.37-13.1,3.37-25.4,8.29-34.28,19.25-1.16,1.43-1.92,2.89-2.28,4.79-2.86,14.97-16.47,23.55-31.17,19.52-10.83-2.96-21.27-2.09-31.55,2.12-4.19,1.72-8.35,3.52-12.54,5.24-11.96,4.9-23.96,4.91-35.98,.23-4.46-1.74-8.94-3.45-13.3-5.43-11.23-5.11-22.71-5.52-34.55-2.55-14.32,3.6-27.28-4.27-30.56-18.4-.41-1.75-.4-3.59-.58-5.39Z"/>
  <path class="cls-7" d="M236.83,313.93c.2-10.92,6.97-20.07,17.4-23.32,10.18-3.17,21.84,.39,27.23,9.69,9.6,16.58,24.73,24.48,42.34,28.98,6.51,1.66,13.1,1.64,19.63-.02,9.37-2.38,18.27-5.93,25.96-11.87,4.9-3.79,8.92-8.05,10.45-14.77,2.93-12.91,16.7-20.57,29.71-16.81,11.7,3.37,22.73,1.95,33.71-2.66,7.84-3.29,15.45-7.23,24.19-8.03,8.22-.75,16,.49,23.58,3.54,3.12,1.26,6.32,2.36,9.33,3.85,12.54,6.22,25.46,6.88,38.94,3.57,12.34-3.04,24.14,3.84,28.36,15.91,4.04,11.55-1.29,24.5-12.33,29.92-11.16,5.49-24.69,2.24-31.04-8.61-9.43-16.14-24.15-23.99-41.31-28.59-6.76-1.81-13.58-1.86-20.38-.15-8.86,2.22-17.29,5.55-24.68,10.95-5.54,4.05-10.05,8.64-11.78,16.09-2.93,12.67-16.82,20.06-29.63,16.4-11.38-3.26-22.23-2.1-33,2.33-6.8,2.8-13.36,6.26-20.71,7.65-8.75,1.66-17.31,1.03-25.64-2.03-4.98-1.83-9.91-3.81-14.75-5.98-10.98-4.92-22.21-5.37-33.79-2.57-14.96,3.62-27.6-3.8-31.08-18.1-.42-1.74-.49-3.58-.72-5.37Z"/>
  <path class="cls-7" d="M292.06,453.77c-6.62-.25-12.79-1.52-18.71-3.98-4.67-1.93-9.36-3.78-14.01-5.76-10.04-4.27-20.36-4.65-30.85-2.19-13.72,3.23-24.55-.94-30.31-11.83-5.92-11.19-2.14-25.09,8.74-32.09,10.31-6.64,24.72-4.24,32.08,5.73,4.93,6.68,9.06,14.11,16.25,18.65,26.74,16.89,50.05,18.3,76.61-3.71,3.11-2.58,5.34-5.99,7.28-9.55,6.25-11.47,15.9-17.01,28.38-13.4,16.27,4.7,30.84,1.67,45.42-5.36,13.6-6.55,27.44-6.77,41.3-.51,3.18,1.43,6.54,2.48,9.68,3.99,11.78,5.64,23.93,5.89,36.41,2.91,14.86-3.54,28.25,5.67,30.29,21.15,1.5,11.38-6.18,25.98-23.32,27.06-9.34,.59-16.81-3.76-21.82-11.79-4.09-6.57-8.69-12.82-15.29-16.89-26.74-16.48-49.47-17.67-75.89,4.4-3.41,2.85-5.66,6.71-7.8,10.6-5.64,10.3-15.79,15.13-27.14,12.43-9.66-2.29-19.22-4.28-29.1-1.46-6.5,1.86-12.6,4.7-18.79,7.34-6.29,2.68-12.81,4.05-19.4,4.25Z"/>
  <path class="cls-7" d="M771.91,1024.99c-6.29-.24-13.54-3.5-17.73-10.86-9.72-17.09-25.41-24.9-43.48-29.23-6.1-1.46-12.45-1.36-18.52,.32-16.03,4.43-30.19,11.36-38.37,27.22-5.21,10.1-16.9,14.71-27.98,11.46-11.28-3.31-21.95-1.98-32.61,2.34-7.89,3.19-15.48,7.16-24.16,8.27-7.96,1.02-15.5-.12-22.9-2.83-3.89-1.43-7.8-2.86-11.51-4.67-12.35-6.01-25.05-6.59-38.25-3.33-12.44,3.07-24.72-3.99-28.71-16.05-3.82-11.57,1.47-24.22,12.38-29.59,11.09-5.46,24.29-2.02,31.21,8.48,4.32,6.56,8.71,13.1,15.42,17.31,11.41,7.16,23.62,13.4,37.41,12.34,19.72-1.52,36.62-9.02,46.91-27.34,6.11-10.9,17.05-15.51,29.09-12.19,10.54,2.9,20.74,1.97,30.83-2,7.33-2.88,14.27-6.79,22.15-8.23,9.57-1.75,18.74-.65,27.8,2.92,8.64,3.4,16.88,7.9,26.33,9.14,6.97,.91,13.67-.01,20.4-1.6,14.92-3.52,28.25,5.03,30.71,19.62,2.56,15.16-8.77,28.49-26.43,28.52Z"/>
  <path class="cls-7" d="M454.54,98.4c4.68,.11,11.82,3.6,16.03,10.87,9.84,16.97,25.46,24.85,43.59,29.05,6,1.39,12.21,1.37,18.14-.24,16.03-4.34,30.29-11.18,38.55-26.98,5.35-10.23,16.36-14.99,27.42-11.87,12.84,3.62,24.8,1.75,36.62-3.65,8.38-3.82,16.84-7.38,26.35-7.33,6.32,.03,12.34,1.25,18.18,3.57,4.09,1.63,8.23,3.16,12.22,5.02,11.69,5.44,23.66,5.9,36.04,2.78,13.35-3.36,26.58,4.58,29.84,17.62,3.28,13.09-4.55,26.31-17.7,29.86-9.93,2.68-21.02-1.15-26.37-10.38-10.25-17.69-26.66-25.47-45.5-29.39-5.93-1.24-12.14-.68-18.1,1.14-15.4,4.71-28.87,11.71-36.76,27-5.18,10.04-16.73,14.32-27.7,11.26-11.09-3.09-21.72-2.12-32.3,2.15-7.41,3-14.52,6.81-22.59,8.12-8.96,1.46-17.54,.47-25.91-2.91-3.96-1.6-7.97-3.09-11.85-4.86-11.68-5.32-23.59-6.04-36.02-2.88-14.67,3.73-28.1-5.29-30.45-19.99-2.38-14.87,9.18-28.12,28.28-27.96Z"/>
  <path class="cls-7" d="M588.63,532.16c-19.49,3.16-37.47,8.82-47.81,27.98-5.71,10.59-16.87,15.28-28.41,12.14-11.5-3.12-22.52-1.98-33.41,2.64-6.65,2.82-13.13,6.16-20.36,7.49-9.17,1.68-18.06,.9-26.71-2.55-4.45-1.78-8.94-3.47-13.3-5.44-11.1-5.01-22.45-5.59-34.17-2.6-10.96,2.8-21.3-.91-27.14-9.47-5.7-8.35-5.73-19.61-.07-27.8,9.93-14.36,30.65-14.29,40.47,.35,4.89,7.29,9.93,14.49,17.67,18.84,9.72,5.46,19.84,10.78,31.28,10.76,21.24-.05,39.09-7.51,50.37-26.53,6.89-11.61,17.13-16.3,30.2-12.68,9.88,2.74,19.52,1.86,28.96-1.76,5.08-1.94,10.02-4.22,15.07-6.24,11.61-4.65,23.25-4.56,34.86,.03,4.21,1.66,8.49,3.21,12.58,5.14,11.56,5.46,23.45,5.8,35.67,2.91,14.82-3.51,28.13,5.14,30.65,19.83,2.39,13.9-8.03,27.18-22.81,28.26-9.03,.66-16.92-2.93-21.47-10.84-9.31-16.2-24.07-24.09-41.2-28.8-3.5-.96-7.1-1.48-10.93-1.65Z"/>
  <path class="cls-7" d="M311.03,125.87c-6.34,.01-12.35-1.4-18.17-3.75-4.2-1.7-8.48-3.23-12.59-5.12-11.34-5.22-22.95-5.62-34.93-2.62-14.32,3.6-27.04-4.26-30.43-18.58-3.03-12.81,5.44-25.7,19.02-28.94,9.69-2.31,20.12,2.3,25.96,11.57,3.69,5.87,7.66,11.62,13.52,15.4,26.62,17.14,47.6,18.61,74.42-.31,4.72-3.33,7.99-8.08,10.74-13.17,6.12-11.34,17.17-16.32,29.49-12.82,10.74,3.06,21.01,1.9,31.15-2.15,3.85-1.54,7.64-3.22,11.45-4.86,12.39-5.35,24.85-5.6,37.39-.55,4.08,1.64,8.23,3.15,12.22,5.01,11.57,5.39,23.43,5.79,35.67,2.81,11.9-2.9,22.84,2.11,28.15,12.63,5.81,11.51,1.63,25.64-9.51,32.16-11.11,6.5-25.72,3.78-32.24-7.31-10.42-17.73-26.64-25.79-45.68-29.78-4.83-1.01-9.84-.9-14.69,.29-16.74,4.1-31.43,11.01-40.05,27.3-5.5,10.39-16.8,14.81-28.26,11.68-10.95-2.99-21.48-2.07-31.92,2.15-7.77,3.14-15.22,7.28-23.72,8.35-2.31,.29-4.64,.42-6.96,.62Z"/>
  <path class="cls-7" d="M488.99,738.07c-.13,10.81-7.14,20.21-17.35,23.28-10.19,3.07-21.76-.65-27.17-10.01-9.66-16.71-24.96-24.61-42.72-29.03-6.36-1.58-12.88-1.52-19.25,.21-16.23,4.4-30.35,11.55-38.58,27.5-4.99,9.68-16.73,14.42-27.38,11.25-11.99-3.56-23.24-1.92-34.44,2.79-7.72,3.25-15.23,7.03-23.84,7.82-8.09,.75-15.74-.56-23.21-3.44-3.26-1.26-6.56-2.45-9.68-3.99-12.44-6.15-25.27-6.77-38.61-3.56-9.86,2.38-18.37-.57-24.63-8.48-6.02-7.6-7.16-16.23-3.12-25.21,4.19-9.31,11.79-14.1,21.74-14.45,8.73-.31,16.25,3.36,20.69,10.93,10.62,18.11,27.42,26,46.98,29.66,5.45,1.02,10.91,.37,16.17-1.15,15.73-4.55,29.45-11.68,37.5-27.2,5.12-9.87,16.63-14.37,27.33-11.31,11.94,3.41,23.25,2,34.45-2.83,8.17-3.53,16.17-7.55,25.39-7.94,7.52-.32,14.71,.73,21.66,3.58,4.19,1.72,8.44,3.32,12.56,5.19,11.09,5.04,22.44,5.49,34.15,2.57,16.74-4.17,31.54,7.17,31.34,23.83Z"/>
  <path class="cls-7" d="M707.91,223.24c-.05,10.76-6.77,20.02-16.84,23.21-10.32,3.27-21.27-.37-27.47-9.35-2.73-3.95-4.99-8.31-8.53-11.57-25.02-23.01-57.31-26.21-84.09-1.61-3.2,2.94-5.26,6.71-7.4,10.43-6.03,10.52-16.89,15.3-28.45,12.09-11.53-3.2-22.51-1.91-33.38,2.63-7.02,2.94-13.83,6.45-21.51,7.7-8.96,1.45-17.54,.42-25.91-2.94-4.2-1.69-8.47-3.23-12.58-5.12-11.33-5.21-22.91-5.66-34.91-2.68-16.66,4.14-31.27-7.38-31.05-24.23,.13-10.13,6.94-19.25,16.79-22.49,9.99-3.29,21.02,.02,27.02,8.49,4.66,6.57,8.7,13.75,15.69,18.12,16.13,10.09,33.08,17.06,52.51,10.34,10.35-3.59,20.26-8.08,27.38-17.01,2.04-2.55,3.66-5.34,5.28-8.15,6.08-10.51,16.87-15.31,28.49-11.99,11.29,3.22,21.98,1.91,32.62-2.44,7.41-3.02,14.53-6.78,22.62-8.04,8.73-1.37,17-.17,25.15,2.97,7.84,3.02,15.31,7.06,23.59,8.83,8.27,1.77,16.47,.92,24.65-1.05,15.95-3.84,30.41,7.6,30.34,23.87Z"/>
  <path class="cls-7" d="M333.42,307.35c-8.94-.58-15.99-4.08-20.76-11.54-2.24-3.5-4.36-7.16-7.32-10.04-25.1-24.31-60.43-27.25-86.7-.15-2.27,2.34-3.74,5.27-5.33,8.1-5.99,10.67-16.98,15.49-28.69,12.22-10.82-3.02-21.26-2.18-31.53,2.07-4.19,1.73-8.34,3.55-12.54,5.25-12.08,4.89-24.2,5.02-36.34,.22-3.37-1.33-6.83-2.49-10.07-4.1-12.68-6.3-25.75-6.84-39.35-3.54-11.91,2.89-23.79-3.92-27.98-15.45-4.11-11.32,.97-24.45,11.58-29.94,10.98-5.68,24.1-2.69,31.16,7.27,3.15,4.44,5.87,9.21,9.85,13,13.49,12.86,41.69,24.24,64.32,12.86,11.26-5.66,20.78-12.2,26.86-23.57,5.35-10,16.67-14.53,27.61-11.42,11.52,3.28,22.45,2.05,33.35-2.53,8.43-3.55,16.63-7.82,26.12-8.31,7-.36,13.69,.57,20.2,2.99,3.76,1.4,7.56,2.77,11.15,4.54,12.69,6.25,25.72,6.87,39.33,3.52,9.57-2.36,17.87,.87,23.9,8.47,6.32,7.96,7.36,17.02,2.81,26.28-4.42,9-12.09,13.11-21.63,13.81Z"/>
  <path class="cls-7" d="M285.44,922.67c-19.98,2.73-37.82,8.85-48.22,28.05-5.51,10.17-16.7,14.98-27.79,11.94-12.49-3.43-24.33-1.88-35.94,3.45-9.33,4.29-18.78,7.99-29.43,7.47-9.07-.43-17.22-3.74-25.16-7.43-12.77-5.93-25.57-7.19-39.32-3.81-13.61,3.34-26.61-5.16-29.43-18.15-2.97-13.65,5.32-26.44,19.17-29.55,9.28-2.09,19.88,1.82,24.93,10.52,9.93,17.12,25.72,24.97,43.97,29.14,5.83,1.33,11.94,1.25,17.76-.34,16.03-4.37,30.29-11.16,38.53-26.99,5.34-10.26,16.67-14.99,27.82-11.81,11.85,3.37,22.99,1.93,34.09-2.76,7.01-2.97,13.83-6.39,21.52-7.63,8.73-1.41,16.99-.18,25.14,2.94,7.73,2.96,15.09,6.96,23.22,8.75,8.51,1.87,16.97,1.03,25.41-1.05,13.76-3.39,27.06,5.38,29.65,19.26,2.15,11.54-3.93,22.88-14.57,27.16-11.13,4.48-23.62,1.11-29.66-9.22-10.23-17.49-26.38-25.26-45.11-29.33-2.13-.46-4.37-.44-6.57-.64Z"/>
  <path class="cls-7" d="M455.54,473.27c-5.75-.06-11.29,1.39-16.89,2.41-13.19,2.4-25.02-5.61-28.13-18.99-2.81-12.1,4.94-25.03,17.09-28.5,10.39-2.97,21.57,.64,27.11,10.17,9.8,16.86,25.35,24.57,43.25,28.9,5.96,1.44,12.15,1.36,18.13-.21,16.38-4.3,30.74-11.27,39.07-27.41,5.1-9.89,16.53-14.59,27.25-11.48,12.27,3.57,23.72,1.92,35.15-3.03,7.1-3.07,14.08-6.42,21.96-7.49,8.23-1.11,15.97,.18,23.62,2.99,8.24,3.02,15.98,7.4,24.73,9.07,8.06,1.54,15.97,.73,23.88-1.09,14.52-3.34,28.44,5.82,30.28,19.86,1.95,14.91-8.57,27.87-23.51,28.36-8.73,.29-16.36-3.16-20.75-10.81-10.31-17.99-26.88-25.84-46.06-29.78-4.6-.94-9.32-.77-13.91,.35-16.71,4.07-31.53,10.78-40.13,27.1-5.54,10.52-17.04,15.1-28.48,11.92-11.49-3.2-22.5-1.86-33.36,2.74-6.89,2.92-13.58,6.41-21.13,7.58-8.23,1.28-16.24,.72-24.1-2.11-8.27-2.98-16.05-7.25-24.67-9.29-3.41-.81-6.86-1.34-10.39-1.26Z"/>
  <path class="cls-7" d="M435.97,535.56c-7.07-.38-14.35-3.67-18.71-11.15-10.73-18.43-27.8-26.29-47.74-29.67-4.94-.84-9.88-.25-14.64,1.1-15.88,4.5-29.83,11.49-37.89,27.23-4.99,9.75-16.71,14.53-27.32,11.42-12.27-3.6-23.75-1.91-35.18,3.03-7.57,3.27-15.03,6.91-23.51,7.58-8.06,.63-15.75-.5-23.19-3.55-3.23-1.33-6.55-2.48-9.68-4.01-12.46-6.08-25.29-6.67-38.61-3.42-9.55,2.33-17.87-.56-24.07-8.06-6.52-7.87-7.67-16.95-3.25-26.22,4.28-8.98,11.92-13.71,21.74-13.92,8.7-.18,16.19,3.5,20.63,11.11,10.76,18.44,27.95,26.15,47.82,29.62,5.05,.88,10.15,.19,15.02-1.23,15.69-4.57,29.5-11.53,37.55-27.09,5.23-10.1,16.78-14.53,27.63-11.41,11.51,3.31,22.47,2.03,33.35-2.52,7.97-3.33,15.69-7.41,24.56-8.17,8.18-.7,16.01,.35,23.58,3.54,4.18,1.76,8.43,3.34,12.57,5.19,10.98,4.9,22.21,5.39,33.79,2.51,15.52-3.86,29.02,4.92,31.29,20.14,2.18,14.68-9.35,27.99-25.72,27.95Z"/>
  <path class="cls-7" d="M.82,60.26c0-1.58-.02-3.16-.03-4.73,1.24-10.72,8.45-19.2,18.43-21.68,10.25-2.55,20.94,1.42,26.57,10.86,10.93,18.34,28.18,25.94,48.07,29.28,4.64,.78,9.36,.08,13.88-1.18,16.05-4.47,30.04-11.56,38.3-27.34,5.32-10.17,16.61-14.41,27.66-11.25,11.25,3.22,22.02,2.09,32.64-2.36,3.82-1.6,7.63-3.25,11.45-4.84,12.2-5.07,24.45-5.06,36.71-.22,3.25,1.29,6.57,2.44,9.7,3.99,12.54,6.21,25.46,6.96,38.97,3.68,12.47-3.03,24.31,3.77,28.46,15.72,4.09,11.79-1.24,24.65-12.54,30.2-10.99,5.41-24.13,1.75-31.05-8.95-3.69-5.71-7.42-11.51-12.99-15.37-13.44-9.3-28-16.61-44.9-13.61-17.45,3.09-32.82,10.23-41.72,27.16-5.44,10.35-17.02,15.27-28.1,12.05-11.39-3.31-22.27-2.18-33,2.33-3.7,1.56-7.39,3.15-11.09,4.7-12.47,5.19-24.95,5.14-37.45,.1-3.48-1.41-7.01-2.72-10.39-4.32-12.14-5.75-24.57-6.16-37.55-3.2-15.09,3.44-27.86-5.78-30.02-21.01Z"/>
  <path class="cls-7" d="M780.4,341.38c.05,11.49-6.92,20.89-17.63,24.04-10.51,3.09-21.57-1.08-27.54-10.91-11.79-19.42-30.09-28.75-51.6-28.78-19.94-.03-37.18,8.61-47.54,27.28-5.87,10.58-17.1,15.32-28.77,12.06-10.52-2.94-20.76-2.15-30.81,1.87-4.32,1.73-8.59,3.6-12.9,5.38-12.33,5.09-24.7,5.05-37.07,.14-2.89-1.14-5.81-2.24-8.6-3.6-13.01-6.36-26.38-7.29-40.44-3.9-13.26,3.2-25.47-5.07-28.65-18.53-2.96-12.52,4.92-25.51,17.52-28.89,10.18-2.73,21.26,1.14,26.73,10.4,11.01,18.64,28.39,26.4,48.62,29.61,4.66,.74,9.37,.05,13.87-1.23,15.74-4.48,29.59-11.42,37.72-26.91,5.41-10.32,16.81-14.9,27.86-11.66,11.27,3.3,22,2.14,32.61-2.29,3.94-1.65,7.85-3.37,11.8-4.98,12.22-5,24.46-4.95,36.69,0,4.56,1.84,9.13,3.64,13.63,5.62,10.51,4.62,21.31,5.01,32.32,2.35,15.13-3.65,27.82,3.36,31.58,17.4,.52,1.93,.44,3.85,.6,5.55Z"/>
  <path class="cls-7" d="M411.74,610.85c-.08,10.94-6.83,20.09-17.22,23.36-10.18,3.2-21.69-.4-27.19-9.84-9.55-16.39-24.47-24.38-41.97-28.92-6.93-1.8-13.93-1.79-20.76,.15-15.74,4.47-29.62,11.39-37.68,26.97-5.3,10.24-16.85,14.75-27.91,11.54-11.54-3.35-22.5-1.94-33.37,2.61-8.09,3.38-15.94,7.46-24.97,8.15-8.21,.63-15.98-.7-23.55-3.79-6.59-2.69-13.11-5.64-19.9-7.7-9.29-2.82-18.71-1.59-28.04,.57-12.58,2.92-25.35-4.78-28.71-17.16-3.17-11.7,2.48-23.92,13.35-28.89,11.15-5.09,23.98-1.44,30.74,9.06,4.33,6.73,8.96,13.21,15.81,17.46,27.28,16.95,51.7,16.95,77.02-5.79,2.82-2.53,4.65-5.88,6.49-9.18,6.37-11.37,17.06-15.97,29.57-12.52,11.13,3.06,21.77,1.61,32.25-2.76,6.55-2.73,12.89-6.05,19.96-7.46,9.15-1.83,18.05-1.14,26.74,2.23,7.12,2.77,14.12,5.87,21.35,8.29,9.56,3.2,19.17,1.67,28.78-.42,15.33-3.34,29.35,8.28,29.23,24.01Z"/>
  <path class="cls-7" d="M593.33,965.03c-.03,12.16-7.06,21.6-17.52,24.67-10.47,3.08-21.54-.91-27.31-10.49-11.37-18.87-28.99-28.34-49.89-29.13-20.37-.77-38,7.6-48.91,26.15-6.94,11.8-17.22,16.55-30.45,12.91-10.88-3-21.24-1.41-31.49,2.75-8,3.25-15.7,7.31-24.54,8.27-8.35,.91-16.25-.44-23.96-3.46-4.1-1.61-8.19-3.23-12.2-5.04-11.09-5-22.45-5.53-34.18-2.7-14.6,3.52-27.6-3.84-30.94-17.32-2.89-11.67,2.77-23.53,13.56-28.4,10.89-4.91,24.01-1.76,30.14,8.64,9.63,16.36,24.52,24.35,41.97,28.91,5.96,1.56,12.1,1.95,18.1,.45,16.48-4.13,31.38-10.54,39.94-26.77,5.8-10.99,17.01-15.46,29.04-12.21,10.53,2.85,20.72,1.99,30.81-1.99,7.32-2.88,14.27-6.76,22.14-8.22,8.87-1.65,17.53-1.08,25.96,2.17,4.71,1.82,9.42,3.66,14.02,5.72,11.22,5.04,22.65,5.56,34.53,2.61,14.5-3.61,27.28,4.14,30.65,18.23,.42,1.75,.44,3.59,.51,4.25Z"/>
  <path class="cls-7" d="M106.6,836.86c.17-10.76,6.8-19.83,17.04-23.15,10.16-3.3,20.88,.23,27.2,8.96,2.58,3.57,5.01,7.26,7.75,10.7,9.89,12.4,39.8,25.15,59.14,17.84,14.28-5.4,27.29-12.02,34.28-26.69,1.33-2.79,3.61-5.01,6.17-6.91,6.35-4.71,13.39-6.36,20.93-4.2,11.77,3.38,22.97,2.14,34.09-2.6,6.52-2.78,12.88-6.06,19.97-7.35,8.74-1.59,17.28-1.09,25.61,2.06,3.51,1.33,7.06,2.62,10.42,4.27,13.14,6.48,26.62,7.42,40.8,3.84,11.48-2.9,23.04,3.94,27.34,15.27,4.32,11.38-.34,24.02-11.09,30.1-10.16,5.74-23.36,3.3-30.51-5.84-3.98-5.09-6.8-11.17-11.92-15.3-26.6-21.48-55.1-22.83-81.34-.15-3.36,2.9-5.61,6.75-7.76,10.63-6.16,11.11-17.07,15.81-29.28,12.38-10.85-3.05-21.28-1.85-31.54,2.31-4.44,1.8-8.81,3.77-13.26,5.53-11.48,4.54-23.01,4.46-34.5,.09-4.84-1.84-9.65-3.76-14.38-5.85-10.75-4.75-21.78-5.16-33.07-2.45-15.04,3.61-27.79-3.57-31.37-17.72-.47-1.86-.51-3.84-.74-5.76Z"/>
  <path class="cls-7" d="M620.68,896.49c-9.92-.18-17.1-4.13-21.76-11.92-10.94-18.3-28.08-26.5-48.2-28.73-15.33-1.7-28.5,5.03-40.52,14.03-1.21,.9-1.7,2.09-1.97,3.61-1.7,9.33-7.18,15.52-15.96,18.99-6.85,2.7-13.71,4.83-21.12,2.38-.61-.2-1.31-.3-1.81-.67-7.39-5.46-14.79-2.4-22.07,.12-6.6,2.28-12.77,5.69-19.5,7.66-9.93,2.91-19.73,2.42-29.38-1.11-3.89-1.42-7.81-2.84-11.51-4.67-12.57-6.21-25.51-6.8-38.98-3.56-9.9,2.38-18.37-.82-24.55-8.74-5.97-7.65-7.01-16.36-2.83-25.26,4.32-9.2,11.98-14.01,21.95-14.22,8.71-.18,16.13,3.63,20.57,11.21,10.54,18.01,27.31,25.71,46.72,29.43,4.82,.92,9.67,.47,14.3-.65,9.1-2.21,17.71-5.76,25.47-11.15,2.76-1.92,4.63-4.06,5.23-7.68,.76-4.51,3.25-8.37,6.61-11.65,9.23-9,24.64-11.3,35.92-5.12,2.66,1.46,5.3,.85,7.95,.45,7.92-1.18,15.03-4.73,22.26-7.89,13.33-5.83,26.58-5.82,39.95-.18,6.32,2.67,12.64,5.4,19.17,7.47,9.58,3.04,19.19,1.39,28.8-.66,9.87-2.11,18.03,1.46,23.95,9.32,5.96,7.91,6.58,16.81,2.18,25.69-4.36,8.8-11.86,13.02-20.84,13.51Z"/>
</svg>