<?xml version="1.0" encoding="UTF-8"?>
<svg id="Layer_1" data-name="Layer 1" xmlns="http://www.w3.org/2000/svg" viewBox="66.1 226.3 715.6 142.5" width="716" height="143" preserveAspectRatio="xMidYMid meet" role="img" aria-label="Global PCB">
  <defs>
    <style>
      .cls-1 {
        fill: #00d67e;
      }
    </style>
  </defs>
  <g>
    <path class="cls-1" d="M306.58,288.34c-9.19-.05-24.15-.05-43.27.18-3.32.04-5.98,2.76-5.94,6.08.04,3.29,2.72,5.94,6.01,5.94.02,0,.05,0,.07,0,19.03-.23,33.92-.22,43.06-.18,1.82,0,2.93,1.01,3.44,1.6.51.61,1.33,1.9,1.03,3.74-2.18,13.42-8.99,22.55-35.1,23.45-7.94.27-22.64-.57-31.7-9.33-5.13-4.96-7.73-11.99-7.73-20.89,0-26.36,13.66-31.99,37.26-32.8,8.06-.27,19.96.17,27,2.36,3.17.98,6.54-.79,7.52-3.96.98-3.17-.79-6.53-3.96-7.52-10.93-3.39-27.72-3-30.97-2.89-14.62.5-48.86,1.69-48.86,44.81,0,12.29,3.84,22.22,11.4,29.53,11.18,10.8,27.43,12.74,37.68,12.74.99,0,1.92-.02,2.78-.05,19.24-.66,41.92-5.08,46.55-33.53.78-4.82-.57-9.72-3.72-13.44-3.13-3.7-7.7-5.83-12.55-5.86Z"/>
    <path class="cls-1" d="M603.4,308.88c-.5-8.09-5.74-14.8-12.9-17.51.04-.48.06-.96.04-1.45l-.25-12.11c-.22-10.86-8.91-19.44-19.77-19.53l-36.47-.31c-15.89,0-28.82,12.93-28.82,28.8l-.08,33.07c-.01,5.71,2.2,11.07,6.23,15.11,4.03,4.04,9.39,6.27,15.1,6.27h59.4c5.1,0,10.02-2.14,13.49-5.87,3.48-3.73,5.27-8.78,4.91-13.87l-.88-12.61ZM590.57,327.15c-1.23,1.32-2.9,2.05-4.71,2.05h-59.4c-2.49,0-4.83-.97-6.59-2.73-1.76-1.76-2.72-4.1-2.72-6.6l.08-33.08c0-9.26,7.54-16.8,16.75-16.8l36.42.31c4.32.04,7.77,3.45,7.86,7.76l.25,12.05-7.68.06h-.09s-.05,0-.08,0l-28.26.22c-3.32.03-5.99,2.74-5.96,6.05.03,3.3,2.71,5.96,6.01,5.96h.05l28.4-.22,7.75-.04c.27,0,.54-.01.81-.03l3.85-.03s.06,0,.09,0c4.23,0,7.74,3.29,8.01,7.57l.88,12.65c.13,1.8-.48,3.52-1.71,4.84Z"/>
    <path class="cls-1" d="M440.36,254.13c-14.62.5-48.86,1.69-48.86,44.81,0,12.29,3.84,22.22,11.4,29.53,11.18,10.8,27.43,12.74,37.68,12.74.99,0,1.92-.02,2.78-.05,10.38-.36,22.24-1.56,31.5-7.77,10.34-6.94,15.58-18.95,15.58-35.71,0-13.64-3.93-24.34-11.67-31.82-8.66-8.36-21.57-12.31-38.41-11.73ZM442.95,329.16c-7.94.27-22.64-.57-31.7-9.33-5.13-4.96-7.73-11.99-7.73-20.89,0-26.36,13.66-31.99,37.26-32.8.93-.03,1.83-.05,2.71-.05,14.98,0,22.89,4.51,26.94,8.41,5.31,5.13,8,12.93,8,23.18,0,25.43-12.47,30.68-35.47,31.47Z"/>
    <path class="cls-1" d="M763.67,329.2h-12.32c-2.93,0-5.69-1.14-7.77-3.2-2.07-2.05-3.25-4.9-3.25-7.82v-54.2c0-3.32-2.69-6.01-6.01-6.01s-6.01,2.69-6.01,6.01v54.2c0,6.09,2.48,12.05,6.8,16.34,4.34,4.32,10.11,6.69,16.23,6.69h12.32c3.32,0,6.01-2.69,6.01-6.01s-2.69-6.01-6.01-6.01Z"/>
    <path class="cls-1" d="M374.87,329.2h-12.32c-2.93,0-5.69-1.14-7.77-3.2-2.07-2.05-3.25-4.9-3.25-7.82v-54.2c0-3.32-2.69-6.01-6.01-6.01s-6.01,2.69-6.01,6.01v54.2c0,6.09,2.48,12.05,6.8,16.34,4.34,4.32,10.11,6.69,16.23,6.69h12.32c3.32,0,6.01-2.69,6.01-6.01s-2.69-6.01-6.01-6.01Z"/>
    <path class="cls-1" d="M705.83,281.66c-1.32-14.01-12.9-24.54-26.96-24.54h-.12l-27.17.12c-13.98.06-25.53,10.6-26.85,24.52l-5.02,52.89c-.31,3.3,2.11,6.24,5.41,6.55.19.02.38.03.58.03,3.06,0,5.68-2.33,5.97-5.44l5.02-52.89c.74-7.74,7.16-13.61,14.94-13.64l27.17-.12h.07c7.82,0,14.27,5.86,15,13.66l5,52.99c.31,3.3,3.24,5.72,6.55,5.42,3.3-.31,5.73-3.24,5.42-6.55l-5-52.99Z"/>
  </g>
  <g>
    <path class="cls-1" d="M194.28,304.28c-.55,16.16-1.97,34.12-14.38,45.81-12.79,12.19-31.67,12.74-48.46,12.78-21.97-.16-44.32-3.51-53.87-26.11-3.06-7.2-4.18-15.06-4.77-22.86-.54-7.22-.7-14.48-.52-21.71.49-19.59,2.54-41.07,21.03-52.06,13.24-7.79,29.34-7.77,44.29-7.71,23.78.37,45.26,5.52,53.13,30.73l.02.06c2,6.53,2.75,13.4,3.2,20.23.45,6.94.56,13.9.34,20.84Z"/>
    <g>
      <path d="M110.49,322.7c-2.26-1.43-3.79-3.78-4.56-6.36l-.56-1.87c-.9-3.03-.56-6.29.93-9.05l1.36-2.51c1.33-2.47,3.56-4.27,6.12-5.41.21-.09.42-.19.61-.32,2.05-1.18,3.29-3.51,3.09-5.87-.38-4.62-5.27-7.27-9.35-5.07-2.09,1.13-3.35,3.43-3.24,5.8.01.24.04.47.08.69.44,2.78.15,5.62-1.18,8.09l-2.22,4.1c-1.51,2.77-1.84,6.03-.94,9.05l.98,3.33c.81,2.7.84,5.63-.3,8.2-.73,1.68-.74,3.69.24,5.53,1.15,2.15,3.54,3.47,5.98,3.27,4.15-.34,6.7-4.33,5.59-8.08-.45-1.52-1.41-2.73-2.65-3.52Z"/>
      <path d="M150.04,329.19c-1.82-.81-3.72-.71-5.3.04-2.49,1.19-5.26,1.69-7.97,1.1l-2.14-.47c-3.01-.66-5.63-2.5-7.29-5.09l-1.64-2.58c-1.48-2.32-2-5.06-1.73-7.79.03-.26.04-.53.03-.8-.04-2.37-1.48-4.58-3.64-5.55-4.22-1.91-8.92,1.09-8.96,5.72-.03,2.37,1.38,4.6,3.5,5.64.24.12.49.22.74.31,2.59.9,4.87,2.53,6.35,4.85l2.63,4.11c1.65,2.6,4.27,4.43,7.29,5.09l3.8.84c2.62.57,5.07,1.94,6.67,4.09.88,1.18,2.16,2.05,3.7,2.4,3.83.84,7.61-1.99,7.66-6.15.03-2.45-1.45-4.74-3.69-5.73Z"/>
      <path d="M176.06,297.48c-2.13-1.2-4.86-1.02-6.81.46-1.66,1.26-2.48,3.08-2.52,4.9-.06,2.8-1.3,5.43-3.16,7.53l-1.06,1.2c-2.13,2.41-5.13,3.88-8.35,4.09l-2.66.16c-2.84.17-5.57-.77-7.94-2.34-.32-.2-.66-.39-1.03-.55-2.04-.87-4.48-.6-6.25.76-3.61,2.77-3.27,8.21.65,10.51,1.92,1.12,4.38,1.1,6.3-.03.34-.21.66-.43.94-.68,2.16-1.84,4.75-3.11,7.58-3.29l4.49-.28c3.21-.19,6.22-1.66,8.34-4.08l2.41-2.72c1.8-2.04,4.23-3.52,6.93-3.9,1.41-.21,2.78-.9,3.8-2.05,2.59-2.95,1.94-7.63-1.68-9.69Z"/>
      <path d="M154.4,270.62c2.35,1.32,4,3.58,4.9,6.11l.65,1.83c1.06,2.99.89,6.26-.46,9.11l-1.22,2.55c-1.21,2.55-3.33,4.45-5.83,5.75-.21.1-.41.22-.61.34-1.98,1.29-3.09,3.69-2.77,6.03.62,4.59,5.64,6.98,9.6,4.57,2.02-1.24,3.18-3.61,2.93-5.96-.02-.24-.07-.47-.11-.69-.59-2.74-.44-5.6.76-8.14l2-4.2c1.35-2.85,1.52-6.13.47-9.11l-1.16-3.26c-.94-2.64-1.12-5.58-.13-8.2.64-1.71.54-3.72-.53-5.51-1.26-2.1-3.73-3.29-6.14-2.95-4.13.56-6.47,4.67-5.16,8.36.52,1.49,1.55,2.65,2.83,3.37Z"/>
      <path d="M114.57,266.22c1.85.72,3.75.51,5.29-.32,2.43-1.32,5.17-1.96,7.89-1.5l2.16.35c3.04.51,5.76,2.2,7.56,4.71l1.77,2.49c1.6,2.23,2.27,4.96,2.13,7.7-.01.25-.01.53.01.79.16,2.36,1.72,4.49,3.92,5.35,4.32,1.69,8.84-1.55,8.65-6.18-.1-2.37-1.61-4.52-3.79-5.45-.25-.1-.51-.19-.75-.26-2.64-.76-5-2.27-6.6-4.5l-2.84-3.98c-1.79-2.51-4.51-4.2-7.55-4.7l-3.84-.64c-2.64-.45-5.17-1.68-6.88-3.74-.93-1.13-2.26-1.93-3.81-2.2-3.88-.64-7.5,2.39-7.33,6.54.1,2.45,1.71,4.67,3.99,5.54Z"/>
      <path d="M104.54,281.38c2.24-2.29,5.32-3.61,8.52-3.63l2.69-.03c2.84-.02,5.51,1.06,7.79,2.74.31.22.63.43,1,.61,2,.99,4.44.84,6.28-.42,3.74-2.58,3.7-8.02-.1-10.52-1.87-1.23-4.31-1.34-6.29-.31-.36.19-.69.39-.99.63-2.25,1.73-4.9,2.87-7.73,2.89l-4.51.05c-3.22.03-6.28,1.33-8.52,3.62l-2.41,2.46c-1.96,2-4.49,3.43-7.28,3.69-1.81.16-3.57,1.11-4.71,2.87-1.33,2.05-1.32,4.79.03,6.83,2.31,3.46,7.03,3.77,9.78.97,1.09-1.11,1.67-2.51,1.77-3.95.19-2.71,1.49-5.23,3.39-7.18l1.29-1.3Z"/>
    </g>
  </g>
</svg>
