<?xml version="1.0" encoding="UTF-8"?>
<svg id="Layer_1" data-name="Layer 1" xmlns="http://www.w3.org/2000/svg" viewBox="0 0 841.89 1052.36">
  <defs>
    <style>
      .cls-1 {
        fill: #182b26;
      }

      .cls-2 {
        fill: #4ebb78;
      }
    </style>
  </defs>
  <path class="cls-1" d="M.07,526.18C.07,351.98,.08,177.78,0,3.58,0,.66,.66,0,3.58,0c278.24,.08,556.49,.08,834.73,0,2.92,0,3.58,.66,3.58,3.58-.08,348.4-.08,696.8,0,1045.2,0,2.92-.66,3.58-3.58,3.58-278.24-.08-556.49-.08-834.73,0-2.92,0-3.58-.66-3.58-3.58,.08-174.2,.07-348.4,.07-522.6Z"/>
  <path class="cls-2" d="M476.05,499.42c10.54,.27,19.69,7.08,22.72,17.07,3.16,10.41-.16,21.6-9.7,27.27-17.38,10.34-27.98,43.33-18.98,63.56,6.6,14.83,15.16,27.44,30.47,34.84,11.36,5.49,15.55,19.24,10.64,30.73-4.72,11.05-17.1,16.93-28.61,13.58-11.77-3.42-18.82-15.44-16.81-27.97,1.71-10.71,.8-21.19-4.27-31.03-2.49-4.83-4.93-9.69-7.41-14.53-6.17-12.01-7.07-24.42-3.06-37.29,2.96-9.49,6.53-18.84,5.87-29.12-.33-5.13-1.67-9.91-3.31-14.69-4.83-14.02,2.77-28.15,17.08-31.75,1.74-.44,3.58-.46,5.37-.67Z"/>
  <path class="cls-2" d="M499.74,123.78c-.07,4.45-3.13,11.63-10.18,15.67-18.67,10.67-29.99,47.01-16.86,69.75,7.12,12.34,15.16,22.53,28.04,29.02,11.02,5.55,15.28,19.13,10.51,30.5-4.71,11.23-17.04,17.18-28.44,13.73-12.22-3.7-19.1-15.16-17.04-27.75,1.8-10.99,.76-21.7-4.5-31.75-2.52-4.82-5.05-9.64-7.48-14.51-5.82-11.67-6.66-23.77-2.96-36.23,1.69-5.7,3.77-11.31,5.04-17.1,2.04-9.31,1-18.41-2.25-27.47-5.39-15.05,4.19-30.07,19.94-31.94,13.98-1.66,26.2,9.68,26.17,28.09Z"/>
  <path class="cls-2" d="M513.07,865.13c-.16,16.15-11.92,27.4-25.07,26.22-14.88-1.34-24.59-13.96-22.23-28.46,1.83-11.25,.6-22.11-4.7-32.48-4.22-8.27-9.41-16.14-11.34-25.46-1.77-8.57-1.29-16.95,1.31-25.31,2.87-9.24,6.36-18.34,5.89-28.34-.25-5.4-1.6-10.43-3.31-15.48-5.1-15.04,4.05-30.15,19.35-32.1,10.77-1.37,21.09,4.76,25.11,14.92,4.1,10.37,1.03,22.26-8.01,28.47-17.49,12-24.41,29.54-22.86,49.39,1.65,21.13,11.91,38.36,31.68,48.51,9.12,4.68,13.93,12.05,14.18,20.11Z"/>
  <path class="cls-2" d="M213.49,866.54c.21-4.55,1.06-9.28,1.02-14.1-.06-7.68-1.78-14.86-5.32-21.65-2.33-4.48-4.55-9.02-6.88-13.49-6.38-12.23-7.44-24.86-3.18-37.99,1.91-5.9,3.99-11.75,5.14-17.88,1.64-8.78,.44-17.18-2.57-25.56-4.81-13.43,2.24-27.37,15.49-31.38,10.9-3.3,22.72,1.79,27.95,12.04,5.31,10.42,2.99,23.93-6.43,30.05-16.16,10.51-21.67,26.39-24.07,44.11-.68,5.05,.1,10.18,1.72,14.97,5.79,17.16,14.47,31.97,31.86,40.19,10.33,4.89,14.95,16.47,12.15,27.63-2.64,10.48-12.39,18.05-23.12,17.95-11.03-.1-20.21-7.47-23.14-18.47-.55-2.05-.44-4.11-.61-6.42Z"/>
  <path class="cls-2" d="M645.28,258.56c.02,14.02-11.47,25.52-24.44,24.92-14.41-.67-25.15-12.76-23.07-26.95,2.09-14.22-.28-27.2-7.5-39.6-3.95-6.79-7.62-13.82-8.91-21.81-1.24-7.7-.72-15.17,1.46-22.65,2.09-7.18,4.86-14.17,5.81-21.7,1.01-7.95-.28-15.4-3.01-22.84-5.06-13.8,3.57-29.45,17.41-31.95,11.61-2.1,22.4,3.66,26.89,14.35,4.5,10.71,1.27,22.64-8.42,29.28-7.62,5.22-13.14,11.9-16.98,20.27-12.69,27.64-2.89,52.5,15.97,70.45,3.3,3.14,7.43,5.17,11.44,7.31,8.53,4.56,12.69,11.88,13.35,20.93Z"/>
  <path class="cls-2" d="M746.84,487.43c-14.2-.09-25.75-12.44-23.65-26.42,2.18-14.49-.16-27.74-7.55-40.35-3.73-6.35-7.18-12.94-8.61-20.3-1.72-8.84-.93-17.49,1.87-26.05,2.12-6.5,4.4-12.95,5.24-19.84,.94-7.66-.23-14.91-2.85-22.1-4.72-12.98,1.43-26.82,13.76-31.39,11.14-4.12,23.65,.59,29.33,11.05,5.84,10.75,2.89,24.05-6.93,31.3-23.04,17.02-29.34,44.74-16.74,70.45,6.14,12.53,14.77,21.92,27.23,28.2,8.9,4.49,13.89,14.58,12.59,23.55-1.64,11.23-8.36,18.94-18.67,21.29-1.63,.37-3.33,.4-5,.59Z"/>
  <path class="cls-2" d="M124.21,522.65c-.07,9.67-3.35,16.95-10.69,21.13-17.85,10.18-29.25,45.92-17.01,68.17,7.05,12.81,15.16,23.47,28.45,30.2,11.35,5.74,15.59,19.23,10.66,30.72-4.78,11.13-16.98,16.95-28.56,13.61-11.71-3.37-18.8-15.05-16.84-27.55,1.84-11.72,.49-22.97-5.29-33.52-2.24-4.09-4.26-8.29-6.4-12.43-6.12-11.87-7.09-24.19-3.17-36.91,3.2-10.38,6.94-20.61,5.84-31.84-.54-5.52-3.03-10.41-4.08-15.73-1.96-9.84,1.14-18.01,8.93-24.09,7.64-5.96,16.26-6.55,24.87-2.3,8.82,4.36,12.97,11.91,13.29,20.55Z"/>
  <path class="cls-2" d="M272.37,781.62c14.93,.15,25.94,13.3,23.68,28.47-1.72,11.51-.11,22.38,5.49,32.71,3.94,7.27,8.5,14.3,10.84,22.33,2.68,9.18,2.43,18.37-.22,27.59-1.93,6.7-4.22,13.28-5.16,20.28-1.09,8.09,.14,15.68,3.07,23.2,5.61,14.42-2.57,29.83-17.25,32.85-10.61,2.18-21.3-3.17-26.12-13.08-4.8-9.88-2.85-22.9,5.96-28.9,14.3-9.73,20.25-23.74,23.12-39.76,1.06-5.92,1.03-11.98-.77-17.74-5.62-17.98-14.49-33.4-32.63-41.83-9.85-4.58-14.94-14.69-13.63-24.91,1.3-10.15,8.43-18.05,18.63-20.53,1.62-.39,3.32-.47,4.98-.69Z"/>
  <path class="cls-2" d="M137.45,460.47c.04,17.33-11.51,27.82-26.42,26.75-13.19-.95-23-14.29-20.82-28.14,1.85-11.71,.61-22.97-5.21-33.53-2-3.63-3.68-7.43-5.68-11.05-7.2-13.02-8.02-26.55-3.37-40.53,3.16-9.48,6.2-18.94,5.26-29.21-.43-4.72-1.92-9.09-3.38-13.51-5.11-15.44,6.14-31.65,22.08-31.87,10.23-.14,19.71,6.64,23.12,16.53,3.29,9.53,.2,21.26-8.06,26.87-18.11,12.29-23.71,30.15-23.71,50.75,0,2.74,.6,5.41,1.46,7.99,5.79,17.18,14.4,31.99,31.75,40.26,8.64,4.12,12.86,11.73,12.98,18.68Z"/>
  <path class="cls-2" d="M205.06,348.85c.11-5.93-1.47-11.49-3.4-17.04-4.8-13.81,3.08-28.62,16.7-31.68,11.34-2.55,22.54,2.99,27.28,13.51,4.92,10.89,1.72,23.26-8.17,29.99-7.05,4.8-12.21,10.95-16.18,18.48-16.84,31.96,2.15,68.25,26.29,79.39,9.77,4.51,14.77,14.69,13.49,24.61-1.31,10.13-8.14,17.9-18.11,20.59-14,3.78-28.68-7.07-29.42-21.6-.25-4.84,.85-9.54,.98-14.35,.23-8.91-1.64-17.22-5.84-25.05-2.2-4.11-4.26-8.29-6.41-12.42-6.35-12.24-7.36-24.87-3.12-38.02,2.78-8.6,6.02-17.13,5.9-26.4Z"/>
  <path class="cls-2" d="M338.79,462.54c.65-6.73,1.59-13.39,.73-20.19-1.18-9.4-5.78-17.39-10.11-25.46-4.81-8.96-8-18.24-7.46-28.56,.35-6.68,2.35-12.97,4.53-19.2,4.47-12.76,5.22-25.3,.26-38.3-4.42-11.58,1.83-24.42,13.14-29.37,10.99-4.81,23.96-.5,29.97,9.96,6.31,10.99,3.72,24.77-6.63,31.85-17.3,11.83-24.12,29.35-22.83,48.73,1.38,20.73,11.4,38.12,30.73,48.37,7.53,3.99,13.05,9.32,14.78,17.88,2.02,10-1.17,18.29-9.17,24.38-7.69,5.86-16.33,6.44-24.9,2.1-8.93-4.53-12.94-12.31-13.06-22.18Z"/>
  <path class="cls-2" d="M621.2,487.29c-14.2-.04-25.55-12.39-23.47-26.45,2.1-14.19-.06-27.23-7.3-39.63-3.77-6.47-7.35-13.15-8.85-20.64-1.76-8.83-1.01-17.49,1.78-26.06,2.11-6.5,4.4-12.95,5.28-19.83,1-7.8-.23-15.15-2.89-22.47-4.69-12.89,1.63-26.82,13.98-31.28,11.21-4.05,23.57,.7,29.25,11.25,5.78,10.74,2.83,24.31-7.17,31.21-17.74,12.25-24.6,30.27-22.62,50.3,1.98,19.99,11.83,36.93,30.72,46.77,6.88,3.59,12.04,8.38,14.26,16.03,4.51,15.5-6.9,30.84-22.97,30.8Z"/>
  <path class="cls-2" d="M213.48,260.12c.12-6.16,1.11-10.87,1.05-15.7-.09-7.54-1.76-14.61-5.18-21.29-2.42-4.73-4.81-9.47-7.24-14.19-6.17-12.01-7.16-24.42-3.09-37.29,1.83-5.79,3.75-11.58,5.09-17.49,2-8.82,.79-17.44-2.3-25.94-5.54-15.25,3.84-30.61,19.61-32.5,10.4-1.25,20.32,4.68,24.54,14.67,4.17,9.87,1.7,22.38-6.99,28-15.62,10.1-21.41,25.32-24.16,42.45-.79,4.93-.34,9.9,1.05,14.64,5.33,18.11,14.11,33.49,32.07,42.25,12.45,6.07,16.75,20.81,10.43,32.88-6.13,11.7-20.11,16.21-31.98,10.04-8.74-4.55-12.75-12.14-12.91-20.53Z"/>
  <path class="cls-2" d="M124.18,727.75c.02,8.09-2.97,15.07-9.7,19.36-13.49,8.6-19.17,21.72-22.37,36.37-2.43,11.14-.38,21.68,4.4,32.1,6.26,13.63,15.31,23.98,28.9,30.77,10.99,5.49,15.01,19.2,10.13,30.64-4.67,10.95-16.92,16.76-28.27,13.42-12.05-3.55-19.05-14.86-17.06-27.33,1.84-11.58,.47-22.62-5.01-33.21-4.27-8.25-9.42-16.16-11.17-25.54-1.55-8.32-1.16-16.47,1.41-24.57,3.16-9.98,6.84-19.87,5.78-30.7-.45-4.57-1.7-8.86-3.19-13.15-5.31-15.31,4.09-30.33,20.09-32.28,13.68-1.67,26.06,9.81,26.04,24.14Z"/>
  <path class="cls-2" d="M733.22,499.42c10.67,.18,19.54,6.63,22.91,16.81,3.28,9.89-.2,20.85-8.58,27.02-23.2,17.11-29.45,44.81-16.74,70.75,6.15,12.56,14.86,21.85,27.31,28.12,9.85,4.96,14.5,16.43,11.82,27.12-2.62,10.44-12.38,18.2-22.97,18.25-10.83,.05-20.14-7.17-23.21-17.87-1.29-4.5-.85-9-.2-13.49,1.43-9.92-.01-19.37-4.42-28.35-2.68-5.46-5.59-10.82-8.25-16.29-5.4-11.09-6.2-22.59-2.79-34.4,1.68-5.84,3.65-11.6,5.11-17.49,2.27-9.18,1.47-18.18-1.86-27.09-5.29-14.17,2.13-28.53,16.51-32.33,1.73-.46,3.57-.52,5.36-.77Z"/>
  <path class="cls-2" d="M607.48,499.59c11-.03,19.85,6.46,23.23,16.9,3.22,9.95-.35,20.8-8.85,26.89-22.5,16.11-29.19,44.99-16.95,69.84,6.34,12.87,15.13,22.54,27.98,29.04,10.9,5.51,15.09,18.88,10.44,30.16-4.64,11.26-16.12,17.14-27.86,14.27-11.51-2.81-19.53-14.07-17.7-26.18,2.12-14.06-.2-26.94-7.3-39.25-4.06-7.03-7.92-14.25-9.17-22.53-1.12-7.44-.68-14.69,1.4-21.91,2.11-7.32,4.95-14.42,5.96-22.07,1.02-7.8-.2-15.17-2.87-22.48-5.1-13.99,2.24-28.09,16.48-32.09,1.8-.51,3.58-.46,5.21-.59Z"/>
  <path class="cls-2" d="M272.48,375.55c14.86,.17,25.82,13.4,23.56,28.57-1.69,11.36-.26,22.19,5.39,32.34,2.33,4.19,4.48,8.48,6.76,12.7,6.48,11.99,7.73,24.46,3.91,37.58-1.87,6.44-4.07,12.79-5.05,19.51-1.24,8.48,.14,16.43,3.15,24.34,5.42,14.22-2.93,29.48-17.5,32.37-10.83,2.15-21.4-3.31-26.2-13.54-4.71-10.03-2.19-22.83,6.77-29.07,17.07-11.89,22.31-29.04,22.97-48.52,.12-3.67-.56-7.31-1.78-10.68-6.08-16.72-14.58-31.43-31.79-39.37-10.03-4.63-15.05-14.33-13.93-24.73,1.09-10.11,8.52-18.43,18.76-20.87,1.62-.39,3.32-.42,4.99-.62Z"/>
  <path class="cls-2" d="M124.17,119.86c-.04,8.39-3.22,15.59-10.4,19.75-18.33,10.62-29.72,46.4-16.85,69.19,7.07,12.51,15.12,22.87,28.23,29.37,11.03,5.47,15.31,19.37,10.5,30.54-4.88,11.35-16.88,17.13-28.45,13.7-12.01-3.56-19.04-14.9-17.01-27.39,1.91-11.75,.55-22.97-5.25-33.54-2.25-4.09-4.24-8.32-6.38-12.47-6.21-12.01-7.08-24.44-3.07-37.31,3.15-10.13,6.82-20.14,5.73-31.1-.46-4.59-1.88-8.83-3.31-13.13-4.96-15,4.3-29.81,19.89-31.8,13.96-1.78,26.34,9.58,26.37,24.18Z"/>
  <path class="cls-2" d="M746.84,283.43c-14.39-.11-25.77-12.62-23.64-26.77,2.09-13.9,0-26.71-7.02-38.93-4.05-7.04-7.96-14.23-9.32-22.48-1.27-7.7-.9-15.21,1.43-22.65,1.62-5.19,3.39-10.34,4.7-15.6,2.4-9.67,1.85-19.16-1.67-28.61-4.68-12.56,.93-25.84,12.64-30.91,10.59-4.59,23.08-.8,29.41,8.94,6.48,9.96,4.86,23.5-3.86,31.18-2.62,2.31-5.63,4.16-8.29,6.43-13.23,11.25-23.25,42.09-11.87,63.42,7.01,13.13,15.24,24.02,28.88,30.78,10.2,5.05,14.52,16.73,11.53,27.54-2.9,10.46-12.36,17.76-22.91,17.68Z"/>
  <path class="cls-2" d="M684.14,473.27c-3.52-21.09-11.8-39.8-32.59-50.5-7.05-3.63-12.39-8.44-14.67-16.17-2.74-9.24,.53-19.73,7.91-25.62,7.89-6.31,18.11-7.1,26.92-2.08,8.22,4.69,13.11,14.72,11.69,24.51-1.8,12.34-.03,23.91,6.23,34.86,3.9,6.84,7.97,13.67,10.24,21.32,3.48,11.75,1.29,23.1-2.53,34.29-4.34,12.72-4.55,25.14,.45,37.92,4.53,11.59-1.5,24.51-12.66,29.56-10.91,4.95-23.94,.81-30.12-9.57-6.3-10.56-4.01-24.97,5.93-31.74,16.39-11.16,20.76-27.87,23.21-46.8Z"/>
  <path class="cls-2" d="M338.78,662.87c.62-6.87,1.77-13.78,.66-20.83-.94-5.97-2.89-11.51-5.69-16.82-2.53-4.81-5.06-9.64-7.35-14.56-5.07-10.9-5.8-22.12-2.4-33.69,2.07-7.06,4.72-13.95,5.85-21.3,1.24-8.06,.08-15.69-2.68-23.26-4.95-13.56,1.92-27.85,15.2-31.9,11.03-3.36,23.06,1.88,28.23,12.29,5.35,10.79,2.5,23.93-7.38,30.48-16.19,10.73-22.91,26.97-22.89,44.86,.02,22.74,10.56,41.1,31.13,52.41,7.48,4.11,12.9,9.45,14.53,18.05,1.83,9.71-1.27,17.83-8.89,23.8-7.7,6.04-16.43,6.86-25.2,2.37-8.76-4.49-12.85-12.05-13.12-21.9Z"/>
  <path class="cls-2" d="M489.23,487.47c-14.75-.22-26.05-13.65-23.58-28.15,2.02-11.86,.58-23.14-5.09-33.92-4.09-7.77-8.84-15.28-10.77-24.02-1.91-8.66-1.41-17.21,1.24-25.69,2.97-9.49,6.51-18.85,5.89-29.13-.32-5.27-1.75-10.15-3.4-15.07-4.7-14.01,3.3-28.3,17.52-31.46,10.43-2.31,21.53,3.1,26.25,12.82,4.97,10.22,2.81,23.5-6.29,29.44-14.22,9.28-20.48,22.89-23.57,38.6-1.52,7.73-1.19,15.55,1.58,23,6.02,16.2,14.61,30.19,31.17,38,9.67,4.56,14.2,14.7,12.7,25.35-1.32,9.38-8.52,17.11-18.28,19.51-1.74,.43-3.57,.49-5.36,.72Z"/>
  <path class="cls-2" d="M392.03,738.19c.08-5.11,3.33-11.68,9.92-16.6,21.55-16.06,27.89-45.18,15.75-69.23-6.5-12.87-15.26-22.8-28.47-29.07-9.71-4.61-14.56-15.69-12.54-25.8,2.13-10.71,10.5-18.48,21.28-19.77,14.85-1.78,28.17,12.62,25.86,27.83-1.81,11.86-.41,23.23,5.7,33.81,2.07,3.59,3.85,7.35,5.88,10.97,7.19,12.8,8.43,26.13,3.98,40.12-1.8,5.66-3.54,11.34-4.53,17.24-1.41,8.45-.24,16.46,2.82,24.37,5.33,13.78-1.6,28.66-15.05,32.58-15.41,4.49-30.59-7.1-30.59-26.43Z"/>
  <path class="cls-2" d="M296.25,199.32c-.69,5.41-1.23,11.99-.45,18.61,1.18,9.96,6.36,18.27,11.07,26.72,5.18,9.3,8.11,19.04,7.28,29.74-.55,7.17-3.03,13.88-5.07,20.68-3.42,11.43-3.39,22.57,1.15,33.82,4.7,11.64-.79,25.08-11.8,30.36-10.98,5.27-24.25,1.32-30.57-9.11-6.64-10.95-4.39-25.4,6.24-32.15,18.84-11.94,29.01-47.77,15.81-70.11-7.33-12.41-15.7-22.46-28.78-28.82-10.64-5.17-15.04-18.06-11.02-29.33,3.91-10.97,14.76-17.54,26.05-15.78,11.55,1.8,20.06,12.06,20.07,25.35Z"/>
  <path class="cls-2" d="M171.65,198.88c-.65,5.91-1.32,12.33-.53,18.84,1.21,9.96,6.28,18.3,11.01,26.74,5.27,9.41,8.22,19.26,7.34,30.11-.57,7.04-2.96,13.64-4.96,20.31-3.43,11.43-3.47,22.56,1.01,33.83,4.76,11.97-.69,25.3-11.93,30.62-10.84,5.13-23.97,1.21-30.28-9.04-6.81-11.06-4.63-25.46,6.34-32.41,18.26-11.57,29.05-47.34,15.55-70.19-7.26-12.28-15.57-22.27-28.53-28.55-10.33-5.01-14.91-17.04-11.73-28.14,3.14-10.97,13.28-17.85,25.21-17.14,10.22,.62,19.42,9.33,21.24,20.18,.23,1.4,.16,2.85,.25,4.82Z"/>
  <path class="cls-2" d="M645.28,867.01c.04,13.67-11.79,25.26-24.89,24.4-14.28-.93-24.66-12.88-22.58-26.99,2.09-14.22-.33-27.21-7.54-39.6-3.96-6.8-7.61-13.81-8.89-21.81-1.24-7.71-.69-15.18,1.48-22.66,2.09-7.19,4.82-14.17,5.8-21.7,1.03-7.96-.34-15.4-3.02-22.83-3.81-10.54-.02-22.09,8.97-28.22,10.69-7.29,25.15-4.66,32.78,5.97,7.79,10.84,5.43,26.01-5.62,33.81-6.28,4.43-11.78,9.46-15.19,16.35-9.02,18.26-11.18,36.39-.81,55.32,6.36,11.61,14.38,20.68,26.2,26.63,8.42,4.24,13.3,12.58,13.32,21.34Z"/>
  <path class="cls-2" d="M171.56,807.61c-.54,5.62-1.41,12.42-.18,19.32,.94,5.3,2.62,10.27,5.08,15,2.27,4.37,4.56,8.73,6.94,13.04,6.81,12.36,7.91,25.22,3.84,38.69-1.79,5.93-3.79,11.83-4.76,17.98-1.4,8.82,.06,17.2,3.19,25.51,5.08,13.5-2.93,28.6-16.54,31.75-11.09,2.57-22.32-2.85-27.18-13.12-4.93-10.43-2.19-22.92,7.11-29.65,7.46-5.4,12.97-12.05,16.93-20.36,15.24-31.95-3.83-66.85-27.71-77.78-10.25-4.69-15.55-14.82-14.2-24.95,1.39-10.44,8.58-18.39,18.85-20.83,14.71-3.5,28.74,8.34,28.64,25.4Z"/>
  <path class="cls-2" d="M392.04,942.05c.09-5.06,3.02-12.18,10.05-16.39,17.75-10.63,28.74-46.34,16.24-68.4-7.35-12.97-15.78-23.66-29.47-30.26-11.09-5.35-15.42-19.15-10.69-30.43,4.74-11.3,16.76-17.22,28.36-13.96,11.76,3.3,19,15.12,17.23,27.39-1.59,11-.57,21.71,4.94,31.68,2.25,4.08,4.28,8.29,6.58,12.35,7.3,12.91,8.59,26.35,4.11,40.47-1.8,5.66-3.54,11.33-4.51,17.24-1.42,8.59-.1,16.68,2.96,24.74,4.63,12.15-.53,25.36-11.69,30.73-15.95,7.68-34.05-4.01-34.1-25.16Z"/>
  <path class="cls-2" d="M213.54,662.73c.31-4.13,.7-8.26,.91-12.39,.44-8.62-1.54-16.69-5.61-24.3-2.2-4.11-4.22-8.33-6.39-12.45-6.42-12.2-7.61-24.83-3.4-37.99,1.89-5.91,4-11.76,5.19-17.86,1.74-8.89,.52-17.44-2.57-25.93-4.5-12.4,1.61-25.95,13.41-30.59,11.26-4.42,23.92,.15,29.77,10.75,5.85,10.61,3.44,24.34-6.53,30.93-15.92,10.53-21.37,26.32-23.67,43.91-.67,5.16,.14,10.4,1.85,15.34,5.83,16.86,14.37,31.42,31.46,39.6,9.74,4.66,14.65,15.18,13.03,24.83-1.86,11.05-9.15,18.71-20.38,20.58-13.76,2.3-27.62-9.02-27.07-24.42Z"/>
  <path class="cls-2" d="M555.49,879.48c-3.36-21.04-11.69-39.85-32.6-50.64-9.9-5.11-15.68-12.47-15.49-23.9,.19-11.41,9.24-21.63,20.39-23.06,12-1.53,23.4,6.1,26.33,17.64,.94,3.69,.93,7.36,.48,11.17-1.27,10.74-.24,21.13,4.99,30.94,4.19,7.86,9.18,15.39,11.64,24.08,2.73,9.63,2.11,19.2-.86,28.71-1.84,5.92-3.68,11.82-4.63,18.01-1.26,8.21-.02,15.94,2.92,23.6,5.03,13.09-.86,27.1-13.26,31.92-10.89,4.24-23.44-.25-29.22-10.45-6.06-10.7-3.69-24.64,6.16-31.36,16.24-11.07,20.65-27.66,23.14-46.67Z"/>
  <path class="cls-2" d="M651.61,942.26c.15-5.15,2.96-12.3,10-16.56,18.08-10.95,29.04-46.74,15.83-69.43-7.24-12.43-15.49-22.64-28.6-29.04-11.39-5.56-15.84-18.99-11.11-30.6,4.65-11.39,16.92-17.38,28.7-13.99,11.57,3.33,18.7,15.23,16.88,27.65-1.64,11.17-.2,21.9,5.24,32.02,4.1,7.62,8.88,14.95,11.29,23.39,2.75,9.64,2.09,19.21-.84,28.72-1.83,5.93-3.65,11.84-4.63,18.02-1.33,8.35,.05,16.19,3.05,23.97,5.04,13.08-1.36,27.28-14.12,31.79-15.56,5.5-31.67-6.16-31.68-25.93Z"/>
  <path class="cls-2" d="M392.03,334.72c.15-5.58,3.28-12.2,9.92-17.11,21.51-15.91,27.87-45.29,15.76-69.23-6.58-13.02-15.54-22.92-28.82-29.29-10.91-5.23-15.36-19.01-10.74-30.42,4.62-11.4,16.87-17.37,28.68-13.98,11.44,3.28,18.74,15.28,16.94,27.26-1.68,11.16-.48,21.96,5.04,32.05,2.73,5,5.38,10.05,7.97,15.12,5.69,11.12,6.64,22.7,3.34,34.71-1.82,6.6-4.14,13.05-5.26,19.86-1.39,8.44-.29,16.46,2.85,24.37,5.56,14.01-2.17,29.52-16.24,32.85-15.18,3.59-29.44-7.86-29.44-26.21Z"/>
  <path class="cls-2" d="M714.6,752.78c-.28-6.07-1.59-11.54-3.5-16.97-5.17-14.7,4.03-30.03,19-32.07,10.81-1.48,21.08,4.43,25.33,14.58,4.29,10.24,1.5,22.36-7.58,28.55-17.41,11.87-23.01,29.15-23.7,48.94-.1,2.87,.44,5.72,1.29,8.42,5.6,17.86,14.42,33.08,32.29,41.67,10.16,4.88,14.65,15.85,12.29,26.9-2.14,10-10.65,17.35-21.45,18.51-14.25,1.53-27.23-11.61-25.49-26.12,1.02-8.57,1.64-17.05-.79-25.46-1.99-6.91-5.64-13.08-9.02-19.33-4.91-9.09-7.82-18.57-7.09-29.02,.5-7.2,3.03-13.87,5.16-20.65,1.87-5.97,3.1-12.03,3.26-17.95Z"/>
  <path class="cls-2" d="M522.98,539.19c.07-7.7,2.63-14.61,9.05-18.86,13.56-8.96,19.11-22.38,22.14-37.36,2.22-10.96-.08-21.2-4.79-31.27-6.46-13.82-15.82-24.26-29.82-30.92-10.87-5.17-15.09-19.19-10.32-30.57,4.61-10.99,16.7-16.88,28.15-13.71,11.64,3.23,19.15,14.89,17.38,26.92-1.75,11.88-.39,23.23,5.73,33.8,2.01,3.47,3.7,7.14,5.69,10.63,7.35,12.89,8.61,26.35,4.19,40.48-1.85,5.91-3.72,11.81-4.65,18-1.24,8.21-.05,15.95,2.93,23.6,5.06,12.99-.89,27.16-13.24,31.94-15.7,6.08-32.39-5.59-32.45-22.69Z"/>
  <path class="cls-2" d="M424.37,474.09c-3.4-21.81-11.56-40.72-32.59-51.42-7.34-3.74-12.63-8.88-14.71-17.03-2.31-9.03,1.25-19.56,8.58-25.04,8.04-6.01,18.17-6.61,26.65-1.6,8.15,4.82,12.89,14.91,11.52,24.23-1.77,12-.43,23.49,5.8,34.17,2.02,3.47,3.72,7.13,5.69,10.62,7.21,12.78,8.54,26.13,4.16,40.12-1.85,5.92-3.74,11.82-4.69,18-1.28,8.32-.07,16.2,2.98,23.98,5.7,14.58-2.46,29.69-17.6,32.92-13.06,2.78-26.95-7.57-28.05-20.91-.71-8.56,1.4-16.48,8.52-21.4,11.86-8.19,18.29-19.43,21.49-33.03,1.04-4.42,2.08-8.83,2.25-13.61Z"/>
  <path class="cls-2" d="M548,765.5c-11.48-.01-20.45-6.49-23.8-16.41-3.31-9.79-.31-21.02,8-26.83,16.91-11.81,22.04-28.97,22.74-48.25,.15-4.14-.81-8.27-2.29-12.16-6.17-16.29-14.8-30.41-31.57-38.14-10.16-4.68-15.2-15.14-13.54-25.65,1.62-10.27,9.27-17.92,20.06-20.08,15.18-3.04,29.59,11.73,27.18,27.74-1.77,11.74-.32,22.94,5.62,33.45,3.31,5.86,6.55,11.8,9.19,17.98,5.14,12.07,3.92,24.27-.14,36.43-1.59,4.77-2.9,9.64-3.69,14.66-1.3,8.19-.14,15.96,2.84,23.6,5.75,14.69-2.04,29.84-17.08,33.26-1.5,.34-3.08,.35-3.52,.4Z"/>
  <path class="cls-2" d="M675.56,765.5c-10.43-.02-19.24-6.36-22.72-16.36-3.43-9.87-.49-20.89,8.27-27.07,16.46-11.62,21.48-28.42,22.45-47.22,.23-4.43-.73-8.8-2.29-12.94-6.13-16.31-14.75-30.44-31.53-38.15-10.19-4.68-15.22-15.03-13.59-25.62,1.59-10.37,9.45-18.15,20.38-20.18,15.06-2.8,29.17,11.67,26.87,27.69-1.73,12.06-.25,23.49,5.97,34.15,1.89,3.24,3.44,6.69,5.32,9.94,7.49,12.99,8.75,26.57,4.25,40.82-1.75,5.54-3.47,11.1-4.47,16.86-1.48,8.56-.31,16.71,2.85,24.74,4.61,11.72,.28,24.23-10.27,30.32-3.72,2.14-7.1,3.04-11.49,3.03Z"/>
  <path class="cls-2" d="M338.88,865.74c.51-6.05,1.66-12.96,.5-20.02-.99-5.97-3.09-11.44-5.74-16.81-3.65-7.41-8.19-14.41-10.24-22.58-2.14-8.53-1.82-16.9,.59-25.31,2.02-7.08,4.69-13.96,5.86-21.3,1.32-8.21-.01-15.94-2.78-23.62-4.82-13.38,2.01-27.4,15.23-31.52,10.91-3.4,22.71,1.53,28.05,11.72,5.41,10.33,3.26,23.97-6.12,30.09-15.04,9.81-20.94,24.37-23.87,40.95-.94,5.34-.78,10.71,.72,15.82,5.32,18.06,13.95,33.56,31.9,42.4,13.55,6.68,17.61,22.95,9.53,35.13-5.92,8.91-16.87,12.81-26.94,9.59-10.34-3.3-17.01-12.73-16.69-24.52Z"/>
  <path class="cls-2" d="M651.6,334.49c.09-4.95,2.66-11.88,9.1-16.1,13.63-8.94,19.06-22.41,22.09-37.37,2.31-11.39-.36-21.9-5.35-32.31-6.38-13.3-15.6-23.14-28.98-29.64-11.19-5.43-15.43-19.23-10.54-30.78,4.72-11.17,16.81-16.93,28.54-13.61,11.32,3.2,18.71,15.24,16.92,27.3-1.71,11.47-.24,22.39,5.39,32.75,4.13,7.6,8.87,14.95,11.19,23.43,2.61,9.54,1.9,18.95-.97,28.33-1.81,5.93-3.72,11.82-4.65,18-1.22,8.2-.04,15.95,2.97,23.6,5.08,12.88-.95,27.14-13.31,31.92-15.68,6.06-32.42-5.7-32.4-25.54Z"/>
  <path class="cls-2" d="M338.91,257.02c1.26-7.64,1.73-16.41-.71-25.09-2.1-7.43-6.03-14.04-9.66-20.74-7.19-13.29-8.57-26.89-3.63-41.24,1.93-5.61,3.84-11.27,4.84-17.17,1.44-8.53,.27-16.69-2.71-24.79-4.7-12.77,1.79-26.62,14.27-31.16,10.76-3.91,23.05,.76,28.75,10.93,5.74,10.23,3.78,24.25-5.66,30.46-14.96,9.84-21.08,24.28-24.02,40.87-1.04,5.85-.71,11.7,1.03,17.32,5.45,17.61,14.12,32.71,31.68,41.2,10.45,5.05,15.08,15.61,12.79,26.98-2.06,10.24-10.64,17.67-21.61,18.72-13.92,1.33-26.06-10.69-25.37-26.31Z"/>
  <path class="cls-2" d="M189.52,472.66c.53,8.18-2.58,15.99-4.94,23.88-3.46,11.58-3.51,22.8,.97,34.19,4.71,11.99-.81,25.29-12.08,30.54-10.87,5.06-24.03,1.05-30.22-9.22-6.71-11.13-4.5-25.67,6.49-32.41,17.71-10.86,28.97-46.81,15.74-69.5-7.24-12.42-15.52-22.55-28.6-29.02-12.98-6.42-16.76-22.76-8.92-34.7,7.74-11.79,23.57-14.39,34.71-5.47,7.56,6.06,9.94,14.33,8.63,23.68-1.53,10.99-.09,21.42,5.18,31.25,2.63,4.91,5.26,9.83,7.82,14.78,3.52,6.79,5.44,13.97,5.22,22Z"/>
  <path class="cls-2" d="M555.04,271.03c-.1-5.88-1.55-12.53-4.6-18.8-5.01-10.31-10.22-20.46-20.2-27.08-3.14-2.09-6.44-3.87-9.78-5.6-11.08-5.74-16.02-18.98-11.45-30.53,4.57-11.56,16.6-17.63,28.45-14.36,11.88,3.27,19.09,15.26,17.23,27.74-1.58,10.58-.53,20.95,4.6,30.61,2.31,4.35,4.51,8.76,6.94,13.04,7.32,12.9,8.57,26.36,4.14,40.48-1.82,5.79-3.66,11.57-4.61,17.63-1.3,8.32-.14,16.21,2.93,23.98,5.55,14.02-2.22,29.51-16.31,32.81-11.07,2.59-22.29-2.86-27.11-13.18-4.9-10.49-2.36-23.48,7.16-29.56,15.23-9.73,22.06-30.66,22.6-47.18Z"/>
  <path class="cls-2" d="M296.24,603.51c-.63,5.67-1.37,12.48-.23,19.37,.9,5.44,2.64,10.53,5.25,15.35,1.6,2.96,3.03,6.04,4.79,8.9,9.18,14.92,10.37,30.49,4.59,46.94-3.14,8.95-5.29,18.16-3.54,27.84,.65,3.59,1.73,7,3.01,10.4,5.11,13.52-1.85,28.34-15.11,32.3-13.65,4.08-27.5-4.42-30.29-19.01-1.87-9.78,1.54-17.93,9.48-23.95,21.82-16.55,28.03-45.02,15.67-69.53-6.43-12.75-15.13-22.61-28.26-28.76-9.46-4.44-14.57-15.63-12.72-25.39,2.11-11.15,10.57-19.05,21.67-20.26,13.56-1.47,25.75,10.21,25.68,25.8Z"/>
  <path class="cls-2" d="M171.56,603.68c-.44,5.21-1.37,11.75-.32,18.4,.93,5.85,2.77,11.29,5.57,16.46,2.35,4.33,4.62,8.69,6.93,13.04,6.34,11.91,7.43,24.29,3.74,37.26-1.91,6.7-4.25,13.29-5.16,20.29-1.03,7.94,.13,15.43,3.01,22.83,5.42,13.93-1.67,28.9-15.36,32.75-10.95,3.08-22.74-2.2-27.82-12.47-5.26-10.62-2.34-23.11,7.08-30.36,22.49-17.29,28.36-45.21,15.62-70.43-6.36-12.58-15.13-21.97-27.87-28.08-9.5-4.55-14.65-15.7-12.68-25.37,2.33-11.45,10.46-19.09,21.59-20.29,13.61-1.46,25.74,10.16,25.67,25.97Z"/>
</svg>