<?xml version="1.0" encoding="UTF-8"?>
<svg id="Layer_1" data-name="Layer 1" xmlns="http://www.w3.org/2000/svg" viewBox="0 0 711.43 109.79">
  <defs>
    <style>
      .cls-1 {
        fill: #4ebb78;
      }
    </style>
  </defs>
  <path class="cls-1" d="M392.44,90.34c.07-11.56,10.13-20.96,21.51-19.25,11.79,1.77,22.58-.13,32.84-6.15,5.17-3.04,10.53-5.84,16.52-7.01,7.2-1.4,14.24-.76,21.2,1.52,5.29,1.73,10.54,3.58,16.15,4.27,6.24,.77,12.14-.19,17.99-2.32,10.57-3.84,21.83,1.16,25.55,11.2,3.35,9.07-.48,19.25-8.99,23.87-8.75,4.75-19.58,2.35-25.48-5.64-13.85-18.75-36.42-23.88-57.34-13.63-10.2,5-17.84,12.02-22.95,22.16-3.65,7.24-11.87,11.31-19.17,10.25-9.14-1.33-15.42-6.8-17.33-15.2-.3-1.33-.33-2.71-.48-4.07l-.02-.02Z"/>
  <path class="cls-1" d="M382.68,79.26c-.15,8.69-5.4,15.91-13.68,18.65-8.05,2.67-16.97-.16-21.99-6.98-13.93-18.88-36.47-23.97-57.59-13.63-10.22,5.01-17.79,12.1-22.89,22.23-4.04,8.02-13.37,11.8-22.08,9.62-8.5-2.13-14.81-10.08-14.86-18.7-.04-8.82,5.84-16.39,14.55-18.89,3.66-1.05,7.33-.69,10.98-.16,8.07,1.16,15.77,0,23.08-3.6,4.44-2.18,8.81-4.55,13.26-6.72,9.03-4.4,18.39-5.05,28-2.27,4.75,1.37,9.44,2.97,14.24,4.16,7.47,1.85,14.8,1.2,22.05-1.51,11.53-4.31,23.22,1.73,26.32,13.44,.37,1.41,.42,2.91,.63,4.36h0Z"/>
  <path class="cls-1" d="M558.5,90.34c.09-11.71,10.27-20.98,21.79-19.24,11.31,1.7,21.74,0,31.69-5.71,5.73-3.3,11.58-6.48,18.3-7.59,6.27-1.03,12.38-.73,18.44,1.16,4.22,1.32,8.42,2.76,12.7,3.83,7.87,1.95,15.6,1.51,23.29-1.36,10.22-3.81,21.03,.76,25.16,10.29,3.74,8.62,.65,18.79-7.28,23.94-8.11,5.27-19.13,3.96-25.38-3.14-1.88-2.13-3.39-4.58-5.23-6.75-9.16-10.77-34.26-18.92-51.62-9.66-10.69,5.71-19.55,12.41-25.05,23.51-4.11,8.3-13.62,11.82-22.42,9.39-8.51-2.36-14.46-10.06-14.39-18.65h.02Z"/>
  <path class="cls-1" d="M403.97,39.31c17.17-2.87,32.4-9.6,41.11-26.53,2.95-5.74,6.87-10.09,13.16-11.94,7.52-2.23,16.06,.43,20.85,6.44,5.14,6.42,5.78,14.74,1.69,21.91-3.82,6.69-11.98,10.67-19.95,9.52-10.04-1.47-19.46-.02-28.38,5.07-5.57,3.17-11.13,6.49-17.35,8.34-9.56,2.83-18.8,1.05-27.91-2.06-10.35-3.53-20.46-3.7-30.87,.37-9.43,3.69-19.95-1.22-24.06-10.3-4.03-8.88-.66-19.49,7.79-24.52,8.6-5.13,20.32-3.26,25.84,4.83,9.08,13.34,22.69,16.9,38.09,18.89h-.02Z"/>
  <path class="cls-1" d="M22.22,12.83c4.19,.12,10.01,2.41,13.48,8.14,8.91,14.72,38.05,23.64,56.51,12.89,10.12-5.89,18.43-12.61,23.64-23.28,4.53-9.27,15.46-12.89,24.91-9.04,9.27,3.79,14.15,13.77,11.39,23.36-2.71,9.42-12.4,15.22-22.51,13.74-9.09-1.33-17.83-.16-26.06,4.27-6.2,3.34-12.17,7.23-19.04,9.19-7.85,2.24-15.64,1.7-23.38-.68-4.83-1.49-9.64-2.97-14.67-3.77-6.8-1.08-13.18,.04-19.51,2.48-10.65,4.1-22.21-1.11-25.88-11.49C-3.37,25.96,6.12,12.85,22.22,12.84h0Z"/>
  <path class="cls-1" d="M176.46,64.1c4.94-.23,9.39-1.29,13.81-2.85,11.97-4.21,24.44,3.28,26.1,15.47,1.2,8.8-3.61,17.16-11.87,20.62-8.34,3.49-18.2,1.22-23.24-6.17-9.66-14.17-23.73-18.73-39.84-19.29-2.34-.08-4.66,.36-6.85,1.05-14.54,4.56-26.93,11.74-33.92,26.28-3.97,8.27-12.9,11.92-21.9,10-8.14-1.74-14.12-8.67-15.07-17.46-1.25-11.6,9.45-22.16,21.26-20.75,6.98,.83,13.88,1.33,20.72-.64,5.62-1.62,10.65-4.59,15.73-7.34,7.4-4,15.12-6.37,23.62-5.77,5.86,.41,11.29,2.47,16.81,4.2,4.86,1.52,9.79,2.52,14.61,2.65h0Z"/>
  <path class="cls-1" d="M166.1,32.32c.02-8.49,5.18-15.66,13.32-18.49,8.03-2.79,17-.4,22.03,6.73,9.46,13.4,23.13,17.48,38.44,18.27,3.61,.19,7.16-.59,10.53-1.86,13.28-4.99,24.78-12.01,31.05-25.66,3.81-8.29,12.23-12.39,20.85-11.06,8.44,1.29,14.77,7.69,16.43,16.59,2.28,12.26-9.5,23.74-22.54,21.87-9.82-1.41-19.12-.2-27.8,4.86-2.64,1.54-5.45,2.8-8.09,4.33-10.57,6.1-21.63,7.12-33.23,3.46-4.51-1.42-9.04-2.82-13.72-3.64-6.97-1.2-13.6-.25-20.14,2.32-9.54,3.75-19.72,.23-24.68-8.36-1.74-3.03-2.47-5.78-2.47-9.35h0Z"/>
  <path class="cls-1" d="M516.93,12.82c4.03,.07,9.67,2.17,13.11,7.41,7.28,11.09,18.24,15.51,30.42,17.98,9.27,1.88,17.83-.29,26.3-4.35,10.83-5.19,18.84-12.7,24.13-23.59,4.42-9.11,15.65-12.56,25.05-8.58,9.09,3.84,13.78,13.68,11.08,23.23-2.6,9.21-12.41,15.23-22.22,13.77-9.34-1.39-18.22-.2-26.66,4.39-6.19,3.36-12.17,7.22-19.07,9.11-7.77,2.12-15.42,1.55-23.06-.79-4.83-1.47-9.62-3.03-14.65-3.79-6.67-.99-12.98-.03-19.21,2.42-10.48,4.14-22.09-.77-25.98-10.83-4.93-12.76,4.64-26.39,20.79-26.37h-.02Z"/>
</svg>