<?xml version="1.0" encoding="UTF-8"?>
<svg id="Layer_1" data-name="Layer 1" xmlns="http://www.w3.org/2000/svg" viewBox="0 0 841.69 209.31">
  <defs>
    <style>
      .cls-1 {
        fill: #4ebb78;
      }
    </style>
  </defs>
  <path class="cls-1" d="M841.68,104.74c-10.4-8.37-22.32-13.41-35.34-15.9-5.81-1.11-11.64-.66-17.33,.98-15.75,4.55-29.42,11.65-37.51,27.18-5.3,10.16-16.44,14.22-27.7,11.18-11.37-3.06-22.27-2.01-33.04,2.48-6.79,2.83-13.36,6.28-20.71,7.64-9.3,1.73-18.3,.84-27.06-2.68-4.32-1.74-8.7-3.36-12.95-5.28-11.22-5.08-22.68-5.56-34.53-2.55-14.69,3.73-27.75-4.54-30.67-19.13-2.22-11.09,3.81-22.36,14.4-26.92,10.32-4.44,22.73-1.21,29.14,7.98,4.46,6.4,8.5,13.19,15.09,17.63,27.41,18.47,54.64,18.22,79.41-5.35,2.65-2.52,4.3-5.81,6.09-8.98,6.03-10.66,17.12-15.58,28.74-12.16,11.02,3.25,21.47,1.91,31.89-2.22,7.79-3.09,15.22-7.07,23.72-8.37,9.06-1.39,17.5,.3,25.85,3.51,7.47,2.88,14.57,6.75,22.51,8.34v22.62Z"/>
  <path class="cls-1" d="M.02,110.98c5.1-3.95,9.07-8.8,12.19-14.46,6.24-11.34,17.2-15.97,29.62-12.48,10.7,3.01,20.97,1.73,31.13-2.35,7.66-3.07,14.98-7,23.33-8.31,8.59-1.35,16.74-.2,24.78,2.81,8.23,3.07,15.99,7.39,24.72,9.11,8.06,1.58,15.97,.67,23.87-1.18,14.07-3.28,27.33,5.15,29.91,18.88,2.25,11.97-3.85,23.23-14.98,27.63-11,4.36-22.89,.51-29.53-9.8-4.47-6.95-9.31-13.65-16.51-17.83-11.48-6.68-23.54-12.83-37.29-11.37-18.92,2.01-35.32,9.14-45.18,26.8-6.2,11.11-17.13,16.1-29.22,12.68-9.06-2.56-17.92-1.85-26.86,.12v-20.26H.02Z"/>
  <path class="cls-1" d="M841.68,156.95c-7.94-3.1-16.1-4.68-24.67-3.96-3.77,.32-7.42,1.11-11.07,1.93-12.2,2.76-24.19-3.67-28.46-15.32-4.26-11.6,.71-24.48,11.65-30.18,10.96-5.71,24.36-2.51,31.3,7.87,5.02,7.5,10.29,14.65,18.16,19.43,.98,.6,2.07,1.02,3.1,1.53v18.7h0Z"/>
  <path class="cls-1" d="M322.43,149.94c7.4,.33,14.39,4.76,19.29,12.75,4.76,7.76,10.7,14.46,18.94,18.56,11.53,5.73,23.35,11.4,36.7,9.11,17.8-3.05,33.57-9.86,42.77-26.88,3.3-6.11,8.25-10.21,15-12.1,1.24-.35,2.44-.88,3.61-1.42,5.66-2.58,11.48-3.16,17.42-1.26,10.37,3.32,20.47,2.16,30.39-1.74,4.7-1.84,9.33-3.86,14-5.78,11.71-4.8,23.46-4.79,35.21-.19,4.94,1.93,9.88,3.89,14.74,6.01,10.4,4.55,21.07,4.92,31.96,2.31,14.72-3.53,26.83,2.57,31.23,15.76,3.75,11.24-1.16,23.54-11.67,29.22-10.52,5.69-23.54,3.09-30.65-6.59-5-6.8-9.17-14.4-16.55-18.9-26.2-15.98-46.74-18.5-74.58,2.4-3.86,2.9-6.67,6.9-8.9,11.2-3.66,7.06-9.37,11.02-16.86,13.89-8.4,3.21-16.15,2.97-24.63,.95-8.74-2.08-17.53-.58-25.9,2.8-4.44,1.8-8.82,3.72-13.25,5.54-12.22,5.05-24.46,4.88-36.69,.05-4.33-1.71-8.7-3.36-12.94-5.29-11.11-5.06-22.47-5.38-34.17-2.48-15.19,3.77-28.86-5.26-30.9-20.18-2.04-14.9,9.27-27.8,26.4-27.77l.03,.03Z"/>
  <path class="cls-1" d="M588.49,56.14c-19.49,3.16-37.47,8.82-47.81,27.98-5.71,10.59-16.87,15.28-28.41,12.14-11.5-3.12-22.52-1.98-33.41,2.64-6.65,2.82-13.13,6.16-20.36,7.49-9.17,1.68-18.06,.9-26.71-2.55-4.45-1.78-8.94-3.47-13.3-5.44-11.1-5.01-22.45-5.59-34.17-2.6-10.96,2.8-21.3-.91-27.14-9.47-5.7-8.35-5.73-19.61-.07-27.8,9.93-14.36,30.65-14.29,40.47,.35,4.89,7.29,9.93,14.49,17.67,18.84,9.72,5.46,19.84,10.78,31.28,10.76,21.24-.05,39.09-7.51,50.37-26.53,6.89-11.61,17.13-16.3,30.2-12.68,9.88,2.74,19.52,1.86,28.96-1.76,5.08-1.94,10.02-4.22,15.07-6.24,11.61-4.65,23.25-4.56,34.86,.03,4.21,1.66,8.49,3.21,12.58,5.14,11.56,5.46,23.45,5.8,35.67,2.91,14.82-3.51,28.13,5.14,30.65,19.83,2.39,13.9-8.03,27.18-22.81,28.26-9.03,.66-16.92-2.93-21.47-10.84-9.31-16.2-24.07-24.09-41.2-28.8-3.5-.96-7.1-1.48-10.93-1.65h0Z"/>
  <path class="cls-1" d="M435.83,59.54c-7.07-.38-14.35-3.67-18.71-11.15-10.73-18.43-27.8-26.29-47.74-29.67-4.94-.84-9.88-.25-14.64,1.1-15.88,4.5-29.83,11.49-37.89,27.23-4.99,9.75-16.71,14.53-27.32,11.42-12.27-3.6-23.75-1.91-35.18,3.03-7.57,3.27-15.03,6.91-23.51,7.58-8.06,.63-15.75-.5-23.19-3.55-3.23-1.33-6.55-2.48-9.68-4.01-12.46-6.08-25.29-6.67-38.61-3.42-9.55,2.33-17.87-.56-24.07-8.06-6.52-7.87-7.67-16.95-3.25-26.22,4.28-8.98,11.92-13.71,21.74-13.92,8.7-.18,16.19,3.5,20.63,11.11,10.76,18.44,27.95,26.15,47.82,29.62,5.05,.88,10.15,.19,15.02-1.23,15.69-4.57,29.5-11.53,37.55-27.09,5.23-10.1,16.78-14.53,27.63-11.41,11.51,3.31,22.47,2.03,33.35-2.52,7.97-3.33,15.69-7.41,24.56-8.17,8.18-.7,16.01,.35,23.58,3.54,4.18,1.76,8.43,3.34,12.57,5.19,10.98,4.9,22.21,5.39,33.79,2.51,15.52-3.86,29.02,4.92,31.29,20.14,2.18,14.68-9.35,27.99-25.72,27.95h-.02Z"/>
  <path class="cls-1" d="M411.6,134.83c-.08,10.94-6.83,20.09-17.22,23.36-10.18,3.2-21.69-.4-27.19-9.84-9.55-16.39-24.47-24.38-41.97-28.92-6.93-1.8-13.93-1.79-20.76,.15-15.74,4.47-29.62,11.39-37.68,26.97-5.3,10.24-16.85,14.75-27.91,11.54-11.54-3.35-22.5-1.94-33.37,2.61-8.09,3.38-15.94,7.46-24.97,8.15-8.21,.63-15.98-.7-23.55-3.79-6.59-2.69-13.11-5.64-19.9-7.7-9.29-2.82-18.71-1.59-28.04,.57-12.58,2.92-25.35-4.78-28.71-17.16-3.17-11.7,2.48-23.92,13.35-28.89,11.15-5.09,23.98-1.44,30.74,9.06,4.33,6.73,8.96,13.21,15.81,17.46,27.28,16.95,51.7,16.95,77.02-5.79,2.82-2.53,4.65-5.88,6.49-9.18,6.37-11.37,17.06-15.97,29.57-12.52,11.13,3.06,21.77,1.61,32.25-2.76,6.55-2.73,12.89-6.05,19.96-7.46,9.15-1.83,18.05-1.14,26.74,2.23,7.12,2.77,14.12,5.87,21.35,8.29,9.56,3.2,19.17,1.67,28.78-.42,15.33-3.34,29.35,8.28,29.23,24.01l-.02,.03Z"/>
</svg>