<?xml version="1.0" encoding="UTF-8"?>
<svg id="Layer_1" data-name="Layer 1" xmlns="http://www.w3.org/2000/svg" viewBox="0 0 841.89 1052.36">
  <defs>
    <style>
      .cls-1 {
        fill: #64ba9d;
      }

      .cls-2 {
        fill: #86cdb3;
      }

      .cls-3 {
        fill: #89ceb5;
      }

      .cls-4 {
        fill: #bbdfcf;
      }

      .cls-5 {
        fill: #bce1d1;
      }

      .cls-6 {
        fill: #348e75;
      }

      .cls-7 {
        fill: #479f85;
      }

      .cls-8 {
        fill: #479f84;
      }

      .cls-9 {
        fill: #489f85;
      }

      .cls-10 {
        fill: #5fb699;
      }

      .cls-11 {
        fill: #5fb599;
      }

      .cls-12 {
        fill: #5eb599;
      }

      .cls-13 {
        fill: #60b69a;
      }

      .cls-14 {
        fill: #4fa68b;
      }
    </style>
  </defs>
  <path class="cls-4" d="M.07,526.18C.07,351.98,.08,177.78,0,3.58,0,.66,.66,0,3.58,0c278.24,.08,556.49,.08,834.73,0,2.92,0,3.58,.66,3.58,3.58-.08,348.4-.08,696.8,0,1045.2,0,2.92-.66,3.58-3.58,3.58-278.24-.08-556.49-.08-834.73,0-2.92,0-3.58-.66-3.58-3.58,.08-174.2,.07-348.4,.07-522.6Z"/>
  <path class="cls-2" d="M461.49,280.66c.18,5.22-1.39,10.22-1.72,15.42-1.02,16.03,3.13,30.76,9.68,45.16,4.14,9.12,8.31,18.09,14.83,25.86,8.98,10.7,20.17,18.02,32.96,23.39,13.65,5.73,27.48,10.2,42.52,9.4,3.1-.17,6.19-.5,9.28-.76,.33,2.03-1.39,2.56-2.58,3.35-7.47,4.98-12.31,11.87-14.99,20.37-.46,1.45-1.02,2.86-1.93,4.1-2.11,2.12-3.6,4.74-5.66,6.89-1.08,1.12-1.99,2.45-3.81,2.31-2.01,.04-3.38-1.28-4.74-2.43-7.04-5.95-15.2-9.92-23.58-13.49-8.36-3.57-17.05-6.35-25.14-10.56-16.98-8.86-29.31-22.12-37.07-39.6-3.9-8.79-7.55-17.68-11.26-26.54-2.99-7.13-7.16-13.54-12.15-19.41-2.79-3.29-3.67-3.22-6.28,.11-5.01,6.38-8.72,13.51-11.86,20.96-3.57,8.5-6.59,17.22-10.66,25.52-8.67,17.71-22.4,29.89-40.24,37.9-11.96,5.37-24.49,9.46-35.84,16.17-4.49,2.66-8.55,5.92-12.41,9.39-3.13,2.81-3.08,3.49,.18,5.95,5.3,4,10.89,7.56,17.09,10.03,7.12,2.83,14.15,5.91,21.29,8.67,22.32,8.65,37.64,24.24,46.84,46.25,4.25,10.18,8.21,20.51,13.34,30.3,2.79,5.32,6.15,10.24,10.49,14.44,2.74,2.65,3.46,2.65,5.89-.36,4.5-5.58,8.3-11.62,11.16-18.22,3.15-7.27,6.06-14.64,8.95-22.02,8.67-22.14,24.22-37.49,46.06-46.55,9-3.73,17.93-7.63,26.9-11.42,7.05-2.98,12.86-7.77,18.65-12.61,1.27-1.06,2.4-2.45,4.29-2.45,3.32-.01,4.65,2.88,6.72,4.67,1.47,1.26,2.28,3.1,3.65,4.45,2.95,4.39,4.75,9.45,7.94,13.71,2.66,3.55,5.58,6.75,9.71,8.62,3.94,2.58,8.17,4.59,12.58,6.24,1.71,1.2,3.79,1.39,5.7,2.02,1.04,.34,2.38,.27,2.29,1.94-5.57,.61-10.73-1.53-16.06-2.47-16.78-2.97-33.03-1.6-48.68,5.3-10.53,4.64-21.45,8.49-30.69,15.74-13.16,10.31-21.79,23.63-27.72,39.12-4.49,11.73-8.04,23.53-7.77,36.19,.15,7.03,1.5,13.86,3.67,20.56,7.55,23.37-7.91,48.45-32.18,52.27-1.14,.18-2.33,.08-3.49,.11,.29-2.58,2.6-2.12,4.15-2.6,15.64-4.9,25.64-15.15,28.31-31.39,2.63-15.98-2.83-29.2-16.19-38.63-6.35-4.48-13.13-8.36-19.01-13.51-1.5-1.32-2.8-1.12-4.03,.24-4.71,5.18-10.76,8.49-16.65,12.03-24.76,14.86-24.89,49.45-2.94,65.42,1.69,1.23,3.6,2.07,5.35,3.17,1.1,.69,2.8,1.1,2.24,3.07-11.87-3.2-19.66-11.12-24.69-21.92-4.04-8.65-4.26-17.69-2.04-26.96,5.02-21.01,3.35-41.3-6.45-60.84-3.76-7.51-6.53-15.48-11.54-22.39-10.05-13.88-23.23-23.4-39.17-29.44-8.37-3.17-16.68-6.31-25.59-7.74-11.53-1.84-22.68-.28-33.72,3-3.1,.92-6.22,1.83-9.51,1.63,1-2.87,4.03-2.06,5.93-3.29,2.05-.57,4.05-1.3,6.12-1.79,9.55-2.36,16.69-8.01,22-16.12,3.62-5.52,6.77-11.36,11.27-16.27,1.48-1.62,1.53-3.13-.07-4.73-5.64-5.64-9.65-12.45-13.84-19.17-6.26-10.05-15.36-16.23-27.11-18.32-1.68-.3-3.35-.1-5.03,.18-2.76,.04-5.52,.24-8.28-.17-.63-.21-1.27-.42-1.78-.89-.34-.38-.38-.78-.11-1.21,7.78-2.36,15.56-2.04,23.37-.16,20.95,5.04,40.98,2.58,60.52-6.58,11.91-5.58,23.59-11.08,32.99-20.71,9.49-9.72,15.14-21.49,20.12-33.81,4.07-10.07,6.54-20.45,7.11-31.27,.35-6.64-1.29-13.1-2.37-19.6,2.14-.48,2.58,1.34,3.22,2.58,3.74,7.25,9.28,12.64,16.34,16.67,5.51,3.15,10.67,6.87,15.4,11.12,1.74,1.57,3.16,1.76,4.98,.02,5.08-4.86,10.91-8.74,17-12.21,7.32-4.18,12.8-9.97,16.32-17.67,.67-1.46,.76-3.74,3.26-3.72Z"/>
  <path class="cls-2" d="M425.6,710.95c5.17-.57,9.97,1.3,14.89,2.3,19.84,4.06,38.39,.33,56.64-7.9,12.42-5.6,24.16-11.78,33.55-21.88,7.43-8,12.46-17.36,16.7-27.33,5.16-12.15,8.94-24.58,9.09-37.86,.07-6.08-1.34-12.05-2.28-18.04,2.1-.31,2.55,1.48,3.2,2.74,3.74,7.32,9.67,12.4,16.53,16.6,5.32,3.25,10.54,6.67,15.1,10.94,1.94,1.81,3.35,1.76,5.27,0,5.29-4.83,11.17-8.83,17.43-12.35,8.26-4.65,13.65-11.78,16.98-20.59,.53-1.4,.31-3.54,2.71-3.59-.92,8.09-2.57,16.04-2.55,24.29,.02,11.12,2.26,21.54,6.64,31.7,4.77,11.07,8.97,22.4,16.52,32.03,9.05,11.55,20.8,19.26,34.23,24.83,13.27,5.5,26.66,10.16,41.32,9.51,6.24-.28,12.34-1.24,18.3-3.18,13.32-4.32,25.97-2.9,37.33,5.47,14.03,10.34,18.9,25.28,15.84,40.65-1.88-1.41-1.45-3.5-1.45-5.37,0-17.23-8.42-29.19-23.77-35.95-14.95-6.59-28.89-3.63-41.38,6.67-3.67,3.03-6.08,7.06-8.62,10.96-3.18,4.9-6.51,9.69-10.2,14.22-1.06,1.3-2.07,2.72-4.01,2.76-1.56,.18-2.74-.62-3.86-1.55-8.5-7.08-18.36-11.7-28.5-15.83-6.49-2.65-13.1-5.02-19.45-8.03-18.71-8.85-31.65-23.13-39.74-42.03-3.63-8.48-7.14-17-10.78-25.48-3.05-7.11-7.22-13.51-12.25-19.35-2.65-3.08-3.44-3-5.99,.21-7.14,8.98-11.34,19.48-15.5,30-3.54,8.94-7,17.91-12.47,25.93-8.64,12.67-19.93,22.08-34.02,28.19-10.13,4.39-20.36,8.55-30.41,13.12-6.69,3.05-12.49,7.44-18,12.2-2.79,2.41-2.72,3.05,.1,5.44,6.62,5.6,14.24,9.5,22.17,12.84,7.19,3.02,14.52,5.67,21.67,8.79,21.98,9.61,36.14,26.32,44.72,48.43,3.89,10.03,7.78,20.11,13.24,29.47,2.1,3.61,4.67,6.88,7.28,10.11,2.58,3.21,3.69,3.18,6.27-.21,5.62-7.4,9.7-15.62,13.2-24.21,3.52-8.65,6.36-17.59,11.05-25.75,9.4-16.37,22.68-28.21,40.22-35.27,7.23-2.91,14.29-6.24,21.54-9.09,9.31-3.67,17.52-9.02,25-15.59,1.26-1.11,2.41-2.43,4.34-2.29,1.91-.07,3.05,1.26,4.27,2.41,4.58,4.33,7.82,9.63,10.98,15.02,5,8.52,11.65,15.37,21.28,18.44,13.59,4.34,26.34,2.74,37.9-6.14,1.95-1.49,3.43-4.08,6.5-3.66-3.14,6.1-8.71,9.41-14.53,12.23-9.01,4.37-18.67,4.68-28.13,2.36-20.15-4.94-39.44-3.33-58.28,5.46-9.26,4.32-18.92,7.77-27.11,14.17-11.83,9.25-20.49,20.76-25.98,34.74-3.98,10.13-8.01,20.19-9.18,31.19-.87,8.23-.34,16.27,1.44,24.29,.19,.88,.28,1.78,.41,2.67-2.22,0-2.54-1.95-3.26-3.33-3.19-6.14-7.72-11.02-13.56-14.67-6.37-3.99-12.79-7.92-18.41-12.98-1.8-1.62-3.21-1.65-4.94,.12-4.3,4.39-9.45,7.71-14.77,10.67-9.21,5.11-16.01,12.21-19.59,22.24-.42,1.17-.65,2.91-2.69,2.5,.82-6.28,1.9-12.53,2.4-18.84,1.29-16.03-3.89-30.58-10.33-44.93-4.55-10.11-9.56-19.8-17.14-28.03-10.14-11-23.01-17.38-36.66-22.73-10.74-4.21-21.72-6.94-33.25-6.88-7.27,.04-14.37,1.59-21.33,3.75-3.21,.99-6.47,1.92-9.91,1.54,.31-2.24,2.25-2.15,3.78-2.64,4.93-1.58,9.92-3,14.28-5.94,6.75-2.46,10.77-7.94,14.4-13.61,3.5-5.46,6.91-10.97,11.17-15.88,1.84-2.12,1.94-3.81-.14-5.99-4.2-4.43-7.52-9.5-10.52-14.86-2.35-4.2-4.64-8.73-9.32-11.11-4.71-4.07-10.01-7.13-15.84-9.3-1.53-1.39-3.59-1.36-5.39-2.02-1.04-.38-2.44-.23-2.36-1.94Z"/>
  <path class="cls-2" d="M212.01,910.4c.8-6.15,1.87-12.27,2.33-18.45,1.17-15.56-3.13-29.98-9.68-43.89-2.92-6.2-5.29-12.67-9.08-18.46-10.02-15.32-24.05-25.36-40.9-32.06-12.02-4.78-24.17-8.55-37.2-8.66-7.18-.06-14.16,1.44-20.97,3.58-27.95,8.77-54.36-12.17-53.56-40.58,.07-2.59,.45-5.12,1.51-7.52,2.22,2.12,1.47,4.89,1.36,7.36-.78,17.25,12.84,35.27,32.3,38.32,15.99,2.51,29.16-2.92,38.8-16.14,4.35-5.98,7.87-12.55,12.73-18.18,1.54-1.78,1.44-3.36-.21-5.11-4.85-5.13-8.5-11.12-12.15-17.12-12.33-20.3-39.03-25.13-57.93-10.63-1.63,1.25-2.9,3.52-5.59,2.77,4.09-6.2,10.15-9.79,16.85-12.39,9.19-3.57,18.51-2.81,27.89-.61,19.94,4.66,39.01,1.99,57.45-6.76,8.42-4,17.17-7.27,24.67-13.05,13.44-10.36,22.3-23.81,28.32-39.58,4.52-11.86,8.09-23.77,7.76-36.57-.14-5.57-1.35-11.02-2.27-16.49,2.04-.13,2.45,1.62,3.19,2.88,3.68,6.27,8.55,11.38,14.67,15.29,6.12,3.91,12.28,7.77,17.61,12.76,1.47,1.38,2.67,1.61,4.25-.02,4.73-4.88,10.32-8.68,16.22-11.97,8.74-4.88,14.92-11.87,18.53-21.2,.5-1.28,.48-3.23,2.69-3.15-.66,7.2-2.45,14.22-2.5,21.55-.08,12.27,2.29,23.82,7.25,35.05,4.66,10.55,8.79,21.26,16.03,30.5,6.51,8.31,14.28,15.1,23.53,19.89,11.5,5.95,23.39,11.1,36.33,13.36,11.83,2.07,23.42,1.64,34.84-2.26,2.19-.75,4.45-1.44,6.84-1.2-.17,2.72-2.86,2.13-4.25,3.24-3.5,1.3-6.87,2.9-10.09,4.8-5.97,2.55-10.04,7.22-13.53,12.43-3.96,5.92-7.54,12.11-12.26,17.5-1.97,2.25-1.49,4.03,.52,5.99,4.59,4.47,8.03,9.78,11.11,15.39,2.56,4.67,5.74,8.93,10.51,11.68,5.45,4.25,11.48,7.28,18.19,9.05,1.36,.36,3.59,.11,3.73,2.53-6.09,.75-11.78-1.49-17.6-2.52-17.13-3.05-33.47-.83-49.25,6.34-8.84,4.01-17.98,7.39-26.03,13.01-14.66,10.25-23.92,24.36-30.28,40.85-4.75,12.33-8.44,24.74-7.82,38.11,.24,5.32,1.57,10.47,2.28,15.71-2.06,.12-2.5-1.64-3.15-2.93-3.61-7.18-9.01-12.6-15.97-16.52-5.79-3.26-11.01-7.31-16.09-11.54-1.83-1.53-3.16-1.63-4.97,.07-5.03,4.71-10.66,8.55-16.73,11.89-8.21,4.52-13.97,11.41-17.44,20.19-.54,1.36-.37,3.55-2.82,3.46Z"/>
  <path class="cls-2" d="M604.85,396.86c12.51,2.09,25.12,2.81,37.35-.94,14.76-4.53,29.17-10.12,41.89-19.2,12.51-8.93,20.98-20.92,26.88-35.01,5.39-12.88,9.99-25.92,9.96-40.08-.02-7.95-2.12-15.59-4.16-23.25-6.23-23.31,8.66-46.81,32.47-50.44,16.99-2.59,32.31,3.73,42.26,20.07,8.02,13.17,6.56,31.66-3.24,44.68-4.19,5.57-9.69,9.19-15.59,12.58-16.94,9.72-26.82,25.07-33.76,42.78-3.74,9.53-7.11,19.21-12.51,28.03-8.91,14.54-21.36,24.78-36.86,31.65-13.02,5.76-26.8,9.93-38.75,17.99-2.46,1.66-4.64,3.74-7.09,5.43-2.53,1.75-1.89,2.79,.11,4.69,11.7,11.12,26.27,16.95,40.97,22.46,12.95,4.86,24.57,11.54,34.18,21.66,8.49,8.94,13.66,19.72,18.44,30.85,5.05,11.77,8.96,24.15,17.06,34.4,7.22,9.14,15.77,16.81,25.87,22.7,10.8,6.29,18.55,15.02,21.07,27.56,3.89,19.3-5.43,37.69-23.35,45.7-21.03,9.41-44.38-.31-53.7-20.37-4.52-9.73-4.03-19.83-1.62-30.07,4.68-19.93,2.23-39.02-6.66-57.5-3.99-8.29-7.2-16.93-12.82-24.38-8.87-11.77-20.09-20.3-33.68-26.07-14.32-6.08-28.73-11.24-44.64-10.4-6.67,.35-13.03,2.08-19.39,3.86-1.76,.49-3.49,1.03-5.34,.83-.03-2.18,1.9-2.08,3.18-2.67,7.45-3.38,14.68-7.02,18.38-14.99,2.68-4.54,4.76-9.39,7.1-14.1,3-3.21,5.45-6.9,8.55-10.03,1.31-1.32,1.48-2.67,.22-4.1-4.81-5.5-7.88-12.15-12.03-18.08-3.01-4.3-6.78-7.78-11.71-9.82-2.59-1.36-5.15-2.77-7.75-4.11-.74-.6-1.59-1.14-1.28-2.31Z"/>
  <path class="cls-2" d="M212.1,299.39c.76-6.02,1.75-12.03,2.25-18.08,1.33-16.06-3.92-30.6-10.31-44.98-4.61-10.39-9.84-20.25-17.69-28.61-8.54-9.09-18.98-15.08-30.36-19.87-12.79-5.39-25.82-9.39-39.84-9.25-8.52,.09-16.5,3.06-24.73,4.73-21.79,4.43-42.74-9.4-47.51-31.14-3.53-16.12,3.26-33.09,17.02-42.53,13.3-9.12,31.96-9.09,45.52,.05,4.92,3.31,9.22,7.32,11.93,12.57,9.9,19.2,26,30.82,45.68,38.37,9.56,3.67,19.28,7.05,28.08,12.44,15.86,9.73,26.4,23.7,33.27,40.87,4.28,10.7,8.36,21.53,14.25,31.53,2.52,4.27,5.8,7.95,8.77,11.87,1.72,2.26,3.23,2.5,5.21,.12,6.38-7.67,10.87-16.36,14.61-25.55,3.85-9.48,7.03-19.25,12.25-28.15,8.63-14.71,20.84-25.34,36.36-32.2,9.96-4.4,20.12-8.38,30.02-12.93,15.11-6.94,26.35-18.26,34.73-32.42,6.41-10.84,14.75-19.01,27.35-22,1.37-.32,2.81-.35,4.22-.51-.05,2.27-2.04,2.4-3.46,3.01-7.16,3.05-13.27,7.35-17.93,13.75-15.65,21.47-5.62,52.33,19.74,60.5,1.79,.58,4.3,.27,4.78,3.02-5.55,.47-10.73-1.58-16.04-2.54-17.27-3.12-33.69-.67-49.56,6.5-8.37,3.78-17.11,6.79-24.72,12.09-14.84,10.33-24.76,24.28-31.08,41.17-4.66,12.47-8.76,24.94-7.94,38.45,.27,4.5,1,8.97,1.52,13.46-2.05,.46-2.73-1.19-3.45-2.46-3.84-6.76-9.57-11.47-16.14-15.39-5.35-3.19-10.38-6.88-15.17-10.87-1.32-1.1-2.53-1.84-4.04-.36-6.18,6.04-13.74,10.15-20.89,14.82-6.42,4.19-10.56,10.2-13.58,17.11-.63,1.44-.79,3.41-3.07,3.4Z"/>
  <path class="cls-2" d="M551.93,299.4c.72-7.19,2.29-14.27,2.36-21.56,.11-11.62-2.33-22.65-6.9-33.22-3.39-7.85-6.43-15.88-10.86-23.24-9.88-16.44-24.33-27.16-42.03-34.09-11.9-4.66-23.86-8.76-36.79-8.64-7.12,.07-14.19,1.05-20.99,3.36-2.09,.71-4.16,1.52-6.43,1.22-.03-2.26,1.87-2.56,3.34-3.15,20.74-8.34,28.64-31.17,22.23-49.26-4.72-13.32-14.42-21.56-27.95-25.42-1.47-.42-3.54-.08-3.86-2.41,14.44,.24,26.56,5.89,33.43,18.52,11.26,20.7,28.73,32.84,50.14,40.66,11.83,4.32,23.46,9.08,33.32,17.34,9.54,7.98,16.85,17.53,21.82,28.9,4.88,11.17,9.57,22.43,14.66,33.51,2.72,5.91,6.87,10.96,11.18,15.84,1.75,1.98,3.04,1.86,4.66-.1,6.32-7.69,11.06-16.26,14.7-25.51,3.99-10.14,7.63-20.45,13.3-29.83,9.65-15.98,23.78-26.37,40.94-33.18,10.48-4.16,21.1-8.12,30.88-13.83,12.88-7.52,22.3-18.51,29.76-31.19,12.95-22.02,39.74-27.82,60.43-12.91,14.78,10.65,20.04,32.83,12.34,49.38-8.59,18.47-27.71,27.17-47.94,22.32-20.11-4.83-39.53-3.37-58.37,5.58-8.54,4.05-17.45,7.21-25.21,12.88-12.84,9.4-21.95,21.51-27.84,36.19-3.97,9.88-7.86,19.75-9.11,30.45-.83,7.15-.5,14.22,.73,21.28,.22,1.27,.27,2.57,.4,3.85-2.07,.47-2.67-1.21-3.41-2.48-3.64-6.2-8.68-10.9-14.84-14.55-5.58-3.31-11-6.88-15.8-11.31-1.48-1.37-3.05-2.52-5.02-.52-5.9,5.99-13.33,9.85-20.28,14.37-6.67,4.34-10.97,10.53-14.15,17.65-.6,1.34-.72,3.15-2.85,3.11Z"/>
  <path class="cls-2" d="M245.61,477.8c-4.1,.4-7.99-.9-11.87-1.77-20.01-4.48-39.06-1.92-57.52,6.82-9.02,4.27-18.26,7.94-26.16,14.34-11.26,9.12-19.54,20.26-24.9,33.7-4.13,10.36-8.12,20.67-9.28,31.97-.99,9.63-.04,18.91,2.83,27.99,7.7,24.37-5.39,48.2-30.43,53.21-25.78,5.16-47.92-13.75-48.52-38.14-.45-18.44,8.76-30.65,24.31-39.3,13.86-7.72,22.98-19.81,29.63-33.99,5.18-11.04,8.41-22.93,14.41-33.59,10.03-17.83,25.27-29.38,44.17-36.85,11.18-4.42,22.76-8.2,32.7-15.28,5.1-3.63,10.73-6.8,13.79-12.69,.32-.23,.67-.28,1.05-.19,5.8,4.84,10.58,10.57,14.61,16.94,2.75,5.17,5.59,10.27,10.23,14.07,4.54,4.96,10.12,8.14,16.58,9.91,1.71,.47,4.03,.23,4.37,2.86Z"/>
  <path class="cls-2" d="M185.55,424.86c-11.3-5.54-23.25-9.56-34.68-14.75-19.44-8.82-32.84-23.55-40.92-43.27-3.59-8.76-7.38-17.43-11.24-26.07-7.15-16.01-19.34-27.42-34.04-36.32-10.83-6.56-18.62-15.33-21.13-27.97-4.65-23.32,10.47-43.86,31.43-47.97,23.67-4.64,44.3,9.52,48.72,33.28,.85,4.55,.73,9.29-.24,13.92-1.7,8.11-3.33,16.18-3.45,24.56-.16,11.75,1.98,22.9,6.77,33.61,4.44,9.93,8.04,20.26,14.55,29.16,9.71,13.29,22.61,22.26,37.84,28.09,8.71,3.33,17.3,7.07,26.71,8.07,1.32,.4,2.82,.44,3.6,1.89,.51,.95,1,2.54,.07,2.75-2.68,.62-1.81,2.68-2.09,4.2-.39,2.12-.97,4.02-3.06,5.05-2.49,1.23-3.29,3.26-3.37,5.98-.17,5.52-1.22,6.4-6.72,6.5-.64,.01-1.5-.41-1.89-.05-2.59,2.43-4.66,.32-6.86-.67Z"/>
  <path class="cls-10" d="M212.1,299.39c2.27-3.75,3.53-7.96,6.01-11.67,3.73-5.58,8.64-9.72,14.33-12.83,6.21-3.4,11.69-7.63,16.87-12.37,.83-.76,1.56-2.59,3.1-1.09,6.74,6.58,14.91,11.16,22.64,16.36,4.95,3.33,8.61,7.81,11.46,13,.5,.91,.91,1.88,1.94,2.34,5.83,14.33,5.08,28.09-3.78,41.03-9.06,13.23-26.29,19.87-42.02,16.32-16.33-3.68-28.5-16.27-31.44-32.28-1.17-6.38-.86-12.62,.89-18.82Z"/>
  <path class="cls-10" d="M551.76,910.33c2.05-4.15,3.84-8.47,6.23-12.42,3.65-6.05,9.41-9.88,15.37-13.4,5.69-3.36,11.31-6.85,15.8-11.81,1.39-1.54,2.34-1.83,4.05-.2,5.25,5.04,11.21,9.21,17.55,12.76,8.48,4.76,14.19,11.88,18.25,20.52,7.94,19.55-.41,39.24-14.84,48.73-14.53,9.55-29.81,10.13-44.65,.83-14.99-9.4-20.83-23.46-18.58-40.92,.18-1.37-.24-2.9,.84-4.1Z"/>
  <path class="cls-10" d="M551.93,299.4c2.07-2.56,2.39-5.9,4.06-8.73,4.32-7.3,10.33-12.58,17.63-16.56,5.73-3.13,10.87-7.03,15.49-11.62,1.13-1.12,1.94-2.28,3.75-.57,5.96,5.63,12.76,10.14,19.78,14.35,6.04,3.62,10.66,8.6,13.86,14.88,.42,.82,.88,1.59,1.77,2,4.79,12.01,5.34,23.9-.67,35.75-11.64,22.95-41.04,29.69-61.43,14.01-13.26-10.19-18.66-26.7-14.24-43.5Z"/>
  <path class="cls-10" d="M212.01,910.4c2.63-6.77,5.67-13.3,11.08-18.42,2.84-2.69,5.87-5.16,9.37-6.87,6.38-3.12,11.8-7.48,16.83-12.37,1.43-1.39,2.28-1.89,4.06-.28,4.7,4.25,9.55,8.45,15.2,11.37,9.51,4.92,16.07,12.45,20.62,21.95,.57,2.25,1.03,4.53,1.71,6.74,5.97,19.13-8.15,44.31-31.94,48.45-26.97,4.69-49.61-15.55-48.34-42.95,.12-2.56,.92-5.08,1.4-7.62Z"/>
  <path class="cls-10" d="M461.49,280.66c-2.99,5.55-5.28,11.51-10.08,15.98-3.07,2.86-6.46,5.19-10.04,7.27-6.07,3.54-11.8,7.5-16.79,12.49-.9,.9-1.84,2.2-3.23,.83-6.8-6.7-15.07-11.36-22.91-16.62-5.21-3.5-8.68-8.45-11.54-13.91-.53-1.01-.8-2.22-1.92-2.85-7.89-19.93,.16-40.2,16.23-50.35,24.96-15.76,58.48,.3,62.01,29.6,.74,6.13-.34,11.79-1.74,17.55Z"/>
  <path class="cls-10" d="M291.61,594.78c-2.7,7.82-6.76,14.74-12.97,20.37-3.99,3.62-9.08,5.46-13.34,8.64-3.83,2.86-7.95,5.32-10.92,9.18-1.29,1.68-2.64,1.88-4.2,.27-5.37-5.54-11.86-9.59-18.37-13.6-7.74-4.77-13.16-11.56-17.37-19.45-5.36-14.32-3.81-27.73,5.23-40.19,9.12-12.57,26.35-18.81,41.88-15.08,16.19,3.88,28.42,17.06,30.89,32.93,.9,5.76,.76,11.35-.84,16.92Z"/>
  <path class="cls-10" d="M631.4,594c-2.67,7.49-5.87,14.63-11.94,20.14-2.43,2.21-5.04,4.13-7.88,5.65-6.57,3.52-12.45,7.94-17.83,13.05-1.07,1.02-2.02,2.17-3.55,.62-5.87-5.97-12.97-10.25-20.03-14.63-7.25-4.5-12.1-11.16-15.99-18.59-9.41-25.31,4-50.48,30.42-55.62,23.18-4.51,44.45,11.52,47.72,34.39,.74,5.18-.14,10.02-.92,14.98Z"/>
  <path class="cls-10" d="M790.34,778.69c-6.54,5.78-13.37,11.04-22.3,12.6-16.24,2.84-30.31-1.63-40.78-14.78-3.73-4.68-5.84-10.32-9.6-14.97-2.54-3.13-5.17-6.1-8.37-8.56-.21-.18-.28-.36-.2-.52,.08-.16,.16-.25,.24-.25,5.58-5.15,9.66-11.48,13.56-17.87,8.63-14.16,21.05-21.65,37.69-21.03,20.64,.77,38.6,18.45,38.42,38.98-.02,2.34,.03,4.67,.05,7.01-.67,7.46-4.51,13.5-8.69,19.38Z"/>
  <path class="cls-10" d="M53.78,725.67c5.51-4.79,11.41-8.93,18.55-10.96,17.13-4.87,38.03,1.34,48.37,21.57,2.79,5.46,6.57,10.23,10.91,14.56,1.01,1.01,2.26,1.96,.81,3.56-7.32,8.09-11.49,18.57-19.36,26.18-11.28,10.92-24.97,14.24-39.83,9.74-15.86-4.79-25.4-16.08-28.5-32.35-.84-4.39-.21-9.06-.26-13.6,1.38-7.1,4.57-13.29,9.31-18.71Z"/>
  <path class="cls-10" d="M406.84,642.43c-2.11-2.23-5.21-2.79-7.65-4.49-20.87-14.57-23.45-44.55-5.36-62.45,2.69-2.66,5.73-4.86,9-6.73,5.75-3.3,11.45-6.68,15.8-11.82,1.7-2,2.92-1.71,4.72,.02,4.5,4.32,9.61,7.89,14.99,11.03,10.3,6.01,17.83,14.31,20.61,26.1,5.64,24-9.45,45.14-30.82,49.71-.88,.19-1.83,.09-2.52,.83-6.38,.31-12.71,.2-18.77-2.21Z"/>
  <path class="cls-10" d="M424.05,102.99c6.98,1.57,13.5,4.07,19.35,8.39,14.98,11.07,20.26,32.08,12.43,49.03-4.83,10.45-12.41,17.62-23.24,21.44-.82,.29-1.53,.91-2.29,1.38-4.6,1.57-9.33,.65-14.01,.78-6.22-2.08-12.31-4.25-17.71-8.32-17.03-12.82-20.84-38.71-8.13-55.88,5.28-7.13,12.07-11.93,20.3-14.91,.83-.3,1.6-.77,2.4-1.17,0,0,0,0,0,0,1.19-.9,2.73,.11,3.93-.72,2.32,0,4.65-.01,6.97-.02Z"/>
  <path class="cls-3" d="M185.55,424.86c4.36,1.68,8.31-1.53,12.66-1.05,1.79,.2,1.45-2.17,1.34-3.47-.36-4.23,.27-7.72,5.15-8.92,1.29-.32,.92-1.63,1.16-2.6,.47-1.92-.27-4.45,2.71-5.19,1.12-.28,.28-1.25,.1-1.92-.4-1.44-1.87-1.67-2.81-2.49,11.16,1.83,22.03,.47,32.77-2.77,1.45-.44,3.07-.31,4.6-.44,0,.25,0,.5,0,.75-.97,1.47-2.63,1.54-4.08,1.91-10.77,2.73-19.27,8.59-25.23,18.03-3.18,5.04-6.34,10.09-10.2,14.65-1.09,1.28-1.86,3.25-4.16,2.88-.27,0-.53,.01-.8,.02-2.33-1.82-4.66-3.64-6.99-5.46-.14-.95-.66-1.2-1.52-.84-1.75-.75-3.32-1.77-4.71-3.06Z"/>
  <path class="cls-8" d="M417.87,794.29c-4.23-1.46-8.52-2.77-12.67-4.44-3.71-1.49-7.11-3.6-10.02-6.4-9.39-8.08-13.96-18.35-13.84-30.7,.02-1.73-.24-3.74,1.94-4.63,1.83,.99,1.57,2.85,1.76,4.46,.92,7.7,2.85,15,7.44,21.45,6.71,9.43,15.84,14.98,27.2,16.27,9.82,1.12,18.25-2.88,25.78-8.94,1.48-1.19,2.6-2.99,4.85-2.9,1.52,1.57,.51,2.74-.7,3.75-1.74,1.45-3.28,3.15-5.32,4.23-4.35,3.16-9.39,4.72-14.46,6.2-1.47,.43-3.03,.59-4.3,1.58-2.56,.02-5.11,.04-7.67,.06Z"/>
  <path class="cls-12" d="M245.61,477.8c-4.3-1.94-9.23-2.22-13.22-4.99-3.11-2.15-6.83-3.55-8.66-7.24-4.77-5.58-8.61-11.64-10-19-.65-3.43-1.46-6.83-1.27-10.36,.06-1.19,.14-2.65,1.57-2.72,1.23-.06,1.38,1.33,1.47,2.36,.1,1.18,.52,2.27,.77,3.41,2.23,13.07,8.37,23.48,20.27,30.05,5.55,3.07,11.41,4.74,17.76,4.81,2.11,.02,4.47-.59,6.15,1.44-2.11,.74-4.22,1.47-6.32,2.2-2.84,0-5.68,.01-8.51,.02Z"/>
  <path class="cls-10" d="M604.85,396.86c.54,.49,1.08,.97,1.63,1.46-1.59,1.8-3.58,1.02-5.41,.73-5.74-.92-11.48-1.03-17.23-.22-6.41-.2-11.71,2.72-16.75,6.17-5.43,3.71-9.52,8.69-12.81,14.37-.85,1.46-1.5,3.47-3.89,3.19,2.6-8.94,7.82-15.94,15.54-21.11,1.07-.72,2.07-1.54,3.1-2.32,11.67-5.1,23.57-6.4,35.82-2.27Z"/>
  <path class="cls-11" d="M622.8,459.9c-3.87,8.28-11.33,12.16-19.13,15.62-1.16,.51-2.31,1.04-3.46,1.55,0,0,0,0,0,0-1.19,.9-2.72-.08-3.93,.7-2.58,.02-5.16,.03-7.74,.05-2.7-1.53-6.19-.79-8.66-2.99,1.33-1.61,3.12-.98,4.71-.83,13.51,1.29,24.94-3.05,34.53-12.52,.99-.98,1.99-2.12,3.68-1.58Z"/>
  <path class="cls-13" d="M409.23,714c1.57-.78,3.14-1.55,4.7-2.33,3.84-1.1,7.76-.76,11.67-.72,2.65,1.58,6.24,.61,8.55,3.12-1.21,1.35-2.72,1.14-4.22,.74-1.88-.5-3.75-.48-5.64-.11-2.15,.18-4.3,.09-6.46,.04-1.38-.26-2.76-.36-4.11,.18-.39,.12-.79,.17-1.2,.18-1.22,0-2.49,.13-3.31-1.1Z"/>
  <path class="cls-2" d="M190.27,427.92c.58-.86,1.23-1.95,2.32-.83,.76,.78-.16,1.28-.8,1.67-.51-.28-1.01-.56-1.52-.84Z"/>
  <path class="cls-2" d="M596.28,477.78c1.18-.99,2.58-.68,3.93-.7-1.15,1.11-2.58,.72-3.93,.7Z"/>
  <path class="cls-2" d="M417.07,103.01c-1.17,1.02-2.58,.69-3.93,.72,1.15-1.1,2.57-.74,3.93-.72Z"/>
  <path class="cls-5" d="M540.15,436.53c-12.52,12.86-28.81,19.27-45.02,25.43-25.4,9.65-42.63,26.74-51.76,52.38-4.43,12.45-9.28,24.83-17.78,35.29-.25,.3-.44,.64-.69,.94-3.55,4.37-3.66,4.32-7.62,.45-8.38-8.21-12.93-18.67-17.44-29.19-5.1-11.91-9.26-24.34-17.1-34.86-10.22-13.73-23.88-22.68-39.87-28.65-12.48-4.66-25.15-9.15-35.71-17.82-3.56-2.92-3.73-3.02-.59-6.09,8.29-8.1,18.07-13.78,28.78-18.11,9.97-4.04,20.1-7.81,29.51-13.08,17.51-9.83,28.9-24.79,35.86-43.46,3.35-8.99,6.75-17.99,11.42-26.42,2.26-4.09,4.98-7.87,7.81-11.58,1.87-2.46,3.29-2.88,5.67-.28,7.29,8,12.21,17.31,16.33,27.2,4.28,10.29,7.92,20.9,13.76,30.46,9.91,16.2,24.02,27.25,41.73,33.98,10.79,4.1,21.71,7.99,31.47,14.32,3.9,2.53,7.49,5.54,11.22,8.33,.25,.17,.33,.34,.25,.5-.08,.17-.17,.25-.25,.25Z"/>
  <path class="cls-6" d="M622.8,459.9c-3.98,3.85-7.96,7.61-12.85,10.44-9.5,5.5-19.58,6.13-30.08,4.49-4.5-1.37-8.71-3.32-12.49-6.15-8.46-6.66-13.22-15.32-14.79-25.99-2.68-18.22,8.32-40.37,30.47-45.12,6.69-1.54,13.34-.89,19.99,.31,1.13,.2,2.29,.29,3.43,.43,2.82,.84,5.31,2.36,7.79,3.9,13.78,8.97,18.68,22.08,17.6,37.92-.14,2.05-1.12,3.92-2.18,5.68-1.76,4.96-3.96,9.7-6.89,14.08Z"/>
  <path class="cls-8" d="M260.45,475.57c-9.61,.44-18.68-.94-26.99-6.41-10.74-7.06-16.66-16.88-18.28-29.49-2.85-9.91,.02-18.8,4.88-27.33,.45-.79,.88-1.59,1.14-2.47,3.88-6.65,10.53-9.24,17.25-11.68,2.05-.74,4.25-.92,6.37-1.38,3.11,0,6.21,0,9.32,0,21.93,2.47,34.17,20.1,35.36,38.14,.92,14.03-6.12,31.34-20.51,37.65-.83,.37-1.59,.86-2.41,1.26-2.04,.57-4.09,1.13-6.13,1.7Z"/>
  <path class="cls-10" d="M266.58,473.88c4.78-3.88,10.02-7.12,13.74-12.33,10.56-14.79,10.51-35.54-1.44-49.94-5.89-7.1-13.19-11.37-21.87-13.76-.97-.27-2.1-.17-2.87-1.03,15.41,.45,26.41,8.09,33.91,21.12,3.77,6.56,8.03,12.7,13.53,17.89,1.38,1.3,1.57,2.15,.35,3.46-6.22,6.69-10.02,15.1-15.65,22.17-5.04,6.34-11.77,10.45-19.7,12.42Z"/>
  <path class="cls-8" d="M583.06,397.58c-6.92,2.97-13.52,6.4-18.73,12.08-13.3,14.5-14.58,37.13-1.93,52.64,1.71,2.09,3.33,4.26,4.99,6.39-6.32-3.13-10.3-8.51-13.65-14.43-1.53-2.7-2.83-5.54-4.24-8.31-3.6-6.39-4.22-12.9-.78-19.57,.56-1.27,1.12-2.55,1.68-3.82,4.08-4.79,6.35-10.9,11.36-15.04,6.27-5.19,12.9-9.41,21.31-9.94Z"/>
  <path class="cls-1" d="M244.82,396.82c-6.49,1.82-12.73,4.15-18.01,8.56-1.7,1.42-3.38,2.81-4.61,4.66-6.06,8.34-9.25,17.68-9.71,27.95-.13,2.96,.76,5.81,1.3,8.7,.29,1.53,1.44,3.2-.18,4.69-3.99-6.29-9.86-11.04-14.03-17.18,5.46-5.93,9.67-12.77,14.07-19.48,6.99-10.65,17.25-16.07,29.59-17.99,.53,.03,1.05,.05,1.58,.08Z"/>
  <path class="cls-10" d="M548.72,426.38c-1.06,6.58-.57,13.09,.78,19.57-3.04-3.21-5.66-6.84-9.35-9.41,0-.25,0-.5,0-.75,2.85-3.14,5.71-6.27,8.56-9.41Z"/>
  <path class="cls-5" d="M709.32,752.22c0,.26-.02,.51-.04,.77-13.09,13.46-30.24,19.81-47.12,26.41-19.43,7.6-34.47,20.03-44.01,38.58-4.02,7.81-6.95,16.2-10.18,24.4-3.25,8.26-7.5,15.95-12.66,23.15-3.73,5.2-4.8,4.98-9.02-.02-9.5-11.25-14.68-24.79-19.67-38.21-9.97-26.83-28.37-44.21-55.23-53.49-12.62-4.36-24.9-9.65-35.22-18.65-2.38-2.07-1.91-2.99-.09-4.73,8.28-7.93,18.06-13.32,28.56-17.74,10.51-4.42,21.36-8.15,31.2-14.02,17.92-10.68,28.53-27,35.54-46.2,4.18-11.45,8.75-22.77,16.35-32.56,3.95-5.09,4.11-5.26,8.4-.41,6.69,7.58,11.13,16.48,15.01,25.75,4.2,10.04,7.78,20.38,13.33,29.8,9.81,16.66,24.18,27.73,42.15,34.54,10.78,4.09,21.69,8.02,31.46,14.32,3.9,2.52,7.5,5.52,11.23,8.3Z"/>
  <path class="cls-10" d="M444.29,786.45c1.72-2.88,5.28-4.26,6.29-7.72-.35-1.41,.33-2.54,1.06-3.61,3.12-4.55,5.05-9.6,6.39-14.9,3.1-12.06,.33-22.88-6.94-32.72-.93-1.26-2.11-2.33-1.34-4.09,5.28,2.28,7.4,7.41,10.06,11.82,3.35,5.57,6.87,10.94,11.52,15.48,1.61,1.57,1.84,2.66,.2,4.46-6.12,6.7-10.24,14.85-15.65,22.05-3.01,4.01-6.52,7.68-11.6,9.23Z"/>
  <path class="cls-7" d="M449.76,723.4c4.16,5.91,8.26,11.79,9.73,19.16,1.23,6.17,1.57,12.19-.35,18.24-1.78-1.45-1.56-3.54-1.38-5.39,1.67-17.76-11.84-35.56-30.33-39.68-1.38-.31-3.22-.33-3.37-2.47,3.43-.47,6.71,.77,10.1,.81,5.85,2.03,11.31,4.71,15.61,9.34Z"/>
  <path class="cls-5" d="M369,752.37c-.12,1.26-1.11,1.8-1.82,2.5-8.62,8.37-18.92,13.94-29.96,18.42-9,3.65-18.06,7.19-26.66,11.8-17.36,9.33-28.97,23.5-36.21,41.64-4.37,10.95-8.06,22.23-14.4,32.3-1.72,2.74-3.58,5.42-5.63,7.91-2.92,3.56-3.57,3.43-6.47,.04-6.83-7.97-11.78-16.97-15.71-26.69-3.93-9.73-7.64-19.62-12.79-28.8-9.82-17.52-24.8-28.89-43.42-35.94-10.3-3.9-20.71-7.65-30.11-13.59-3.18-2.01-6.13-4.33-9.16-6.55-2.94-2.16-2.07-3.37-.04-5.29,9.32-8.82,20.55-14.25,32.27-19.08,10.65-4.39,21.64-8.19,31.22-14.85,14.92-10.38,24.45-24.68,30.74-41.53,4.67-12.5,9.32-25.08,17.93-35.66,3.27-4.01,3.14-4.13,6.85-.31,8.24,8.48,12.75,19.12,17.23,29.78,4.07,9.69,7.58,19.68,13.22,28.59,9.99,15.81,24.26,26.29,41.71,32.87,13.08,4.93,26.35,9.64,37.44,18.65,1.4,1.14,2.84,2.25,3.77,3.79Z"/>
  <path class="cls-10" d="M383.55,748.33c-1.92,6.34-.45,12.45,1.48,18.46,2.03,6.34,5.5,11.88,10.16,16.67-5.08-2.58-8.09-7.18-10.78-11.83-3.46-5.97-7.14-11.7-12.25-16.38-1.87-1.71-2.17-3.09-.3-5.17,6.07-6.74,10.21-14.88,15.65-22.08,3.06-4.05,6.84-7.33,11.67-9.22,.58,1.93-1.02,2.77-2,3.88-1.29,1.45-2.85,2.67-3.54,4.58-3.89,5.41-6.73,11.29-8.27,17.8-.29,1.24-.57,2.55-1.81,3.3Z"/>
  <path class="cls-9" d="M392.84,726.46c1.06-3.42,4.57-4.83,6.32-7.69,3.12-2.09,6.48-3.67,10.06-4.77,1.31,0,2.61,0,3.92,.01,.29,1.8-1.14,2.2-2.31,2.59-5.49,1.86-10.49,4.47-14.57,8.69-.87,.9-1.92,1.86-3.42,1.17Z"/>
  <path class="cls-10" d="M629.69,445.82c1.04-6.95,1.7-13.87-.44-20.77-2.65-8.55-6.56-16.23-14.05-21.62-.4-.28-.62-.81-.93-1.22,6.93,2.85,11.56,8.21,15.2,14.42,3.02,5.16,6.07,10.27,10.05,14.75,.99,1.11,1.52,2.03,.33,3.32-3.41,3.69-6.77,7.41-10.15,11.12Z"/>
  <path class="cls-14" d="M213.6,451.39c-.89-5.05-2.79-9.94-2.33-15.22,.86-9.89,3.48-19,10.92-26.12,.55,2.39-1.66,3.56-2.52,5.28-3.85,7.73-5.01,15.86-4.51,24.35-1.41-1.48-.37-3.49-1.23-5.09-.27,7.18,1.08,14.04,3.91,20.68,1.57,3.69,4.34,6.63,5.87,10.31-4.81-3.7-7.72-8.77-10.13-14.19Z"/>
  <path class="cls-6" d="M392.84,726.46c4.4-3.91,8.71-7.87,14.34-10.13,1.97-.79,4.49-.26,5.96-2.32,0,0,0,0,0,0,1.19-.89,2.73,.13,3.92-.73,2.33-.01,4.66-.02,7-.03,3.93,1.6,8.18,2.05,12.06,3.98,12.2,6.04,19.72,15.63,22.6,28.84,1.06,4.84,.21,9.81,.42,14.72-1.34,6.7-4.22,12.67-8.56,17.93-5.47,5.22-11.48,9.49-18.86,11.74-11.69,3.57-22.02,.44-31.4-6.4-12.02-8.77-16.65-21.26-16.78-35.74,.92-8.22,4.05-15.49,9.3-21.87Z"/>
  <path class="cls-9" d="M417.06,713.28c-1.15,1.07-2.58,.67-3.92,.73,1.14-1.12,2.57-.69,3.92-.73Z"/>
</svg>